<?xml version="1.0" encoding="utf-8"?>
<!-- Generator: Adobe Illustrator 27.5.0, SVG Export Plug-In . SVG Version: 6.00 Build 0)  -->
<svg version="1.1" id="Illustration" xmlns="http://www.w3.org/2000/svg" xmlns:xlink="http://www.w3.org/1999/xlink" x="0px"
	 y="0px" viewBox="0 0 1200 800" style="enable-background:new 0 0 1200 800;" xml:space="preserve">
<g>
	<linearGradient id="SVGID_1_" gradientUnits="userSpaceOnUse" x1="1905.1139" y1="434.8252" x2="311.4308" y2="414.9029">
		<stop  offset="0" style="stop-color:#B37CFF"/>
		<stop  offset="1" style="stop-color:#F895E7"/>
	</linearGradient>
	<path style="opacity:0.5;fill:url(#SVGID_1_);" d="M319.874,743.955c143,14.507,154.01-37.227,306.683-18.309
		c95.175,11.793,118.952,35.374,219.713,35.093c67.302-0.188,133.297-1.276,192.249-45.773
		c13.415-10.126,100.931-78.707,80.867-160.208c-10.065-40.885-58.224-40.735-71.712-83.918
		c-11.048-35.371,11.246-61.093,25.938-102.228c28.383-79.466,24.479-198.109-21.361-228.868
		c-69.178-46.418-194.277,133.869-341.776,91.547c-61.8-17.732-54.194-53.501-135.795-99.176
		c-137.029-76.701-331.463-72.664-372.292,1.526c-33.415,60.72,54.365,135.172,15.258,195.3
		c-35.503,54.587-122.058,15.071-175.465,74.764c-45.732,51.113-40.188,144.821-7.629,205.981
		C93.823,721.023,249.16,736.781,319.874,743.955z"/>
	
		<linearGradient id="SVGID_00000016791220100767809980000002650347890315924915_" gradientUnits="userSpaceOnUse" x1="1862.1302" y1="437.9738" x2="340.1339" y2="418.9477">
		<stop  offset="0" style="stop-color:#B37CFF"/>
		<stop  offset="1" style="stop-color:#F895E7"/>
	</linearGradient>
	<path style="opacity:0.5;fill:url(#SVGID_00000016791220100767809980000002650347890315924915_);" d="M169.533,139.177
		C96.607,173.288,42.616,264.806,55.678,331.855c11.975,61.469,73.766,68.781,87.581,138.378
		c15.765,79.42-55.78,114.835-36.784,161.149c27.951,68.146,188.462,5.164,427.395,84.078
		c54.351,17.951,80.234,32.501,134.875,36.784c90.594,7.1,112.715-25.587,234.717-42.039c127.51-17.194,183.561,7.695,204.94-28.026
		c19.065-31.855-21.249-58.769-26.274-148.888c-4.125-73.968,21.415-84.868,19.268-157.646
		c-0.698-23.668-2.966-100.521-54.3-169.907c-46.01-62.189-123.614-107.806-203.188-110.352
		c-116.064-3.714-129.188,87.629-252.233,115.607C406.512,253.096,303.845,76.352,169.533,139.177z"/>
	<g>
		
			<linearGradient id="SVGID_00000099619640954190554030000008633834839513368724_" gradientUnits="userSpaceOnUse" x1="841.8966" y1="380.5026" x2="1245.3213" y2="547.6354">
			<stop  offset="0" style="stop-color:#B37CFF"/>
			<stop  offset="1" style="stop-color:#F895E7"/>
		</linearGradient>
		<path style="fill:url(#SVGID_00000099619640954190554030000008633834839513368724_);" d="M866.044,714.945
			c-89.205-26.226-127.048-199.563-69.266-285.434c22.636-33.639,47.894-35.943,76.961-85.953
			c35.268-60.678,15.614-87.445,48.151-131.18c28.618-38.468,91.068-81.266,145.606-63.142
			c50.953,16.932,75.573,80.584,68.893,127.86c-7.021,49.692-45.082,56.248-56.4,110.755
			c-11.191,53.895,20.23,75.376,21.534,120.965C1104.395,609.172,958.922,742.25,866.044,714.945z"/>
		<path style="opacity:0.3;fill:#FFFFFF;" d="M1040.188,199.599c-13.4,39.006-27.115,77.845-40.864,116.644l-20.484,58.234
			l-10.198,29.121c-3.343,9.725-6.653,19.46-10.071,29.159c-3.442,9.692-6.648,19.458-9.935,29.199l-4.91,14.619
			c-1.695,4.855-3.265,9.746-4.88,14.625l-9.639,29.293c-3.026,9.817-6.223,19.586-9.327,29.385
			c-12.207,39.253-23.878,78.651-34.037,118.586l-2.545-0.494c1.595-10.197,3.315-20.387,5.071-30.581
			c0.784-5.121,1.95-10.148,3.004-15.206l3.212-15.167l1.629-7.582c0.547-2.527,1.1-5.053,1.742-7.553l3.706-15.047
			c2.47-10.032,4.923-20.082,7.759-30.01c2.773-9.949,5.453-19.928,8.304-29.859l8.979-29.649c1.51-4.938,2.954-9.898,4.563-14.802
			l4.814-14.718c3.223-9.807,6.367-19.643,9.743-29.395c13.111-39.154,27.653-77.794,42.815-116.172
			c7.58-19.19,15.491-38.248,23.626-57.211c8.212-18.933,16.508-37.822,25.528-56.414L1040.188,199.599z"/>
		<path style="fill:#FFFFFF;" d="M1007.262,246.87c-11.392-26.068-10.482-58.475-10.472-58.799l1.296,0.042
			c-0.01,0.322-0.909,32.444,10.364,58.237L1007.262,246.87z"/>
		<path style="fill:#FFFFFF;" d="M990.566,273.612c-20.035-33.64-18.089-70.927-18.067-71.299l1.294,0.076
			c-0.022,0.369-1.939,37.273,17.886,70.559L990.566,273.612z"/>
		<path style="fill:#FFFFFF;" d="M972.451,308.245c-27.875-35.694-22.436-81.275-22.378-81.732l1.286,0.165
			c-0.057,0.451-5.42,45.51,22.114,80.768L972.451,308.245z"/>
		<path style="fill:#FFFFFF;" d="M961.883,343.832c-31.161-29.811-30.714-77.631-30.705-78.109l1.296,0.021
			c-0.008,0.475-0.439,47.738,30.306,77.152L961.883,343.832z"/>
		<path style="fill:#FFFFFF;" d="M950.754,374.889c-21.358-17.774-30.74-51.092-30.832-51.425l1.25-0.346
			c0.091,0.331,9.37,33.265,30.412,50.775L950.754,374.889z"/>
		<path style="fill:#FFFFFF;" d="M935.512,410.204c-29.535-25.017-34.084-49.635-34.127-49.88l1.278-0.221
			c0.042,0.242,4.54,24.422,33.688,49.111L935.512,410.204z"/>
		<path style="fill:#FFFFFF;" d="M922.386,456.465c-32.697-23.404-38.594-69.643-38.65-70.107l1.287-0.154
			c0.055,0.458,5.892,46.141,38.118,69.207L922.386,456.465z"/>
		<path style="fill:#FFFFFF;" d="M903.863,498.68c-40.303-27.42-44.395-80.902-44.431-81.439l1.293-0.089
			c0.037,0.531,4.094,53.396,43.867,80.456L903.863,498.68z"/>
		<path style="fill:#FFFFFF;" d="M890.549,548.274c-55.787-47.065-56.942-108.128-56.948-108.739l1.297-0.012
			c0.005,0.606,1.172,61.094,56.487,107.761L890.549,548.274z"/>
		<path style="fill:#FFFFFF;" d="M871.313,603.219c-62.95-42.158-58.764-126.33-58.715-127.175l1.294,0.076
			c-0.049,0.838-4.183,84.282,58.141,126.022L871.313,603.219z"/>
		<path style="fill:#FFFFFF;" d="M856.159,655.229c-33.52-20.926-47.445-56.417-53.224-82.507
			c-6.253-28.229-4.575-51.843-4.557-52.078l1.293,0.096c-0.07,0.933-6.267,93.783,57.174,133.389L856.159,655.229z"/>
	</g>
	<g>
		
			<linearGradient id="SVGID_00000173147434328529481960000005634380803012941242_" gradientUnits="userSpaceOnUse" x1="-1394.8209" y1="131.8328" x2="-975.4916" y2="131.8328" gradientTransform="matrix(-0.9766 -0.2152 -0.2152 0.9766 -879.2543 -33.2932)">
			<stop  offset="0" style="stop-color:#A737D5"/>
			<stop  offset="1" style="stop-color:#EF497A"/>
		</linearGradient>
		<path style="fill:url(#SVGID_00000173147434328529481960000005634380803012941242_);" d="M398.091,554.686
			c43.09-39.696,50.399-118.516,22.785-140.92c-23.949-19.43-65.762,10.391-82.463-8.989c-20.06-23.278,29.997-78.22,9.626-106.187
			c-19.539-26.823-79.683,4.365-99.793-21.985c-21.48-28.145,35.638-78.797,15.723-121.365
			c-16.609-35.501-81.3-53.627-130.728-31.554c-40.225,17.964-73.92,64.148-63.409,96.174
			c14.346,43.714,101.152,30.877,114.082,73.78c11.931,39.589-54.346,75.861-40.827,110.327
			c14.551,37.098,102.277,22.966,110.254,53.661c7.008,26.97-57.619,49.791-52.846,77.39
			C206.807,571.514,334.017,613.712,398.091,554.686z"/>
		<path style="opacity:0.47;fill:#FFFFFF;" d="M165.747,173.909c12.577,31.664,26.05,62.942,39.91,94.046
			c6.883,15.574,14.036,31.024,21.128,46.505c3.574,7.727,7.251,15.406,10.875,23.11c3.642,7.695,7.241,15.412,10.994,23.056
			l11.203,22.957c3.792,7.625,7.545,15.27,11.396,22.866l2.874,5.704l2.924,5.68l5.847,11.36l5.869,11.348l6.029,11.268
			c16.069,30.03,32.66,59.886,51.764,88.142l0.569-0.357c-16.766-29.621-32.024-60.004-47.187-90.439l-5.678-11.415l-5.609-11.453
			l-5.631-11.441l-2.815-5.72l-2.767-5.746c-3.666-7.672-7.431-15.295-11.156-22.937l-11.05-22.992l-44.191-91.994
			c-14.724-30.676-29.528-61.32-44.684-91.823L165.747,173.909z"/>
	</g>
	<g>
		
			<linearGradient id="SVGID_00000059298405264327478750000003405526468104745142_" gradientUnits="userSpaceOnUse" x1="-1767.4327" y1="416.5006" x2="-1406.9675" y2="416.5006" gradientTransform="matrix(-0.998 -0.064 -0.064 0.998 -1366.7449 25.7675)">
			<stop  offset="0" style="stop-color:#B37CFF"/>
			<stop  offset="1" style="stop-color:#F895E7"/>
		</linearGradient>
		<path style="fill:url(#SVGID_00000059298405264327478750000003405526468104745142_);" d="M345.405,699.561
			c31.619-39.621,19.073-98.665,0.922-123.507c-60.933-83.397-145.021-74.668-165.689-94.552
			c-22.075-21.238,20.096-72.077-2.541-105.854c-18.879-28.171-76.586-35.15-115.946-9.763
			c-32.031,20.66-54.762,64.592-41.556,90.594c18.026,35.492,90.566,13.081,107.274,48.065
			c15.418,32.282-39.153,109.823,45.972,204.227C195.303,732.57,298.389,758.477,345.405,699.561z"/>
		<path style="opacity:0.47;fill:#FFFFFF;" d="M96.565,404.55c14.925,25.42,30.567,50.393,46.516,75.165
			c7.937,12.411,16.089,24.681,24.193,36.985c4.074,6.137,8.23,12.22,12.344,18.33c4.128,6.101,8.222,12.226,12.439,18.268
			l12.604,18.156c4.247,6.021,8.463,12.064,12.757,18.052l3.209,4.499l3.248,4.472l6.497,8.944l6.514,8.931l6.64,8.842
			c17.697,23.563,35.817,46.909,55.875,68.555l0.44-0.38c-18.239-23.122-35.288-47.093-52.264-71.122l-6.359-9.014l-6.305-9.055
			l-6.322-9.042l-3.161-4.521l-3.123-4.549c-4.146-6.078-8.369-12.1-12.561-18.145l-12.477-18.206l-49.907-72.846
			c-16.631-24.293-33.327-48.548-50.306-72.635L96.565,404.55z"/>
	</g>
	<g>
		
			<linearGradient id="SVGID_00000067920988962078768440000003315417433827846543_" gradientUnits="userSpaceOnUse" x1="965.9654" y1="717.3512" x2="726.397" y2="382.8193">
			<stop  offset="0" style="stop-color:#FDF53F"/>
			<stop  offset="1" style="stop-color:#D93C65"/>
		</linearGradient>
		
			<rect x="803.23" y="448.819" style="fill:url(#SVGID_00000067920988962078768440000003315417433827846543_);" width="155.176" height="299.268"/>
		
			<linearGradient id="SVGID_00000083809639727663459270000003857769471344435092_" gradientUnits="userSpaceOnUse" x1="795.8412" y1="407.2534" x2="987.161" y2="407.2534">
			<stop  offset="0" style="stop-color:#233894"/>
			<stop  offset="0.9964" style="stop-color:#DD397A"/>
		</linearGradient>
		<path style="fill:url(#SVGID_00000083809639727663459270000003857769471344435092_);" d="M979.19,474.681H795.841V347.215
			l144.092-7.389l46.479,123.544C988.86,468.647,985.007,474.681,979.19,474.681z"/>
		
			<linearGradient id="SVGID_00000115490777258621990090000014960703936193529023_" gradientUnits="userSpaceOnUse" x1="863.254" y1="138.332" x2="871.1653" y2="332.1618">
			<stop  offset="0" style="stop-color:#233894"/>
			<stop  offset="0.9964" style="stop-color:#DD397A"/>
		</linearGradient>
		<path style="fill:url(#SVGID_00000115490777258621990090000014960703936193529023_);" d="M939.933,341.673l-136.703,7.389v-14.779
			l127.742-7.389c4.949,0,8.961,4.012,8.961,8.961V341.673z"/>
		<g style="opacity:0.89;">
			<path style="fill:#FFFFFF;" d="M924.493,666.804h-86.426c-0.62,0-1.123-0.503-1.123-1.123V531.224
				c0-0.62,0.503-1.123,1.123-1.123h86.426c0.62,0,1.123,0.503,1.123,1.123v134.457
				C925.616,666.301,925.113,666.804,924.493,666.804z"/>
			<g>
				
					<linearGradient id="SVGID_00000116214977707250685690000008623849184433760640_" gradientUnits="userSpaceOnUse" x1="861.4988" y1="398.9373" x2="858.699" y2="1037.3036">
					<stop  offset="0" style="stop-color:#233894"/>
					<stop  offset="0.9964" style="stop-color:#DD397A"/>
				</linearGradient>
				<path style="fill:url(#SVGID_00000116214977707250685690000008623849184433760640_);" d="M877.213,659.414h-33.179
					c-0.345,0-0.624-0.279-0.624-0.624V538.115c0-0.345,0.279-0.624,0.624-0.624h33.179c0.345,0,0.624,0.279,0.624,0.624V658.79
					C877.838,659.135,877.558,659.414,877.213,659.414z"/>
				
					<linearGradient id="SVGID_00000135692426865005753010000015348310371201665975_" gradientUnits="userSpaceOnUse" x1="902.8112" y1="399.118" x2="900.0113" y2="1037.4843">
					<stop  offset="0" style="stop-color:#233894"/>
					<stop  offset="0.9964" style="stop-color:#DD397A"/>
				</linearGradient>
				<path style="fill:url(#SVGID_00000135692426865005753010000015348310371201665975_);" d="M918.526,659.414h-33.179
					c-0.345,0-0.624-0.279-0.624-0.624V538.115c0-0.345,0.279-0.624,0.624-0.624h33.179c0.345,0,0.624,0.279,0.624,0.624V658.79
					C919.151,659.135,918.871,659.414,918.526,659.414z"/>
			</g>
		</g>
		
			<linearGradient id="SVGID_00000041982071476208353220000005854770936544856978_" gradientUnits="userSpaceOnUse" x1="590.93" y1="810.0925" x2="668.0278" y2="-149.3373">
			<stop  offset="0" style="stop-color:#FDF53F"/>
			<stop  offset="1" style="stop-color:#D93C65"/>
		</linearGradient>
		
			<rect x="394.02" y="407.254" style="fill:url(#SVGID_00000041982071476208353220000005854770936544856978_);" width="431.174" height="340.833"/>
		
			<linearGradient id="SVGID_00000018936272059712087140000007566642969878059393_" gradientUnits="userSpaceOnUse" x1="602.2299" y1="49.6366" x2="604.2079" y2="558.0677">
			<stop  offset="0" style="stop-color:#233894"/>
			<stop  offset="0.9964" style="stop-color:#DD397A"/>
		</linearGradient>
		<path style="fill:url(#SVGID_00000018936272059712087140000007566642969878059393_);" d="M814.992,241.917H393.788
			l-46.665,160.361c-1.091,3.748-0.466,7.773,1.715,11.039l4.799,7.189c2.558,3.832,6.933,6.144,11.627,6.144h476.877
			c5.422,0,10.347-3.077,12.607-7.877l4.614-9.802c1.365-2.899,1.631-6.175,0.753-9.247L814.992,241.917z"/>
		
			<linearGradient id="SVGID_00000072244382750923373240000008200971737905319857_" gradientUnits="userSpaceOnUse" x1="602.3578" y1="17.883" x2="604.3359" y2="239.4173">
			<stop  offset="0" style="stop-color:#233894"/>
			<stop  offset="0.9964" style="stop-color:#DD397A"/>
		</linearGradient>
		<path style="fill:url(#SVGID_00000072244382750923373240000008200971737905319857_);" d="M815.941,241.917H392.656v-7.269
			c0-2.749,2.266-4.989,5.089-5.031l412.949-6.096c2.884-0.043,5.246,2.222,5.246,5.031V241.917z"/>
		
			<linearGradient id="SVGID_00000163775625248946091560000010165332364397462703_" gradientUnits="userSpaceOnUse" x1="594.6202" y1="667.0234" x2="602.6314" y2="785.1896">
			<stop  offset="0" style="stop-color:#FDF53F"/>
			<stop  offset="1" style="stop-color:#D93C65"/>
		</linearGradient>
		<path style="fill:url(#SVGID_00000163775625248946091560000010165332364397462703_);" d="M666.293,748.086H532.609v-19.508
			c0-1.751,1.419-3.171,3.17-3.171h127.344c1.751,0,3.17,1.419,3.17,3.171V748.086z"/>
		
			<linearGradient id="SVGID_00000086677445445815868480000002209815520069902010_" gradientUnits="userSpaceOnUse" x1="600.5055" y1="397.7636" x2="597.7054" y2="1036.1703">
			<stop  offset="0" style="stop-color:#233894"/>
			<stop  offset="0.9964" style="stop-color:#DD397A"/>
		</linearGradient>
		<path style="fill:url(#SVGID_00000086677445445815868480000002209815520069902010_);" d="M645.073,725.408h-91.245V550.965
			c0-1.966,1.594-3.56,3.56-3.56h84.125c1.966,0,3.56,1.594,3.56,3.56V725.408z"/>
		<path style="opacity:0.89;fill:#FFFFFF;" d="M638.631,535.424h-78.359c-3.558,0-6.443-2.884-6.443-6.443v-5.627
			c0-3.385,2.619-6.193,5.996-6.427l78.359-5.443c3.725-0.259,6.889,2.693,6.889,6.427v11.071
			C645.073,532.54,642.189,535.424,638.631,535.424z"/>
		<g>
			
				<linearGradient id="SVGID_00000129203185846428587250000010036201696494021012_" gradientUnits="userSpaceOnUse" x1="784.6827" y1="282.5001" x2="639.1064" y2="658.5714">
				<stop  offset="0" style="stop-color:#233894"/>
				<stop  offset="0.9964" style="stop-color:#DD397A"/>
			</linearGradient>
			<path style="opacity:0.9;fill:url(#SVGID_00000129203185846428587250000010036201696494021012_);" d="M717.533,456.35h-0.867
				c-22.536,0-42.265,15.955-42.265,38.49v40.584h43.132V456.35z"/>
			
				<linearGradient id="SVGID_00000089532119864518623620000000725535436116501900_" gradientUnits="userSpaceOnUse" x1="818.533" y1="295.6041" x2="672.9565" y2="671.6758">
				<stop  offset="0" style="stop-color:#233894"/>
				<stop  offset="0.9964" style="stop-color:#DD397A"/>
			</linearGradient>
			<path style="opacity:0.9;fill:url(#SVGID_00000089532119864518623620000000725535436116501900_);" d="M674.401,547.405v119.398
				c0,4.021,4.719,10.254,8.74,10.254h34.392V547.405H674.401z"/>
			
				<linearGradient id="SVGID_00000123406024838118226210000009956666505115877037_" gradientUnits="userSpaceOnUse" x1="825.212" y1="298.1893" x2="679.6357" y2="674.2606">
				<stop  offset="0" style="stop-color:#233894"/>
				<stop  offset="0.9964" style="stop-color:#DD397A"/>
			</linearGradient>
			<path style="opacity:0.9;fill:url(#SVGID_00000123406024838118226210000009956666505115877037_);" d="M729.31,456.35h-2.192
				v79.075h43.132V494.84C770.249,472.304,751.845,456.35,729.31,456.35z"/>
			
				<linearGradient id="SVGID_00000092435161879879396640000017116829303965755565_" gradientUnits="userSpaceOnUse" x1="862.959" y1="312.8007" x2="717.3827" y2="688.8721">
				<stop  offset="0" style="stop-color:#233894"/>
				<stop  offset="0.9964" style="stop-color:#DD397A"/>
			</linearGradient>
			<path style="opacity:0.9;fill:url(#SVGID_00000092435161879879396640000017116829303965755565_);" d="M727.118,677.057h35.717
				c4.02,0,7.415-6.233,7.415-10.254V547.405h-43.132V677.057z"/>
		</g>
		<g>
			
				<linearGradient id="SVGID_00000023987691840233529550000012945271382721984395_" gradientUnits="userSpaceOnUse" x1="541.7227" y1="334.1733" x2="393.1142" y2="649.5879">
				<stop  offset="0" style="stop-color:#233894"/>
				<stop  offset="0.9964" style="stop-color:#DD397A"/>
			</linearGradient>
			<path style="opacity:0.9;fill:url(#SVGID_00000023987691840233529550000012945271382721984395_);" d="M479.968,456.35h-0.867
				c-22.536,0-42.265,15.955-42.265,38.49v40.584h43.132V456.35z"/>
			
				<linearGradient id="SVGID_00000163783071134040724140000015921061276328650421_" gradientUnits="userSpaceOnUse" x1="580.7474" y1="352.56" x2="432.139" y2="667.9744">
				<stop  offset="0" style="stop-color:#233894"/>
				<stop  offset="0.9964" style="stop-color:#DD397A"/>
			</linearGradient>
			<path style="opacity:0.9;fill:url(#SVGID_00000163783071134040724140000015921061276328650421_);" d="M436.837,547.405v119.398
				c0,4.021,4.719,10.254,8.74,10.254h34.392V547.405H436.837z"/>
			
				<linearGradient id="SVGID_00000047035704153385020100000009852218429660956602_" gradientUnits="userSpaceOnUse" x1="579.0291" y1="351.7508" x2="430.4206" y2="667.1656">
				<stop  offset="0" style="stop-color:#233894"/>
				<stop  offset="0.9964" style="stop-color:#DD397A"/>
			</linearGradient>
			<path style="opacity:0.9;fill:url(#SVGID_00000047035704153385020100000009852218429660956602_);" d="M491.745,456.35h-2.192
				v79.075h43.132V494.84C532.685,472.304,514.281,456.35,491.745,456.35z"/>
			
				<linearGradient id="SVGID_00000014635298868003638650000000244563673644536505_" gradientUnits="userSpaceOnUse" x1="622.3507" y1="372.1615" x2="473.7421" y2="687.5764">
				<stop  offset="0" style="stop-color:#233894"/>
				<stop  offset="0.9964" style="stop-color:#DD397A"/>
			</linearGradient>
			<path style="opacity:0.9;fill:url(#SVGID_00000014635298868003638650000000244563673644536505_);" d="M489.553,677.057h35.717
				c4.02,0,7.415-6.233,7.415-10.254V547.405h-43.132V677.057z"/>
		</g>
		<path style="fill:#FFFFFF;" d="M511.07,407.754H379.253c-3.253,0-6.236-1.494-8.185-4.099c-1.949-2.605-2.539-5.889-1.619-9.01
			l37.655-127.795c0.078-0.265,0.356-0.419,0.621-0.338c0.265,0.078,0.417,0.356,0.338,0.621l-37.655,127.795
			c-0.829,2.815-0.297,5.778,1.461,8.128c1.758,2.35,4.449,3.698,7.384,3.698H511.07c0.276,0,0.5,0.224,0.5,0.5
			S511.347,407.754,511.07,407.754z"/>
		<path style="fill:#FFFFFF;" d="M586.781,677.557h-13.771c-4.592,0-8.328-3.736-8.328-8.328V567.422
			c0-4.592,3.736-8.328,8.328-8.328h13.771c4.592,0,8.328,3.736,8.328,8.328v101.807
			C595.109,673.821,591.373,677.557,586.781,677.557z M573.009,560.094c-4.041,0-7.328,3.288-7.328,7.328v101.807
			c0,4.041,3.288,7.328,7.328,7.328h13.771c4.041,0,7.328-3.288,7.328-7.328V567.422c0-4.041-3.288-7.328-7.328-7.328H573.009z"/>
		<path style="fill:#FFFFFF;" d="M625.211,677.557h-13.771c-4.592,0-8.328-3.736-8.328-8.328V567.422
			c0-4.592,3.736-8.328,8.328-8.328h13.771c4.592,0,8.328,3.736,8.328,8.328v101.807
			C633.539,673.821,629.803,677.557,625.211,677.557z M611.439,560.094c-4.041,0-7.328,3.288-7.328,7.328v101.807
			c0,4.041,3.288,7.328,7.328,7.328h13.771c4.041,0,7.328-3.288,7.328-7.328V567.422c0-4.041-3.288-7.328-7.328-7.328H611.439z"/>
		<path style="fill:#FFFFFF;" d="M586.781,711.88h-13.771c-4.592,0-8.328-3.736-8.328-8.328v-11.71c0-4.592,3.736-8.328,8.328-8.328
			h13.771c4.592,0,8.328,3.736,8.328,8.328v11.71C595.109,708.145,591.373,711.88,586.781,711.88z M573.009,684.515
			c-4.041,0-7.328,3.287-7.328,7.328v11.71c0,4.04,3.288,7.328,7.328,7.328h13.771c4.041,0,7.328-3.288,7.328-7.328v-11.71
			c0-4.041-3.288-7.328-7.328-7.328H573.009z"/>
		<path style="fill:#FFFFFF;" d="M625.211,711.88h-13.771c-4.592,0-8.328-3.736-8.328-8.328v-11.71c0-4.592,3.736-8.328,8.328-8.328
			h13.771c4.592,0,8.328,3.736,8.328,8.328v11.71C633.539,708.145,629.803,711.88,625.211,711.88z M611.439,684.515
			c-4.041,0-7.328,3.287-7.328,7.328v11.71c0,4.04,3.288,7.328,7.328,7.328h13.771c4.041,0,7.328-3.288,7.328-7.328v-11.71
			c0-4.041-3.288-7.328-7.328-7.328H611.439z"/>
		<path style="fill:#FFFFFF;" d="M773.981,684.515H670.154c-5.954,0-10.797-4.844-10.797-10.797V493.951
			c0-28.428,23.128-51.555,51.556-51.555h22.31c28.428,0,51.555,23.127,51.555,51.555v179.767
			C784.778,679.671,779.935,684.515,773.981,684.515z M710.913,443.396c-27.876,0-50.556,22.679-50.556,50.555v179.767
			c0,5.402,4.395,9.797,9.797,9.797h103.827c5.402,0,9.797-4.395,9.797-9.797V493.951c0-27.876-22.679-50.555-50.555-50.555H710.913
			z"/>
		<path style="fill:#FFFFFF;" d="M536.463,684.515H432.636c-5.954,0-10.797-4.844-10.797-10.797V493.951
			c0-28.428,23.127-51.555,51.555-51.555h22.31c28.428,0,51.556,23.127,51.556,51.555v179.767
			C547.26,679.671,542.417,684.515,536.463,684.515z M473.394,443.396c-27.876,0-50.555,22.679-50.555,50.555v179.767
			c0,5.402,4.395,9.797,9.797,9.797h103.827c5.402,0,9.797-4.395,9.797-9.797V493.951c0-27.876-22.679-50.555-50.556-50.555H473.394
			z"/>
		<path style="fill:#FFFFFF;" d="M829.403,370.358c-0.215,0-0.413-0.139-0.479-0.355l-29.285-96.781
			c-2.001-6.613-7.984-11.093-14.889-11.147c-76.668-0.605-123.613-0.581-125.575,0.064c-0.258,0.084-0.545-0.044-0.638-0.297
			c-0.093-0.253,0.017-0.529,0.266-0.631c2.35-0.966,79.923-0.5,125.955-0.136c7.345,0.058,13.71,4.823,15.838,11.857l29.285,96.781
			c0.08,0.265-0.069,0.543-0.333,0.624C829.5,370.351,829.451,370.358,829.403,370.358z"/>
	</g>
	<g>
		
			<linearGradient id="SVGID_00000065072683662635290190000002459669998202555274_" gradientUnits="userSpaceOnUse" x1="1058.0608" y1="282.2835" x2="859.3978" y2="536.4225">
			<stop  offset="0" style="stop-color:#53D8FF"/>
			<stop  offset="1" style="stop-color:#3840F7"/>
		</linearGradient>
		<circle style="fill:url(#SVGID_00000065072683662635290190000002459669998202555274_);" cx="1032.097" cy="315.497" r="69.804"/>
		<g>
			<path style="fill:#FFFFFF;" d="M1058.553,356.341h-52.122c-3.398,0-6.207-2.658-6.394-6.053l-3.789-68.879
				c-0.098-1.774,0.522-3.463,1.743-4.754c1.222-1.291,2.873-2.002,4.651-2.002h55.91c3.531,0,6.403,2.873,6.403,6.404v68.879
				C1064.956,353.468,1062.083,356.341,1058.553,356.341z M1002.643,276.653c-1.222,0-2.358,0.489-3.198,1.377
				c-0.84,0.888-1.266,2.049-1.199,3.27l3.789,68.879c0.128,2.334,2.06,4.162,4.397,4.162h52.122c2.428,0,4.403-1.976,4.403-4.404
				v-68.879c0-2.429-1.975-4.404-4.403-4.404H1002.643z"/>
			<path style="fill:#FFFFFF;" d="M1032.933,343.623c-12.279,0-22.27-9.99-22.27-22.27c0-12.279,9.99-22.269,22.27-22.269
				s22.269,9.99,22.269,22.269C1055.202,333.633,1045.212,343.623,1032.933,343.623z M1032.933,301.084
				c-11.177,0-20.27,9.093-20.27,20.269c0,11.177,9.093,20.27,20.27,20.27c11.176,0,20.269-9.093,20.269-20.27
				C1053.202,310.177,1044.109,301.084,1032.933,301.084z"/>
			<path style="fill:#FFFFFF;" d="M1033.141,338.536c-9.04,0-16.394-7.354-16.394-16.393c0-9.039,7.354-16.394,16.394-16.394
				s16.394,7.354,16.394,16.394C1049.534,331.182,1042.18,338.536,1033.141,338.536z M1033.141,307.749
				c-7.937,0-14.394,6.457-14.394,14.394c0,7.936,6.457,14.393,14.394,14.393s14.394-6.457,14.394-14.393
				C1047.534,314.206,1041.077,307.749,1033.141,307.749z"/>
			<path style="fill:#FFFFFF;" d="M1023.926,291.301h-20.591v-10.765h20.591V291.301z M1005.335,289.301h16.591v-6.765h-16.591
				V289.301z"/>
			<path style="fill:#FFFFFF;" d="M1055.202,286.918h-21.059v-6.382h21.059V286.918z M1036.143,284.918h17.059v-2.382h-17.059
				V284.918z"/>
			<path style="fill:#FFFFFF;" d="M1044.673,331.059c-0.292,0-0.582-0.128-0.779-0.373c-7.474-9.282,0.053-15.884,0.13-15.949
				c0.42-0.36,1.052-0.309,1.41,0.111c0.358,0.42,0.309,1.049-0.109,1.408l0,0c-0.252,0.218-6.106,5.434,0.127,13.176
				c0.347,0.43,0.278,1.06-0.152,1.406C1045.115,330.986,1044.894,331.059,1044.673,331.059z"/>
			<path style="fill:#FFFFFF;" d="M1036.908,292.863c-1.524,0-2.765-1.24-2.765-2.764c0-1.524,1.24-2.765,2.765-2.765
				c1.524,0,2.764,1.24,2.764,2.765C1039.672,291.623,1038.432,292.863,1036.908,292.863z M1036.908,289.335
				c-0.421,0-0.765,0.343-0.765,0.765c0,0.421,0.343,0.764,0.765,0.764s0.764-0.343,0.764-0.764
				C1037.672,289.678,1037.329,289.335,1036.908,289.335z"/>
			<path style="fill:#FFFFFF;" d="M1044.908,292.863c-1.524,0-2.765-1.24-2.765-2.764c0-1.524,1.24-2.765,2.765-2.765
				c1.524,0,2.764,1.24,2.764,2.765C1047.672,291.623,1046.432,292.863,1044.908,292.863z M1044.908,289.335
				c-0.421,0-0.765,0.343-0.765,0.765c0,0.421,0.343,0.764,0.765,0.764s0.764-0.343,0.764-0.764
				C1045.672,289.678,1045.329,289.335,1044.908,289.335z"/>
			<path style="fill:#FFFFFF;" d="M1051.92,292.863c-1.524,0-2.765-1.24-2.765-2.764c0-1.524,1.24-2.765,2.765-2.765
				c1.524,0,2.764,1.24,2.764,2.765C1054.684,291.623,1053.444,292.863,1051.92,292.863z M1051.92,289.335
				c-0.421,0-0.765,0.343-0.765,0.765c0,0.421,0.343,0.764,0.765,0.764s0.764-0.343,0.764-0.764
				C1052.684,289.678,1052.341,289.335,1051.92,289.335z"/>
		</g>
	</g>
	
		<linearGradient id="SVGID_00000106849234229510857330000007447338608470572730_" gradientUnits="userSpaceOnUse" x1="539.7645" y1="84.3371" x2="341.1014" y2="338.4761">
		<stop  offset="0" style="stop-color:#53D8FF"/>
		<stop  offset="1" style="stop-color:#3840F7"/>
	</linearGradient>
	<circle style="fill:url(#SVGID_00000106849234229510857330000007447338608470572730_);" cx="513.801" cy="117.551" r="69.804"/>
	
		<linearGradient id="SVGID_00000096056473531196722200000003243056234162789513_" gradientUnits="userSpaceOnUse" x1="739.0199" y1="84.3371" x2="540.3569" y2="338.4761">
		<stop  offset="0" style="stop-color:#53D8FF"/>
		<stop  offset="1" style="stop-color:#3840F7"/>
	</linearGradient>
	<circle style="fill:url(#SVGID_00000096056473531196722200000003243056234162789513_);" cx="713.056" cy="117.551" r="69.804"/>
	<g>
		
			<linearGradient id="SVGID_00000183245760277010876110000009017173948962712229_" gradientUnits="userSpaceOnUse" x1="923.8745" y1="153.4194" x2="725.2115" y2="407.5584">
			<stop  offset="0" style="stop-color:#53D8FF"/>
			<stop  offset="1" style="stop-color:#3840F7"/>
		</linearGradient>
		<circle style="fill:url(#SVGID_00000183245760277010876110000009017173948962712229_);" cx="897.911" cy="186.633" r="69.804"/>
		<g>
			<path style="fill:#FFFFFF;" d="M893.676,237.796c-7.721,0-14.003-6.281-14.003-14.002c0-5.41,3.091-10.293,7.929-12.62v-60.718
				c0-3.35,2.725-6.074,6.074-6.074c3.349,0,6.074,2.725,6.074,6.074v60.718c4.838,2.327,7.929,7.21,7.929,12.62
				C907.679,231.515,901.397,237.796,893.676,237.796z M893.676,146.382c-2.246,0-4.074,1.828-4.074,4.074v62.024l-0.609,0.259
				c-4.447,1.886-7.32,6.225-7.32,11.055c0,6.618,5.384,12.002,12.003,12.002c6.619,0,12.003-5.384,12.003-12.002
				c0-4.83-2.873-9.169-7.32-11.055l-0.609-0.259v-62.024C897.75,148.21,895.922,146.382,893.676,146.382z"/>
			<path style="fill:#FFFFFF;" d="M921.914,150.188h-15.234c-0.552,0-1-0.447-1-1s0.448-1,1-1h15.234c0.552,0,1,0.447,1,1
				S922.466,150.188,921.914,150.188z"/>
			<path style="fill:#FFFFFF;" d="M914.296,155.537h-7.617c-0.552,0-1-0.447-1-1c0-0.553,0.448-1,1-1h7.617c0.552,0,1,0.447,1,1
				C915.296,155.09,914.849,155.537,914.296,155.537z"/>
			<path style="fill:#FFFFFF;" d="M914.296,160.887h-7.617c-0.552,0-1-0.447-1-1c0-0.553,0.448-1,1-1h7.617c0.552,0,1,0.447,1,1
				C915.296,160.439,914.849,160.887,914.296,160.887z"/>
			<path style="fill:#FFFFFF;" d="M914.296,166.235h-7.617c-0.552,0-1-0.447-1-1c0-0.553,0.448-1,1-1h7.617c0.552,0,1,0.447,1,1
				C915.296,165.788,914.849,166.235,914.296,166.235z"/>
			<path style="fill:#FFFFFF;" d="M921.914,150.188h-15.234c-0.552,0-1-0.447-1-1s0.448-1,1-1h15.234c0.552,0,1,0.447,1,1
				S922.466,150.188,921.914,150.188z"/>
			<path style="fill:#FFFFFF;" d="M914.296,155.537h-7.617c-0.552,0-1-0.447-1-1c0-0.553,0.448-1,1-1h7.617c0.552,0,1,0.447,1,1
				C915.296,155.09,914.849,155.537,914.296,155.537z"/>
			<path style="fill:#FFFFFF;" d="M914.296,160.887h-7.617c-0.552,0-1-0.447-1-1c0-0.553,0.448-1,1-1h7.617c0.552,0,1,0.447,1,1
				C915.296,160.439,914.849,160.887,914.296,160.887z"/>
			<path style="fill:#FFFFFF;" d="M914.296,166.235h-7.617c-0.552,0-1-0.447-1-1c0-0.553,0.448-1,1-1h7.617c0.552,0,1,0.447,1,1
				C915.296,165.788,914.849,166.235,914.296,166.235z"/>
			<path style="fill:#FFFFFF;" d="M921.914,171.585h-15.234c-0.552,0-1-0.447-1-1c0-0.553,0.448-1,1-1h15.234c0.552,0,1,0.447,1,1
				C922.914,171.138,922.466,171.585,921.914,171.585z"/>
			<path style="fill:#FFFFFF;" d="M914.296,176.935h-7.617c-0.552,0-1-0.447-1-1c0-0.553,0.448-1,1-1h7.617c0.552,0,1,0.447,1,1
				C915.296,176.487,914.849,176.935,914.296,176.935z"/>
			<path style="fill:#FFFFFF;" d="M914.296,182.284h-7.617c-0.552,0-1-0.447-1-1c0-0.553,0.448-1,1-1h7.617c0.552,0,1,0.447,1,1
				C915.296,181.837,914.849,182.284,914.296,182.284z"/>
			<path style="fill:#FFFFFF;" d="M914.296,187.633h-7.617c-0.552,0-1-0.447-1-1s0.448-1,1-1h7.617c0.552,0,1,0.447,1,1
				S914.849,187.633,914.296,187.633z"/>
			<path style="fill:#FFFFFF;" d="M921.914,192.982h-15.234c-0.552,0-1-0.447-1-1c0-0.553,0.448-1,1-1h15.234c0.552,0,1,0.447,1,1
				C922.914,192.535,922.466,192.982,921.914,192.982z"/>
			<path style="fill:#FFFFFF;" d="M914.296,198.332h-7.617c-0.552,0-1-0.447-1-1c0-0.553,0.448-1,1-1h7.617c0.552,0,1,0.447,1,1
				C915.296,197.885,914.849,198.332,914.296,198.332z"/>
			<path style="fill:#FFFFFF;" d="M914.296,203.681h-7.617c-0.552,0-1-0.447-1-1c0-0.553,0.448-1,1-1h7.617c0.552,0,1,0.447,1,1
				C915.296,203.233,914.849,203.681,914.296,203.681z"/>
			<path style="fill:#FFFFFF;" d="M914.296,209.03h-7.617c-0.552,0-1-0.447-1-1c0-0.553,0.448-1,1-1h7.617c0.552,0,1,0.447,1,1
				C915.296,208.583,914.849,209.03,914.296,209.03z"/>
		</g>
	</g>
	<g>
		<path style="fill:#FFFFFF;" d="M714.699,150.188c-6.521,0-11.826-5.306-11.826-11.826c0-6.52,5.305-11.825,11.826-11.825
			s11.826,5.305,11.826,11.825C726.525,144.882,721.22,150.188,714.699,150.188z M714.699,128.536c-5.418,0-9.826,4.407-9.826,9.825
			c0,5.418,4.408,9.826,9.826,9.826c5.418,0,9.826-4.408,9.826-9.826C724.525,132.943,720.117,128.536,714.699,128.536z"/>
		<path style="fill:#FFFFFF;" d="M733.796,120.265c-0.256,0-0.512-0.098-0.707-0.293c-4.912-4.912-11.443-7.618-18.39-7.618
			c-6.947,0-13.478,2.706-18.391,7.618c-0.391,0.391-1.023,0.391-1.414,0c-0.391-0.391-0.391-1.024,0-1.414
			c5.29-5.29,12.323-8.204,19.805-8.204c7.481,0,14.515,2.914,19.804,8.204c0.391,0.391,0.391,1.023,0,1.414
			C734.308,120.167,734.052,120.265,733.796,120.265z"/>
		<g>
			<path style="fill:#FFFFFF;" d="M745.238,108.822c-0.256,0-0.512-0.098-0.707-0.293c-7.969-7.969-18.564-12.357-29.833-12.357
				c-11.269,0-21.864,4.389-29.833,12.357c-0.391,0.391-1.023,0.391-1.414,0c-0.391-0.391-0.391-1.023,0-1.414
				c8.346-8.347,19.443-12.943,31.247-12.943c11.804,0,22.901,4.597,31.247,12.943c0.391,0.391,0.391,1.024,0,1.414
				C745.75,108.725,745.494,108.822,745.238,108.822z"/>
		</g>
		<g>
			<path style="fill:#FFFFFF;" d="M756.681,97.38c-0.256,0-0.512-0.098-0.707-0.293C744.949,86.062,730.29,79.99,714.699,79.99
				s-30.25,6.071-41.275,17.097c-0.391,0.391-1.023,0.391-1.414,0c-0.391-0.391-0.391-1.023,0-1.414
				c11.403-11.403,26.563-17.683,42.689-17.683c16.126,0,31.286,6.279,42.689,17.683c0.391,0.391,0.391,1.023,0,1.414
				C757.192,97.282,756.936,97.38,756.681,97.38z"/>
		</g>
	</g>
	<g>
		<path style="fill:#FFFFFF;" d="M515.152,154.998h-1.014c-6.118,0-11.095-4.978-11.095-11.096v-1.792
			c0-4.915-2.354-9.371-6.297-11.921c-10.137-6.554-15.893-18.118-15.022-30.182c1.174-16.248,14.317-29.351,30.571-30.479
			c9.274-0.632,18.104,2.479,24.866,8.789c6.67,6.224,10.495,15.022,10.495,24.141c0,11.227-5.632,21.583-15.066,27.703
			c-3.971,2.575-6.341,6.955-6.341,11.714v2.027C526.247,150.02,521.27,154.998,515.152,154.998z M514.669,71.446
			c-0.742,0-1.488,0.025-2.237,0.078c-15.267,1.059-27.612,13.366-28.714,28.628c-0.819,11.335,4.589,22.2,14.113,28.357
			c4.516,2.92,7.212,8.004,7.212,13.601v1.792c0,5.016,4.08,9.096,9.095,9.096h1.014c5.015,0,9.095-4.08,9.095-9.096v-2.027
			c0-5.439,2.711-10.446,7.252-13.392c8.864-5.75,14.155-15.479,14.155-26.025c0-8.565-3.594-16.832-9.86-22.679
			C529.989,74.361,522.557,71.446,514.669,71.446z"/>
		<g>
			<path style="fill:#FFFFFF;" d="M525.125,163.992h-20.96c-0.552,0-1-0.447-1-1v-4.102c0-0.553,0.448-1,1-1h20.96
				c0.552,0,1,0.447,1,1v4.102C526.125,163.545,525.677,163.992,525.125,163.992z M505.165,161.992h18.96v-2.102h-18.96V161.992z"/>
			<path style="fill:#FFFFFF;" d="M516.63,176.294h-3.971c-4.27,0-7.745-3.474-7.745-7.744v-1.457c0-0.553,0.448-1,1-1h17.46
				c0.552,0,1,0.447,1,1v0.457C524.375,171.678,521.063,176.294,516.63,176.294z M506.915,168.093v0.457
				c0,3.167,2.577,5.744,5.745,5.744h3.971c3.049,0,5.453-3.22,5.72-6.201H506.915z"/>
		</g>
		<path style="fill:#FFFFFF;" d="M513.8,144.492c-0.453,0-0.864-0.311-0.972-0.771l-9.636-40.922
			c-0.127-0.538,0.207-1.076,0.744-1.203c0.531-0.12,1.075,0.207,1.202,0.744l9.636,40.922c0.127,0.538-0.206,1.076-0.744,1.203
			C513.953,144.483,513.876,144.492,513.8,144.492z"/>
		<path style="fill:#FFFFFF;" d="M518.706,144.492c-0.053,0-0.107-0.004-0.162-0.013c-0.545-0.089-0.914-0.604-0.826-1.148
			l6.419-39.356c0.089-0.546,0.601-0.92,1.148-0.826c0.545,0.089,0.915,0.604,0.826,1.148l-6.419,39.356
			C519.612,144.144,519.188,144.492,518.706,144.492z"/>
		<path style="fill:#FFFFFF;" d="M508.983,106.933c-0.119,0-0.24-0.021-0.358-0.066c-0.516-0.198-0.773-0.776-0.575-1.292
			l3.843-10.016c0.142-0.369,0.487-0.62,0.882-0.641c0.385-0.021,0.764,0.194,0.943,0.547l4.375,8.631l3.042-3.796
			c0.346-0.432,0.975-0.501,1.406-0.155c0.431,0.346,0.5,0.975,0.155,1.405l-4.013,5.008c-0.213,0.266-0.545,0.393-0.883,0.37
			c-0.338-0.035-0.635-0.24-0.789-0.543l-4.058-8.006l-3.036,7.912C509.764,106.688,509.385,106.933,508.983,106.933z"/>
	</g>
	<g>
		
			<linearGradient id="SVGID_00000022530192756909941980000013822306500582976135_" gradientUnits="userSpaceOnUse" x1="340.5091" y1="154.1412" x2="141.846" y2="408.2802">
			<stop  offset="0" style="stop-color:#53D8FF"/>
			<stop  offset="1" style="stop-color:#3840F7"/>
		</linearGradient>
		<circle style="fill:url(#SVGID_00000022530192756909941980000013822306500582976135_);" cx="314.546" cy="187.355" r="69.804"/>
		<g>
			<path style="fill:#FFFFFF;" d="M327.008,235.331h-24.022c-13.061,0-23.687-10.626-23.687-23.688v-25.126c0-0.553,0.448-1,1-1
				h69.397c0.552,0,1,0.447,1,1v25.126C350.696,224.705,340.07,235.331,327.008,235.331z M281.299,187.518v24.126
				c0,11.959,9.729,21.688,21.687,21.688h24.022c11.958,0,21.688-9.729,21.688-21.688v-24.126H281.299z"/>
			<path style="fill:#FFFFFF;" d="M341.154,183.551c-0.552,0-1-0.447-1-1v-19.084c0-12.18-9.908-22.088-22.087-22.088h-7.207
				c-12.179,0-22.087,9.908-22.087,22.088v19.084c0,0.553-0.448,1-1,1c-0.552,0-1-0.447-1-1v-19.084
				c0-13.282,10.806-24.088,24.087-24.088h7.207c13.282,0,24.087,10.806,24.087,24.088v19.084
				C342.154,183.104,341.706,183.551,341.154,183.551z"/>
			<path style="fill:#FFFFFF;" d="M335.189,183.551c-0.552,0-1-0.447-1-1v-16.366c0-10.365-7.594-18.799-16.927-18.799h-5.596
				c-9.333,0-16.927,8.434-16.927,18.799v16.366c0,0.553-0.448,1-1,1c-0.552,0-1-0.447-1-1v-16.366
				c0-11.469,8.491-20.799,18.927-20.799h5.596c10.436,0,18.927,9.33,18.927,20.799v16.366
				C336.189,183.104,335.741,183.551,335.189,183.551z"/>
			<path style="fill:#FFFFFF;" d="M315.292,224.885c-2.358,0-4.276-1.918-4.276-4.276v-9.915c-3.404-1.796-5.308-5.476-4.776-9.361
				c0.555-4.052,3.912-7.33,7.982-7.794c2.605-0.301,5.214,0.524,7.155,2.258c1.942,1.733,3.056,4.22,3.056,6.821
				c0,3.397-1.889,6.498-4.864,8.075v9.916C319.568,222.967,317.65,224.885,315.292,224.885z M315.301,195.476
				c-0.282,0-0.567,0.017-0.853,0.049c-3.176,0.362-5.794,2.919-6.227,6.079c-0.44,3.214,1.247,6.247,4.198,7.548
				c0.363,0.16,0.597,0.519,0.597,0.915v10.542c0,1.255,1.021,2.276,2.276,2.276s2.277-1.021,2.277-2.276v-10.542
				c0-0.396,0.234-0.755,0.597-0.915c2.592-1.143,4.268-3.707,4.268-6.534c0-2.032-0.871-3.975-2.388-5.329
				C318.719,196.105,317.059,195.476,315.301,195.476z"/>
		</g>
	</g>
	<g>
		<g>
			
				<linearGradient id="SVGID_00000182499953759428477580000009858482112509707905_" gradientUnits="userSpaceOnUse" x1="188.3948" y1="553.1955" x2="452.7585" y2="553.1955">
				<stop  offset="0" style="stop-color:#2B3582"/>
				<stop  offset="1" style="stop-color:#150E42"/>
			</linearGradient>
			<path style="fill:url(#SVGID_00000182499953759428477580000009858482112509707905_);" d="M193.239,375.935
				c-1.559,62.897-6.616,279.851-4.202,356.733c0.256,8.145,6.785,14.682,14.93,14.949c40.283,1.318,156.168,4.66,222.058,1.895
				c13.724-0.576,24.637-11.692,24.922-25.425c1.369-66.018,4.39-251.702-2.79-336.764c-0.86-10.192-8.86-18.308-19.037-19.326
				c-43.871-4.389-160.39-15.116-217.315-11.422C201.539,357.241,193.494,365.65,193.239,375.935z"/>
			
				<linearGradient id="SVGID_00000115493095941277065140000006888125650136634510_" gradientUnits="userSpaceOnUse" x1="382.0363" y1="451.86" x2="-143.1767" y2="1123.7369">
				<stop  offset="0" style="stop-color:#53D8FF"/>
				<stop  offset="1" style="stop-color:#3840F7"/>
			</linearGradient>
			<path style="fill:url(#SVGID_00000115493095941277065140000006888125650136634510_);" d="M206.958,395.232
				c-2.168,50.767-9.008,219.657-6.837,282.109c0.317,9.128,7.512,16.509,16.63,17.043c37.542,2.197,133.834,7.041,188.899,2.632
				c9.915-0.794,17.696-8.813,18.231-18.746c2.79-51.793,10.803-209.053,8.722-270.805c-0.332-9.851-7.963-17.896-17.78-18.778
				c-40.615-3.647-144.926-12.323-191.719-9.77C214.32,379.396,207.334,386.443,206.958,395.232z"/>
			<path style="opacity:0.5;fill:#FFFFFF;" d="M288.54,367.565L288.54,367.565c0,1.93,1.504,3.522,3.431,3.623
				c9.515,0.498,36.318,1.908,48.296,2.603c2.362,0.137,4.215-1.986,3.767-4.309l-0.076-0.396c-0.306-1.585-1.62-2.778-3.228-2.926
				c-8.097-0.742-32.529-2.799-48.717-2.221C290.069,364.008,288.54,365.619,288.54,367.565z"/>
		</g>
		<g>
			<g>
				
					<linearGradient id="SVGID_00000165921861424617621530000017697431590144515771_" gradientUnits="userSpaceOnUse" x1="384.1329" y1="529.0936" x2="276.8689" y2="666.3107">
					<stop  offset="0" style="stop-color:#FDF53F"/>
					<stop  offset="1" style="stop-color:#D93C65"/>
				</linearGradient>
				<circle style="fill:url(#SVGID_00000165921861424617621530000017697431590144515771_);" cx="370.115" cy="547.027" r="37.689"/>
				<g>
					
						<linearGradient id="SVGID_00000125601346859592987810000007640259139203895963_" gradientUnits="userSpaceOnUse" x1="350.7532" y1="547.0266" x2="387.8559" y2="547.0266">
						<stop  offset="0" style="stop-color:#2B3582"/>
						<stop  offset="1" style="stop-color:#150E42"/>
					</linearGradient>
					<path style="fill:url(#SVGID_00000125601346859592987810000007640259139203895963_);" d="M384.398,569.079h-28.142
						c-1.835,0-3.351-1.435-3.452-3.268l-2.046-37.19c-0.053-0.958,0.282-1.87,0.941-2.567c0.66-0.697,1.551-1.081,2.511-1.081
						h30.188c1.906,0,3.457,1.551,3.457,3.458v37.19C387.856,567.528,386.305,569.079,384.398,569.079z M354.211,526.054
						c-0.66,0-1.273,0.264-1.727,0.743c-0.454,0.479-0.684,1.106-0.647,1.765l2.046,37.19c0.069,1.26,1.112,2.247,2.374,2.247
						h28.142c1.311,0,2.378-1.067,2.378-2.378v-37.19c0-1.311-1.066-2.378-2.378-2.378H354.211z"/>
					
						<linearGradient id="SVGID_00000007394023391070155620000009582569207053643140_" gradientUnits="userSpaceOnUse" x1="358.542" y1="550.1887" x2="382.5895" y2="550.1887">
						<stop  offset="0" style="stop-color:#2B3582"/>
						<stop  offset="1" style="stop-color:#150E42"/>
					</linearGradient>
					<path style="fill:url(#SVGID_00000007394023391070155620000009582569207053643140_);" d="M370.566,562.213
						c-6.63,0-12.024-5.394-12.024-12.024c0-6.63,5.394-12.024,12.024-12.024c6.63,0,12.024,5.394,12.024,12.024
						C382.589,556.819,377.196,562.213,370.566,562.213z M370.566,539.245c-6.034,0-10.944,4.909-10.944,10.944
						c0,6.035,4.909,10.944,10.944,10.944c6.034,0,10.944-4.909,10.944-10.944C381.51,544.154,376.6,539.245,370.566,539.245z"/>
					
						<linearGradient id="SVGID_00000036941827952432477670000011739239537944918712_" gradientUnits="userSpaceOnUse" x1="361.8264" y1="550.6147" x2="379.5292" y2="550.6147">
						<stop  offset="0" style="stop-color:#2B3582"/>
						<stop  offset="1" style="stop-color:#150E42"/>
					</linearGradient>
					<path style="fill:url(#SVGID_00000036941827952432477670000011739239537944918712_);" d="M370.678,559.466
						c-4.881,0-8.851-3.971-8.851-8.851c0-4.88,3.971-8.851,8.851-8.851s8.851,3.971,8.851,8.851
						C379.529,555.495,375.559,559.466,370.678,559.466z M370.678,542.843c-4.285,0-7.772,3.486-7.772,7.771
						c0,4.285,3.486,7.772,7.772,7.772s7.771-3.486,7.771-7.772C378.449,546.33,374.963,542.843,370.678,542.843z"/>
					
						<linearGradient id="SVGID_00000160153700912307138030000004145293362351775405_" gradientUnits="userSpaceOnUse" x1="354.5848" y1="531.0562" x2="365.7027" y2="531.0562">
						<stop  offset="0" style="stop-color:#2B3582"/>
						<stop  offset="1" style="stop-color:#150E42"/>
					</linearGradient>
					<path style="fill:url(#SVGID_00000160153700912307138030000004145293362351775405_);" d="M365.703,533.962h-11.118v-5.812
						h11.118V533.962z M355.665,532.882h8.958v-3.652h-8.958V532.882z"/>
					
						<linearGradient id="SVGID_00000142878965900199632450000007696645426074801832_" gradientUnits="userSpaceOnUse" x1="371.219" y1="529.873" x2="382.5895" y2="529.873">
						<stop  offset="0" style="stop-color:#2B3582"/>
						<stop  offset="1" style="stop-color:#150E42"/>
					</linearGradient>
					<path style="fill:url(#SVGID_00000142878965900199632450000007696645426074801832_);" d="M382.589,531.596h-11.37v-3.446h11.37
						V531.596z M372.299,530.516h9.211v-1.286h-9.211V530.516z"/>
					
						<linearGradient id="SVGID_00000030466567000535550920000001608137201196842126_" gradientUnits="userSpaceOnUse" x1="374.6992" y1="550.9575" x2="377.4444" y2="550.9575">
						<stop  offset="0" style="stop-color:#2B3582"/>
						<stop  offset="1" style="stop-color:#150E42"/>
					</linearGradient>
					<path style="fill:url(#SVGID_00000030466567000535550920000001608137201196842126_);" d="M376.905,555.429
						c-0.158,0-0.314-0.069-0.421-0.201c-4.035-5.012,0.029-8.576,0.07-8.612c0.227-0.194,0.568-0.167,0.761,0.06
						c0.193,0.227,0.167,0.566-0.059,0.76l0,0c-0.136,0.117-3.297,2.934,0.069,7.114c0.187,0.232,0.15,0.572-0.082,0.759
						C377.143,555.39,377.023,555.429,376.905,555.429z"/>
					
						<linearGradient id="SVGID_00000031209467855380611720000014448515010179393164_" gradientUnits="userSpaceOnUse" x1="371.219" y1="533.3135" x2="374.2042" y2="533.3135">
						<stop  offset="0" style="stop-color:#2B3582"/>
						<stop  offset="1" style="stop-color:#150E42"/>
					</linearGradient>
					<path style="fill:url(#SVGID_00000031209467855380611720000014448515010179393164_);" d="M372.712,534.806
						c-0.823,0-1.493-0.67-1.493-1.492c0-0.823,0.67-1.493,1.493-1.493c0.823,0,1.492,0.67,1.492,1.493
						C374.204,534.136,373.535,534.806,372.712,534.806z M372.712,532.901c-0.228,0-0.413,0.185-0.413,0.413
						c0,0.227,0.185,0.412,0.413,0.412c0.228,0,0.413-0.185,0.413-0.412C373.124,533.086,372.939,532.901,372.712,532.901z"/>
					
						<linearGradient id="SVGID_00000017481645863418990780000008230772593535076018_" gradientUnits="userSpaceOnUse" x1="375.5385" y1="533.3135" x2="378.5236" y2="533.3135">
						<stop  offset="0" style="stop-color:#2B3582"/>
						<stop  offset="1" style="stop-color:#150E42"/>
					</linearGradient>
					<path style="fill:url(#SVGID_00000017481645863418990780000008230772593535076018_);" d="M377.031,534.806
						c-0.823,0-1.493-0.67-1.493-1.492c0-0.823,0.67-1.493,1.493-1.493c0.823,0,1.492,0.67,1.492,1.493
						C378.524,534.136,377.854,534.806,377.031,534.806z M377.031,532.901c-0.228,0-0.413,0.185-0.413,0.413
						c0,0.227,0.185,0.412,0.413,0.412s0.413-0.185,0.413-0.412C377.444,533.086,377.259,532.901,377.031,532.901z"/>
					
						<linearGradient id="SVGID_00000110442686188091606910000009964280643958085544_" gradientUnits="userSpaceOnUse" x1="379.3246" y1="533.3135" x2="382.3097" y2="533.3135">
						<stop  offset="0" style="stop-color:#2B3582"/>
						<stop  offset="1" style="stop-color:#150E42"/>
					</linearGradient>
					<path style="fill:url(#SVGID_00000110442686188091606910000009964280643958085544_);" d="M380.817,534.806
						c-0.823,0-1.493-0.67-1.493-1.492c0-0.823,0.67-1.493,1.493-1.493c0.823,0,1.492,0.67,1.492,1.493
						C382.31,534.136,381.64,534.806,380.817,534.806z M380.817,532.901c-0.228,0-0.413,0.185-0.413,0.413
						c0,0.227,0.185,0.412,0.413,0.412s0.413-0.185,0.413-0.412C381.23,533.086,381.045,532.901,380.817,532.901z"/>
				</g>
			</g>
			<g>
				
					<linearGradient id="SVGID_00000105397879042416788310000017896477065209839778_" gradientUnits="userSpaceOnUse" x1="280.8074" y1="529.0936" x2="173.5433" y2="666.3109">
					<stop  offset="0" style="stop-color:#FDF53F"/>
					<stop  offset="1" style="stop-color:#D93C65"/>
				</linearGradient>
				<circle style="fill:url(#SVGID_00000105397879042416788310000017896477065209839778_);" cx="266.789" cy="547.027" r="37.689"/>
				<g>
					
						<linearGradient id="SVGID_00000157992933061180503970000006016278796884509364_" gradientUnits="userSpaceOnUse" x1="256.9418" y1="549.4327" x2="272.063" y2="549.4327">
						<stop  offset="0" style="stop-color:#2B3582"/>
						<stop  offset="1" style="stop-color:#150E42"/>
					</linearGradient>
					<path style="fill:url(#SVGID_00000157992933061180503970000006016278796884509364_);" d="M264.502,574.651
						c-4.169,0-7.561-3.391-7.561-7.56c0-2.921,1.669-5.557,4.281-6.814v-32.783c0-1.808,1.471-3.279,3.279-3.279
						c1.808,0,3.279,1.471,3.279,3.279v32.783c2.612,1.257,4.281,3.893,4.281,6.814C272.063,571.26,268.671,574.651,264.502,574.651
						z M264.502,525.294c-1.213,0-2.199,0.987-2.199,2.199v33.489l-0.329,0.14c-2.401,1.019-3.952,3.361-3.952,5.969
						c0,3.573,2.907,6.48,6.481,6.48c3.574,0,6.481-2.907,6.481-6.48c0-2.607-1.551-4.95-3.952-5.969l-0.329-0.14v-33.489
						C266.702,526.281,265.715,525.294,264.502,525.294z"/>
					
						<linearGradient id="SVGID_00000039115321432240603030000017614102374925770685_" gradientUnits="userSpaceOnUse" x1="270.9832" y1="526.8087" x2="280.2885" y2="526.8087">
						<stop  offset="0" style="stop-color:#2B3582"/>
						<stop  offset="1" style="stop-color:#150E42"/>
					</linearGradient>
					<path style="fill:url(#SVGID_00000039115321432240603030000017614102374925770685_);" d="M279.749,527.349h-8.225
						c-0.298,0-0.54-0.241-0.54-0.54c0-0.298,0.242-0.54,0.54-0.54h8.225c0.298,0,0.54,0.242,0.54,0.54
						C280.288,527.107,280.047,527.349,279.749,527.349z"/>
					
						<linearGradient id="SVGID_00000071548523173533820320000015879865843447387326_" gradientUnits="userSpaceOnUse" x1="270.9832" y1="529.697" x2="276.1758" y2="529.697">
						<stop  offset="0" style="stop-color:#2B3582"/>
						<stop  offset="1" style="stop-color:#150E42"/>
					</linearGradient>
					<path style="fill:url(#SVGID_00000071548523173533820320000015879865843447387326_);" d="M275.636,530.237h-4.113
						c-0.298,0-0.54-0.242-0.54-0.54c0-0.298,0.242-0.54,0.54-0.54h4.113c0.298,0,0.54,0.242,0.54,0.54
						C276.176,529.995,275.934,530.237,275.636,530.237z"/>
					
						<linearGradient id="SVGID_00000109011375806868270790000000466786909924865931_" gradientUnits="userSpaceOnUse" x1="270.9832" y1="532.5854" x2="276.1758" y2="532.5854">
						<stop  offset="0" style="stop-color:#2B3582"/>
						<stop  offset="1" style="stop-color:#150E42"/>
					</linearGradient>
					<path style="fill:url(#SVGID_00000109011375806868270790000000466786909924865931_);" d="M275.636,533.125h-4.113
						c-0.298,0-0.54-0.242-0.54-0.54c0-0.299,0.242-0.54,0.54-0.54h4.113c0.298,0,0.54,0.242,0.54,0.54
						C276.176,532.884,275.934,533.125,275.636,533.125z"/>
					
						<linearGradient id="SVGID_00000139274068721076408180000009323368295726068118_" gradientUnits="userSpaceOnUse" x1="270.9832" y1="535.4733" x2="276.1758" y2="535.4733">
						<stop  offset="0" style="stop-color:#2B3582"/>
						<stop  offset="1" style="stop-color:#150E42"/>
					</linearGradient>
					<path style="fill:url(#SVGID_00000139274068721076408180000009323368295726068118_);" d="M275.636,536.013h-4.113
						c-0.298,0-0.54-0.242-0.54-0.54c0-0.298,0.242-0.54,0.54-0.54h4.113c0.298,0,0.54,0.242,0.54,0.54
						C276.176,535.772,275.934,536.013,275.636,536.013z"/>
					
						<linearGradient id="SVGID_00000072980645874578026230000007861757017519929472_" gradientUnits="userSpaceOnUse" x1="270.9832" y1="526.8087" x2="280.2885" y2="526.8087">
						<stop  offset="0" style="stop-color:#2B3582"/>
						<stop  offset="1" style="stop-color:#150E42"/>
					</linearGradient>
					<path style="fill:url(#SVGID_00000072980645874578026230000007861757017519929472_);" d="M279.749,527.349h-8.225
						c-0.298,0-0.54-0.241-0.54-0.54c0-0.298,0.242-0.54,0.54-0.54h8.225c0.298,0,0.54,0.242,0.54,0.54
						C280.288,527.107,280.047,527.349,279.749,527.349z"/>
					
						<linearGradient id="SVGID_00000145774891697019591990000000130149745169306541_" gradientUnits="userSpaceOnUse" x1="270.9832" y1="529.697" x2="276.1758" y2="529.697">
						<stop  offset="0" style="stop-color:#2B3582"/>
						<stop  offset="1" style="stop-color:#150E42"/>
					</linearGradient>
					<path style="fill:url(#SVGID_00000145774891697019591990000000130149745169306541_);" d="M275.636,530.237h-4.113
						c-0.298,0-0.54-0.242-0.54-0.54c0-0.298,0.242-0.54,0.54-0.54h4.113c0.298,0,0.54,0.242,0.54,0.54
						C276.176,529.995,275.934,530.237,275.636,530.237z"/>
					
						<linearGradient id="SVGID_00000042699736278859165320000009755546379445144984_" gradientUnits="userSpaceOnUse" x1="270.9832" y1="532.5854" x2="276.1758" y2="532.5854">
						<stop  offset="0" style="stop-color:#2B3582"/>
						<stop  offset="1" style="stop-color:#150E42"/>
					</linearGradient>
					<path style="fill:url(#SVGID_00000042699736278859165320000009755546379445144984_);" d="M275.636,533.125h-4.113
						c-0.298,0-0.54-0.242-0.54-0.54c0-0.299,0.242-0.54,0.54-0.54h4.113c0.298,0,0.54,0.242,0.54,0.54
						C276.176,532.884,275.934,533.125,275.636,533.125z"/>
					
						<linearGradient id="SVGID_00000083773317713324331400000006706533975575352481_" gradientUnits="userSpaceOnUse" x1="270.9832" y1="535.4733" x2="276.1758" y2="535.4733">
						<stop  offset="0" style="stop-color:#2B3582"/>
						<stop  offset="1" style="stop-color:#150E42"/>
					</linearGradient>
					<path style="fill:url(#SVGID_00000083773317713324331400000006706533975575352481_);" d="M275.636,536.013h-4.113
						c-0.298,0-0.54-0.242-0.54-0.54c0-0.298,0.242-0.54,0.54-0.54h4.113c0.298,0,0.54,0.242,0.54,0.54
						C276.176,535.772,275.934,536.013,275.636,536.013z"/>
					
						<linearGradient id="SVGID_00000165957483328695104780000008579741435977583766_" gradientUnits="userSpaceOnUse" x1="270.9832" y1="538.3618" x2="280.2885" y2="538.3618">
						<stop  offset="0" style="stop-color:#2B3582"/>
						<stop  offset="1" style="stop-color:#150E42"/>
					</linearGradient>
					<path style="fill:url(#SVGID_00000165957483328695104780000008579741435977583766_);" d="M279.749,538.902h-8.225
						c-0.298,0-0.54-0.241-0.54-0.54c0-0.299,0.242-0.54,0.54-0.54h8.225c0.298,0,0.54,0.242,0.54,0.54
						C280.288,538.66,280.047,538.902,279.749,538.902z"/>
					
						<linearGradient id="SVGID_00000039129840255708451970000013675211171906363323_" gradientUnits="userSpaceOnUse" x1="270.9832" y1="541.2501" x2="276.1758" y2="541.2501">
						<stop  offset="0" style="stop-color:#2B3582"/>
						<stop  offset="1" style="stop-color:#150E42"/>
					</linearGradient>
					<path style="fill:url(#SVGID_00000039129840255708451970000013675211171906363323_);" d="M275.636,541.79h-4.113
						c-0.298,0-0.54-0.242-0.54-0.54c0-0.298,0.242-0.54,0.54-0.54h4.113c0.298,0,0.54,0.242,0.54,0.54
						C276.176,541.549,275.934,541.79,275.636,541.79z"/>
					
						<linearGradient id="SVGID_00000093869563890685581480000017861528052434376360_" gradientUnits="userSpaceOnUse" x1="270.9832" y1="544.1386" x2="276.1758" y2="544.1386">
						<stop  offset="0" style="stop-color:#2B3582"/>
						<stop  offset="1" style="stop-color:#150E42"/>
					</linearGradient>
					<path style="fill:url(#SVGID_00000093869563890685581480000017861528052434376360_);" d="M275.636,544.679h-4.113
						c-0.298,0-0.54-0.242-0.54-0.54c0-0.299,0.242-0.54,0.54-0.54h4.113c0.298,0,0.54,0.241,0.54,0.54
						C276.176,544.437,275.934,544.679,275.636,544.679z"/>
					
						<linearGradient id="SVGID_00000032634733322094569170000004255663691684892809_" gradientUnits="userSpaceOnUse" x1="270.9832" y1="547.0264" x2="276.1758" y2="547.0264">
						<stop  offset="0" style="stop-color:#2B3582"/>
						<stop  offset="1" style="stop-color:#150E42"/>
					</linearGradient>
					<path style="fill:url(#SVGID_00000032634733322094569170000004255663691684892809_);" d="M275.636,547.566h-4.113
						c-0.298,0-0.54-0.242-0.54-0.54c0-0.298,0.242-0.54,0.54-0.54h4.113c0.298,0,0.54,0.242,0.54,0.54
						C276.176,547.325,275.934,547.566,275.636,547.566z"/>
					
						<linearGradient id="SVGID_00000176760692244295238140000011273467443762277804_" gradientUnits="userSpaceOnUse" x1="270.9832" y1="549.9149" x2="280.2885" y2="549.9149">
						<stop  offset="0" style="stop-color:#2B3582"/>
						<stop  offset="1" style="stop-color:#150E42"/>
					</linearGradient>
					<path style="fill:url(#SVGID_00000176760692244295238140000011273467443762277804_);" d="M279.749,550.455h-8.225
						c-0.298,0-0.54-0.241-0.54-0.54c0-0.299,0.242-0.54,0.54-0.54h8.225c0.298,0,0.54,0.241,0.54,0.54
						C280.288,550.213,280.047,550.455,279.749,550.455z"/>
					
						<linearGradient id="SVGID_00000166645468273764933110000009101111110107717308_" gradientUnits="userSpaceOnUse" x1="270.9832" y1="552.8033" x2="276.1758" y2="552.8033">
						<stop  offset="0" style="stop-color:#2B3582"/>
						<stop  offset="1" style="stop-color:#150E42"/>
					</linearGradient>
					<path style="fill:url(#SVGID_00000166645468273764933110000009101111110107717308_);" d="M275.636,553.343h-4.113
						c-0.298,0-0.54-0.242-0.54-0.54s0.242-0.54,0.54-0.54h4.113c0.298,0,0.54,0.241,0.54,0.54S275.934,553.343,275.636,553.343z"/>
					
						<linearGradient id="SVGID_00000090994071868226482060000005508788096243836049_" gradientUnits="userSpaceOnUse" x1="270.9832" y1="555.6912" x2="276.1758" y2="555.6912">
						<stop  offset="0" style="stop-color:#2B3582"/>
						<stop  offset="1" style="stop-color:#150E42"/>
					</linearGradient>
					<path style="fill:url(#SVGID_00000090994071868226482060000005508788096243836049_);" d="M275.636,556.231h-4.113
						c-0.298,0-0.54-0.241-0.54-0.54s0.242-0.54,0.54-0.54h4.113c0.298,0,0.54,0.242,0.54,0.54S275.934,556.231,275.636,556.231z"/>
					
						<linearGradient id="SVGID_00000046305763941365018310000005842751870708654491_" gradientUnits="userSpaceOnUse" x1="270.9832" y1="558.5796" x2="276.1758" y2="558.5796">
						<stop  offset="0" style="stop-color:#2B3582"/>
						<stop  offset="1" style="stop-color:#150E42"/>
					</linearGradient>
					<path style="fill:url(#SVGID_00000046305763941365018310000005842751870708654491_);" d="M275.636,559.12h-4.113
						c-0.298,0-0.54-0.242-0.54-0.54s0.242-0.54,0.54-0.54h4.113c0.298,0,0.54,0.242,0.54,0.54S275.934,559.12,275.636,559.12z"/>
				</g>
			</g>
			<g>
				
					<linearGradient id="SVGID_00000178184888716435507470000012194397192089299356_" gradientUnits="userSpaceOnUse" x1="333.946" y1="621.1594" x2="226.6819" y2="758.3766">
					<stop  offset="0" style="stop-color:#FDF53F"/>
					<stop  offset="1" style="stop-color:#D93C65"/>
				</linearGradient>
				<circle style="fill:url(#SVGID_00000178184888716435507470000012194397192089299356_);" cx="319.928" cy="639.092" r="37.689"/>
				<g>
					
						<linearGradient id="SVGID_00000135670205368781337290000007053332357622689715_" gradientUnits="userSpaceOnUse" x1="314.429" y1="656.5828" x2="327.1996" y2="656.5828">
						<stop  offset="0" style="stop-color:#2B3582"/>
						<stop  offset="1" style="stop-color:#150E42"/>
					</linearGradient>
					<path style="fill:url(#SVGID_00000135670205368781337290000007053332357622689715_);" d="M320.814,662.968
						c-3.521,0-6.385-2.865-6.385-6.385c0-3.521,2.864-6.385,6.385-6.385c3.521,0,6.385,2.864,6.385,6.385
						C327.2,660.103,324.335,662.968,320.814,662.968z M320.814,651.278c-2.925,0-5.306,2.38-5.306,5.305
						c0,2.925,2.38,5.305,5.306,5.305c2.925,0,5.305-2.38,5.305-5.305C326.12,653.657,323.74,651.278,320.814,651.278z"/>
					
						<linearGradient id="SVGID_00000003067223420261142630000002341925000485451905_" gradientUnits="userSpaceOnUse" x1="309.9629" y1="644.1359" x2="331.6653" y2="644.1359">
						<stop  offset="0" style="stop-color:#2B3582"/>
						<stop  offset="1" style="stop-color:#150E42"/>
					</linearGradient>
					<path style="fill:url(#SVGID_00000003067223420261142630000002341925000485451905_);" d="M331.125,646.812
						c-0.138,0-0.276-0.053-0.382-0.158c-2.652-2.652-6.179-4.113-9.929-4.113c-3.751,0-7.277,1.461-9.93,4.113
						c-0.211,0.211-0.553,0.211-0.763,0c-0.211-0.211-0.211-0.552,0-0.763c2.856-2.856,6.654-4.43,10.693-4.43
						c4.039,0,7.837,1.573,10.693,4.43c0.211,0.211,0.211,0.552,0,0.763C331.402,646.759,331.263,646.812,331.125,646.812z"/>
					<g>
						
							<linearGradient id="SVGID_00000016795378582761206380000009330084270494276541_" gradientUnits="userSpaceOnUse" x1="303.7848" y1="636.6784" x2="337.8434" y2="636.6784">
							<stop  offset="0" style="stop-color:#2B3582"/>
							<stop  offset="1" style="stop-color:#150E42"/>
						</linearGradient>
						<path style="fill:url(#SVGID_00000016795378582761206380000009330084270494276541_);" d="M337.303,640.633
							c-0.138,0-0.276-0.053-0.382-0.158c-4.302-4.303-10.023-6.672-16.108-6.672c-6.085,0-11.805,2.37-16.108,6.672
							c-0.211,0.211-0.553,0.211-0.763,0c-0.211-0.211-0.211-0.553,0-0.763c4.506-4.507,10.498-6.988,16.871-6.988
							c6.373,0,12.365,2.482,16.871,6.988c0.211,0.211,0.211,0.553,0,0.763C337.58,640.581,337.442,640.633,337.303,640.633z"/>
					</g>
					<g>
						
							<linearGradient id="SVGID_00000149368788680955160380000006534328995674007682_" gradientUnits="userSpaceOnUse" x1="297.607" y1="629.2208" x2="344.0215" y2="629.2208">
							<stop  offset="0" style="stop-color:#2B3582"/>
							<stop  offset="1" style="stop-color:#150E42"/>
						</linearGradient>
						<path style="fill:url(#SVGID_00000149368788680955160380000006534328995674007682_);" d="M343.482,634.455
							c-0.138,0-0.276-0.053-0.382-0.158c-5.953-5.953-13.867-9.231-22.285-9.231c-8.418,0-16.333,3.278-22.286,9.231
							c-0.211,0.211-0.553,0.211-0.763,0c-0.211-0.211-0.211-0.553,0-0.763c6.157-6.157,14.342-9.547,23.049-9.547
							c8.707,0,16.892,3.39,23.049,9.547c0.211,0.211,0.211,0.553,0,0.763C343.758,634.403,343.62,634.455,343.482,634.455z"/>
					</g>
				</g>
			</g>
			<g>
				
					<linearGradient id="SVGID_00000086680210464673303100000016770101371561400455_" gradientUnits="userSpaceOnUse" x1="384.1329" y1="433.1846" x2="276.8688" y2="570.4019">
					<stop  offset="0" style="stop-color:#FDF53F"/>
					<stop  offset="1" style="stop-color:#D93C65"/>
				</linearGradient>
				<circle style="fill:url(#SVGID_00000086680210464673303100000016770101371561400455_);" cx="370.115" cy="451.118" r="37.689"/>
				<g>
					
						<linearGradient id="SVGID_00000154391715495950898300000011582656459458674110_" gradientUnits="userSpaceOnUse" x1="352.748" y1="447.3529" x2="388.3932" y2="447.3529">
						<stop  offset="0" style="stop-color:#2B3582"/>
						<stop  offset="1" style="stop-color:#150E42"/>
					</linearGradient>
					<path style="fill:url(#SVGID_00000154391715495950898300000011582656459458674110_);" d="M370.844,470.449h-0.548
						c-3.303,0-5.99-2.688-5.99-5.991v-0.968c0-2.654-1.271-5.06-3.4-6.436c-5.473-3.538-8.581-9.783-8.111-16.296
						c0.634-8.773,7.73-15.848,16.506-16.457c5.009-0.345,9.774,1.339,13.426,4.745c3.601,3.36,5.667,8.111,5.667,13.034
						c0,6.062-3.041,11.653-8.135,14.958c-2.144,1.39-3.424,3.755-3.424,6.325v1.095
						C376.835,467.761,374.147,470.449,370.844,470.449z M370.583,425.337c-0.401,0-0.803,0.014-1.208,0.042
						c-8.243,0.572-14.909,7.217-15.504,15.457c-0.442,6.12,2.478,11.987,7.62,15.311c2.438,1.577,3.894,4.322,3.894,7.343v0.968
						c0,2.708,2.203,4.911,4.91,4.911h0.548c2.708,0,4.911-2.203,4.911-4.911v-1.095c0-2.937,1.464-5.64,3.916-7.231
						c4.786-3.105,7.643-8.357,7.643-14.052c0-4.625-1.94-9.088-5.324-12.245C378.855,426.911,374.842,425.337,370.583,425.337z"/>
					<g>
						
							<linearGradient id="SVGID_00000162354083855983719390000004458699709093509524_" gradientUnits="userSpaceOnUse" x1="364.3715" y1="473.6581" x2="376.7688" y2="473.6581">
							<stop  offset="0" style="stop-color:#2B3582"/>
							<stop  offset="1" style="stop-color:#150E42"/>
						</linearGradient>
						<path style="fill:url(#SVGID_00000162354083855983719390000004458699709093509524_);" d="M376.229,475.305h-11.317
							c-0.298,0-0.54-0.242-0.54-0.54v-2.214c0-0.298,0.242-0.54,0.54-0.54h11.317c0.298,0,0.54,0.241,0.54,0.54v2.214
							C376.769,475.064,376.527,475.305,376.229,475.305z M365.451,474.225h10.238v-1.134h-10.238V474.225z"/>
						
							<linearGradient id="SVGID_00000117672380619474868540000003384969058978069382_" gradientUnits="userSpaceOnUse" x1="365.3164" y1="479.1932" x2="375.8237" y2="479.1932">
							<stop  offset="0" style="stop-color:#2B3582"/>
							<stop  offset="1" style="stop-color:#150E42"/>
						</linearGradient>
						<path style="fill:url(#SVGID_00000117672380619474868540000003384969058978069382_);" d="M371.642,481.947h-2.144
							c-2.306,0-4.182-1.876-4.182-4.181v-0.787c0-0.298,0.242-0.54,0.54-0.54h9.427c0.298,0,0.54,0.241,0.54,0.54v0.247
							C375.824,479.455,374.035,481.947,371.642,481.947z M366.396,477.519v0.247c0,1.71,1.391,3.101,3.102,3.101h2.144
							c1.646,0,2.944-1.738,3.089-3.348H366.396z"/>
					</g>
					
						<linearGradient id="SVGID_00000140698268843571248160000017144155170531304120_" gradientUnits="userSpaceOnUse" x1="364.3715" y1="453.189" x2="370.6546" y2="453.189">
						<stop  offset="0" style="stop-color:#2B3582"/>
						<stop  offset="1" style="stop-color:#150E42"/>
					</linearGradient>
					<path style="fill:url(#SVGID_00000140698268843571248160000017144155170531304120_);" d="M370.114,464.776
						c-0.245,0-0.466-0.168-0.525-0.416l-5.203-22.095c-0.068-0.29,0.112-0.581,0.402-0.65c0.286-0.068,0.581,0.112,0.649,0.402
						l5.203,22.095c0.069,0.291-0.112,0.581-0.402,0.65C370.197,464.772,370.155,464.776,370.114,464.776z"/>
					
						<linearGradient id="SVGID_00000140712522732890830500000015459678547719031433_" gradientUnits="userSpaceOnUse" x1="372.2227" y1="453.6119" x2="376.7688" y2="453.6119">
						<stop  offset="0" style="stop-color:#2B3582"/>
						<stop  offset="1" style="stop-color:#150E42"/>
					</linearGradient>
					<path style="fill:url(#SVGID_00000140712522732890830500000015459678547719031433_);" d="M372.763,464.776
						c-0.029,0-0.058-0.002-0.087-0.007c-0.294-0.048-0.494-0.326-0.446-0.62l3.466-21.25c0.048-0.294,0.323-0.491,0.62-0.446
						c0.294,0.048,0.494,0.326,0.446,0.62l-3.466,21.25C373.252,464.588,373.023,464.776,372.763,464.776z"/>
					
						<linearGradient id="SVGID_00000049180059268074864930000004518059470664019874_" gradientUnits="userSpaceOnUse" x1="366.973" y1="441.2531" x2="375.0356" y2="441.2531">
						<stop  offset="0" style="stop-color:#2B3582"/>
						<stop  offset="1" style="stop-color:#150E42"/>
					</linearGradient>
					<path style="fill:url(#SVGID_00000049180059268074864930000004518059470664019874_);" d="M367.513,444.497
						c-0.064,0-0.13-0.012-0.194-0.036c-0.278-0.107-0.417-0.419-0.31-0.698l2.075-5.408c0.076-0.199,0.263-0.335,0.476-0.346
						c0.209-0.011,0.413,0.105,0.509,0.295l2.362,4.66l1.642-2.049c0.186-0.233,0.527-0.271,0.759-0.084
						c0.233,0.187,0.27,0.526,0.084,0.759l-2.167,2.704c-0.115,0.143-0.294,0.216-0.477,0.2c-0.182-0.019-0.343-0.13-0.426-0.293
						l-2.191-4.323l-1.639,4.272C367.935,444.365,367.73,444.497,367.513,444.497z"/>
				</g>
			</g>
			<g>
				
					<linearGradient id="SVGID_00000116235590654535897460000015527158963240990646_" gradientUnits="userSpaceOnUse" x1="276.549" y1="433.1846" x2="169.2848" y2="570.4019">
					<stop  offset="0" style="stop-color:#FDF53F"/>
					<stop  offset="1" style="stop-color:#D93C65"/>
				</linearGradient>
				<circle style="fill:url(#SVGID_00000116235590654535897460000015527158963240990646_);" cx="262.53" cy="451.118" r="37.689"/>
				<g>
					
						<linearGradient id="SVGID_00000165235717401688982660000014079373471721134238_" gradientUnits="userSpaceOnUse" x1="243.5" y1="463.5735" x2="282.0491" y2="463.5735">
						<stop  offset="0" style="stop-color:#2B3582"/>
						<stop  offset="1" style="stop-color:#150E42"/>
					</linearGradient>
					<path style="fill:url(#SVGID_00000165235717401688982660000014079373471721134238_);" d="M269.259,477.021h-12.97
						c-7.052,0-12.789-5.737-12.789-12.79v-13.566c0-0.298,0.242-0.54,0.54-0.54h37.469c0.298,0,0.54,0.241,0.54,0.54v13.566
						C282.049,471.284,276.312,477.021,269.259,477.021z M244.58,451.206v13.026c0,6.457,5.253,11.71,11.71,11.71h12.97
						c6.457,0,11.71-5.253,11.71-11.71v-13.026H244.58z"/>
					
						<linearGradient id="SVGID_00000094596147230653925370000004735810591797435030_" gradientUnits="userSpaceOnUse" x1="247.5352" y1="437.1389" x2="277.4373" y2="437.1389">
						<stop  offset="0" style="stop-color:#2B3582"/>
						<stop  offset="1" style="stop-color:#150E42"/>
					</linearGradient>
					<path style="fill:url(#SVGID_00000094596147230653925370000004735810591797435030_);" d="M276.897,449.064
						c-0.298,0-0.54-0.241-0.54-0.54V438.22c0-6.576-5.35-11.926-11.926-11.926h-3.891c-6.576,0-11.926,5.35-11.926,11.926v10.304
						c0,0.298-0.242,0.54-0.54,0.54c-0.298,0-0.54-0.241-0.54-0.54V438.22c0-7.171,5.834-13.006,13.005-13.006h3.891
						c7.171,0,13.005,5.834,13.005,13.006v10.304C277.437,448.822,277.195,449.064,276.897,449.064z"/>
					
						<linearGradient id="SVGID_00000144325693157592608120000013740638502467803838_" gradientUnits="userSpaceOnUse" x1="250.7561" y1="438.7605" x2="274.2164" y2="438.7605">
						<stop  offset="0" style="stop-color:#2B3582"/>
						<stop  offset="1" style="stop-color:#150E42"/>
					</linearGradient>
					<path style="fill:url(#SVGID_00000144325693157592608120000013740638502467803838_);" d="M273.676,449.064
						c-0.298,0-0.54-0.241-0.54-0.54v-8.837c0-5.596-4.1-10.15-9.14-10.15h-3.022c-5.039,0-9.14,4.554-9.14,10.15v8.837
						c0,0.298-0.242,0.54-0.54,0.54c-0.298,0-0.54-0.241-0.54-0.54v-8.837c0-6.192,4.584-11.23,10.219-11.23h3.022
						c5.635,0,10.219,5.038,10.219,11.23v8.837C274.216,448.822,273.975,449.064,273.676,449.064z"/>
					
						<linearGradient id="SVGID_00000112613349471278093790000000850402984190686105_" gradientUnits="userSpaceOnUse" x1="257.9979" y1="462.9024" x2="267.8688" y2="462.9024">
						<stop  offset="0" style="stop-color:#2B3582"/>
						<stop  offset="1" style="stop-color:#150E42"/>
					</linearGradient>
					<path style="fill:url(#SVGID_00000112613349471278093790000000850402984190686105_);" d="M262.933,471.381
						c-1.273,0-2.309-1.036-2.309-2.309v-5.353c-1.838-0.97-2.866-2.956-2.579-5.055c0.299-2.188,2.112-3.958,4.31-4.208
						c1.406-0.162,2.815,0.283,3.863,1.219c1.049,0.936,1.65,2.278,1.65,3.683c0,1.834-1.02,3.509-2.626,4.36v5.354
						C265.242,470.346,264.207,471.381,262.933,471.381z M262.938,455.502c-0.152,0-0.306,0.009-0.461,0.026
						c-1.715,0.196-3.129,1.576-3.362,3.282c-0.238,1.735,0.673,3.373,2.267,4.075c0.196,0.086,0.322,0.28,0.322,0.494v5.692
						c0,0.678,0.551,1.229,1.229,1.229c0.678,0,1.229-0.552,1.229-1.229v-5.692c0-0.214,0.126-0.408,0.322-0.494
						c1.4-0.617,2.304-2.001,2.304-3.528c0-1.097-0.47-2.146-1.289-2.877C264.784,455.842,263.888,455.502,262.938,455.502z"/>
				</g>
			</g>
		</g>
	</g>
	<g>
		
			<linearGradient id="SVGID_00000084525079876411955700000012019369545590306447_" gradientUnits="userSpaceOnUse" x1="371.8766" y1="918.1876" x2="415.3275" y2="525.6321" gradientTransform="matrix(0.9421 0.3355 -0.3355 0.9421 887.3885 -201.1666)">
			<stop  offset="0" style="stop-color:#A737D5"/>
			<stop  offset="1" style="stop-color:#EF497A"/>
		</linearGradient>
		<path style="fill:url(#SVGID_00000084525079876411955700000012019369545590306447_);" d="M984.28,734.484
			c-46.864-12.925-63.826-156.516-16.258-191.088c21.884-15.905,51.099-4.136,63.527-24.301c13.466-21.85-14.85-45.375-3.448-75.188
			c10.506-27.472,51.241-51.145,79.188-37.016c21.699,10.97,32.335,43.035,24.253,65.895
			c-11.774,33.301-56.711,28.519-66.366,59.077c-8.216,26.004,20.701,40.939,24.766,75.622
			C1097.027,667.935,1023.571,745.32,984.28,734.484z"/>
		<path style="opacity:0.47;fill:#FFFFFF;" d="M950.966,671.393c-1.877-7.281-3.275-14.689-4.268-22.156
			c-0.266-1.865-0.455-3.739-0.674-5.611c-0.102-0.937-0.18-1.875-0.272-2.813c-0.089-0.938-0.181-1.877-0.243-2.817
			c-0.302-3.759-0.448-7.529-0.552-11.302c-0.147-7.547,0.119-15.114,0.92-22.645c0.398-3.765,0.891-7.527,1.594-11.259l0.254-1.401
			l0.291-1.395c0.199-0.929,0.381-1.861,0.595-2.787l0.668-2.774c0.214-0.927,0.493-1.84,0.737-2.76
			c1.031-3.668,2.204-7.31,3.667-10.858c1.451-3.551,3.173-7.01,5.198-10.312c2.029-3.297,4.387-6.433,7.156-9.229
			c1.37-1.409,2.881-2.693,4.457-3.895c1.603-1.166,3.273-2.261,5.04-3.146c3.517-1.815,7.268-3.05,11.03-3.893
			c1.883-0.427,3.771-0.772,5.657-1.04c1.885-0.289,3.769-0.495,5.644-0.683c7.497-0.784,14.892-1.133,22.125-2.956l0.297,0.843
			c-3.461,1.585-7.161,2.616-10.858,3.447c-1.853,0.404-3.713,0.748-5.566,1.085c-1.853,0.339-3.707,0.613-5.544,0.932
			c-3.674,0.639-7.315,1.264-10.833,2.186c-1.763,0.45-3.493,0.968-5.175,1.588c-1.693,0.595-3.323,1.316-4.896,2.129
			c-6.327,3.182-11.325,8.599-15.135,14.736c-3.808,6.169-6.576,13.035-8.636,20.102c-0.247,0.888-0.529,1.765-0.749,2.662
			l-0.685,2.683c-0.219,0.897-0.408,1.802-0.614,2.703l-0.301,1.353l-0.266,1.362c-0.37,1.812-0.681,3.638-0.995,5.463
			c-0.151,0.914-0.276,1.832-0.415,2.749c-0.144,0.916-0.265,1.835-0.374,2.756c-0.947,7.361-1.36,14.797-1.471,22.24
			c-0.096,14.888,1.226,29.826,4.063,44.517L950.966,671.393z"/>
		<path style="opacity:0.47;fill:#FFFFFF;" d="M1110.768,416.649c1.663,1.325,3.216,2.791,4.652,4.364
			c1.427,1.581,2.739,3.267,3.936,5.03c2.393,3.528,4.339,7.36,5.834,11.359c2.945,8.002,4.223,16.71,3.156,25.291
			c-0.28,2.14-0.692,4.269-1.289,6.357c-0.325,1.036-0.639,2.077-1.065,3.083l-0.601,1.522l-0.721,1.471
			c-0.943,1.974-2.171,3.797-3.463,5.556c-0.341,0.426-0.697,0.84-1.045,1.26c-0.354,0.415-0.688,0.849-1.078,1.229
			c-0.757,0.782-1.497,1.585-2.322,2.289c-3.213,2.925-6.807,5.339-10.506,7.446c-3.699,2.12-7.495,3.991-11.277,5.824
			c-3.779,1.837-7.542,3.655-11.177,5.659c-3.629,2.008-7.137,4.201-10.344,6.751c-3.203,2.548-6.081,5.478-8.408,8.809
			c-2.33,3.324-4.117,7.027-5.318,10.927c-1.208,3.895-1.753,7.977-1.567,12.048c0.176,4.075,1.108,8.109,2.492,11.997
			c1.375,3.899,3.25,7.634,5.243,11.306c0.995,1.839,2.045,3.654,3.086,5.477l3.106,5.489l-0.771,0.452
			c-2.217-3.564-4.486-7.095-6.629-10.733c-2.133-3.637-4.169-7.372-5.725-11.355c-1.56-3.972-2.625-8.194-2.923-12.512
			c-0.314-4.316,0.208-8.693,1.415-12.841c1.205-4.143,3.017-8.141,5.479-11.717c2.448-3.585,5.488-6.737,8.827-9.45
			c3.339-2.724,6.972-5.019,10.686-7.082c3.717-2.064,7.516-3.916,11.286-5.764c3.766-1.854,7.518-3.684,11.118-5.727
			c3.603-2.033,7.03-4.328,10.044-7.051c0.777-0.658,1.463-1.401,2.178-2.116c0.369-0.349,0.679-0.747,1.011-1.127
			c0.326-0.385,0.661-0.763,0.981-1.153c1.206-1.611,2.36-3.272,3.247-5.084l0.683-1.349l0.57-1.403
			c0.407-0.924,0.71-1.893,1.026-2.857c0.574-1.948,1.008-3.942,1.31-5.961c0.584-4.044,0.608-8.181,0.163-12.27
			c-0.199-2.049-0.569-4.079-0.994-6.097c-0.447-2.014-1.016-4.001-1.665-5.963c-1.317-3.915-3.055-7.699-5.255-11.206
			c-1.099-1.753-2.313-3.437-3.643-5.024c-1.321-1.595-2.76-3.096-4.318-4.467L1110.768,416.649z"/>
		<path style="opacity:0.57;fill:#FFFFFF;" d="M1082.394,447.381c-9.117,21.968-18.108,43.966-26.906,66.031
			c-8.831,22.052-17.334,44.223-25.633,66.465c-4.126,11.13-8.076,22.322-12.03,33.512c-1.925,5.612-3.88,11.216-5.73,16.853
			c-1.917,5.616-3.737,11.263-5.584,16.903l-2.67,8.49c-0.908,2.825-1.776,5.662-2.641,8.5c-0.857,2.84-1.765,5.668-2.575,8.521
			l-2.508,8.542c-3.274,11.411-6.336,22.883-9.235,34.416l-0.001,0.003c-0.06,0.239-0.303,0.385-0.542,0.325
			c-0.228-0.057-0.37-0.281-0.332-0.509c2.007-11.738,4.5-23.394,7.239-34.991c1.409-5.788,2.859-11.568,4.41-17.32
			c1.483-5.773,3.157-11.49,4.784-17.222c6.646-22.887,14.227-45.491,22.393-67.869c2.06-5.587,4.094-11.185,6.245-16.738
			c2.105-5.57,4.289-11.11,6.483-16.645l3.333-8.286l3.405-8.256l3.442-8.24c1.144-2.748,2.313-5.486,3.501-8.215l3.571-8.184
			l3.609-8.167c2.433-5.432,4.929-10.837,7.426-16.24c5.06-10.777,10.205-21.511,15.74-32.061c0.115-0.219,0.385-0.303,0.603-0.188
			c0.206,0.108,0.293,0.355,0.206,0.566L1082.394,447.381z"/>
	</g>
	<g>
		
			<linearGradient id="SVGID_00000070799111142938493820000000096328760659451291_" gradientUnits="userSpaceOnUse" x1="-3847.8352" y1="411.0281" x2="-3814.6638" y2="494.2383" gradientTransform="matrix(-1 0 0 1 -3675.4333 0)">
			<stop  offset="0" style="stop-color:#2B3582"/>
			<stop  offset="1" style="stop-color:#150E42"/>
		</linearGradient>
		<path style="fill:url(#SVGID_00000070799111142938493820000000096328760659451291_);" d="M155.281,456.804
			c0,0-11.288,3.763-18.6,19.888c-1.999,4.409-12.855,5.191-13.976,14.236c-0.579,4.669-4.034,8.409-8.685,9.122
			c-11.584,1.775-29.436,7.791-32.292,27.903c-2.18,15.351,5.646,21.172,13.859,23.187c6.032,1.48,10.041,7.347,8.821,13.437
			c-1.17,5.841,0.575,12.594,10.694,17.934c22.677,11.966,45.325-28.349,45.325-28.349l4.641-70.392L155.281,456.804z"/>
		
			<linearGradient id="SVGID_00000142161622065028266840000003354896820672691588_" gradientUnits="userSpaceOnUse" x1="-4009.1956" y1="42.7474" x2="-3974.1267" y2="122.5369" gradientTransform="matrix(-0.9776 -0.2106 -0.2106 0.9776 -3703.3242 -410.4197)">
			<stop  offset="0" style="stop-color:#F9B776"/>
			<stop  offset="1" style="stop-color:#F47960"/>
		</linearGradient>
		<path style="fill:url(#SVGID_00000142161622065028266840000003354896820672691588_);" d="M228.158,454.62
			c0,0-28.249,44.683-61.841,53.313c0,0,6.546,18.643,11.598,20.776c0,0,41.327-34.483,51.948-67.74L228.158,454.62z"/>
		
			<linearGradient id="SVGID_00000139268891715702159640000012586105760043796898_" gradientUnits="userSpaceOnUse" x1="-3768.4683" y1="744.2695" x2="-3752.3716" y2="744.2695" gradientTransform="matrix(-1 0 0 1 -3675.4333 0)">
			<stop  offset="0" style="stop-color:#2B3582"/>
			<stop  offset="1" style="stop-color:#150E42"/>
		</linearGradient>
		<path style="fill:url(#SVGID_00000139268891715702159640000012586105760043796898_);" d="M93.016,740.409l-0.916,7.527
			c-0.174,1.428-1.298,2.557-2.727,2.72c-2.413,0.276-6.285,0.558-10.073,0.158c-1.663-0.176-2.742-1.86-2.236-3.453
			c0.924-2.906,2.613-7.267,5.049-9.834h8.35C92.006,737.526,93.202,738.877,93.016,740.409z"/>
		
			<linearGradient id="SVGID_00000136383269573144648790000004227529770835950247_" gradientUnits="userSpaceOnUse" x1="-3836.4844" y1="807.7455" x2="-3813.3203" y2="537.015" gradientTransform="matrix(-1 0 0 1 -3675.4333 0)">
			<stop  offset="0" style="stop-color:#F9B776"/>
			<stop  offset="1" style="stop-color:#F47960"/>
		</linearGradient>
		<path style="fill:url(#SVGID_00000136383269573144648790000004227529770835950247_);" d="M158.411,652.24l1.409,8.29
			c0,0-4.719,47.802-5.559,66.923c-0.132,2.998,0.644,5.96,2.217,8.515l8.206,13.326l-20.856-12.307l-0.415-2.545l3.414-4.694
			l-4.472-53.551c-0.263-3.146,0.386-6.301,1.87-9.087l4.314-8.104L158.411,652.24z"/>
		
			<linearGradient id="SVGID_00000179647630959273299880000003034878620574399899_" gradientUnits="userSpaceOnUse" x1="-3843.2515" y1="741.3307" x2="-3817.2061" y2="741.3307" gradientTransform="matrix(-1 0 0 1 -3675.4333 0)">
			<stop  offset="0" style="stop-color:#2B3582"/>
			<stop  offset="1" style="stop-color:#150E42"/>
		</linearGradient>
		<path style="fill:url(#SVGID_00000179647630959273299880000003034878620574399899_);" d="M166.058,751.224h-6.655
			c-1.246,0-2.421-0.572-3.18-1.559c-2.075-2.696-6.373-7.956-8.429-8.093c-2.767-0.185-2.413,9.652-2.413,9.652h-1.551
			l-1.965-12.224c-0.494-3.076,1.035-6.122,3.797-7.564l0,0c0,0,0.632,4.678,4.062,6.747c3.43,2.069,13.957,9.479,13.957,9.479
			s1.289-0.184,2.705,0.072C168.485,748.115,168.192,751.224,166.058,751.224z"/>
		
			<linearGradient id="SVGID_00000016798017060105014330000011581915332246459803_" gradientUnits="userSpaceOnUse" x1="-3789.8884" y1="811.7739" x2="-3766.7183" y2="540.9719" gradientTransform="matrix(-1 0 0 1 -3675.4333 0)">
			<stop  offset="0" style="stop-color:#F9B776"/>
			<stop  offset="1" style="stop-color:#F47960"/>
		</linearGradient>
		<path style="fill:url(#SVGID_00000016798017060105014330000011581915332246459803_);" d="M129.846,656.177
			c0,0-27.647,52.444-32.042,64.417c-4.395,11.974-5.934,21.962-5.993,22.909c-0.092,1.478-1.93,2.895-6.998,2.895
			c-2.615,0-3.896-1.048-4.523-2.063c-0.535-0.865-0.563-1.949-0.112-2.861c1.599-3.236,6.674-13.58,8.554-18.271
			c2.244-5.601,7.071-30.984,9.719-39.809c2.647-8.825,5.64-18.399,17.169-27.217C115.62,656.177,123.534,648.425,129.846,656.177z"
			/>
		
			<linearGradient id="SVGID_00000164513541659966871730000008138381069564455609_" gradientUnits="userSpaceOnUse" x1="179.7004" y1="511.7445" x2="123.8888" y2="590.7395">
			<stop  offset="0" style="stop-color:#53D8FF"/>
			<stop  offset="1" style="stop-color:#3840F7"/>
		</linearGradient>
		<path style="fill:url(#SVGID_00000164513541659966871730000008138381069564455609_);" d="M147.311,570.245
			c7.132-30.22-10.935-47.312-10.935-47.312c11.4-10.942,32.17-15.922,32.17-15.922s19.819,14.49,17.468,25.831
			c-1.378,6.647-13.931,39.816-13.931,39.816S160.475,578.152,147.311,570.245z"/>
		
			<linearGradient id="SVGID_00000064334080416074378260000012238475155291091072_" gradientUnits="userSpaceOnUse" x1="183.2497" y1="559.686" x2="116.6028" y2="671.1473">
			<stop  offset="0.2773" style="stop-color:#FDF53F"/>
			<stop  offset="1" style="stop-color:#D93C65"/>
		</linearGradient>
		<path style="fill:url(#SVGID_00000064334080416074378260000012238475155291091072_);" d="M131.499,585.206
			c2.902-8.744,15.812-14.961,15.812-14.961c13.164,7.906,24.772,2.413,24.772,2.413s2.603,9.95,0.806,19.197
			c-1.797,9.247-13.069,68.674-13.069,68.674c-17.761,3.599-45.078-3.621-45.078-3.621
			C126.055,636.822,128.596,593.95,131.499,585.206z"/>
		
			<linearGradient id="SVGID_00000030469126546982742610000009836619549395593093_" gradientUnits="userSpaceOnUse" x1="-3839.0249" y1="540.886" x2="-3834.6736" y2="509.0529" gradientTransform="matrix(-1 0 0 1 -3675.4333 0)">
			<stop  offset="0" style="stop-color:#F9B776"/>
			<stop  offset="1" style="stop-color:#F47960"/>
		</linearGradient>
		<path style="fill:url(#SVGID_00000030469126546982742610000009836619549395593093_);" d="M155.589,487.042l-5.798,26.044
			c-0.555,2.294,1.536,1.919,3.856,1.481c3.798-0.716,8.694-2.191,10.33-5.146c0.167-0.301,0.25-0.641,0.297-0.981l2.491-18.06
			c0.198-1.433-0.577-2.823-1.899-3.41l-4.807-2.131C158.207,484.018,156.065,485.074,155.589,487.042z"/>
		<g>
			
				<linearGradient id="SVGID_00000039091634493773021950000015533046330652510867_" gradientUnits="userSpaceOnUse" x1="-3972.4146" y1="103.5653" x2="-3934.4475" y2="35.9968" gradientTransform="matrix(-0.9809 -0.1943 -0.1943 0.9809 -3705.0791 -370.8776)">
				<stop  offset="0" style="stop-color:#F9B776"/>
				<stop  offset="1" style="stop-color:#F47960"/>
			</linearGradient>
			<path style="fill:url(#SVGID_00000039091634493773021950000015533046330652510867_);" d="M166.695,463.299
				c0,0,6.173,4.178,8.825,14.82c2.652,10.641-1.658,14.458-6.077,14.224c-4.419-0.234-10.825-1.6-16.376-9.234
				C147.517,475.475,158.606,458.194,166.695,463.299z"/>
			
				<linearGradient id="SVGID_00000124869123672099231520000013261774259577624460_" gradientUnits="userSpaceOnUse" x1="-3964.2495" y1="44.724" x2="-3945.2659" y2="92.3435" gradientTransform="matrix(-0.9809 -0.1943 -0.1943 0.9809 -3705.0791 -370.8776)">
				<stop  offset="0" style="stop-color:#2B3582"/>
				<stop  offset="1" style="stop-color:#150E42"/>
			</linearGradient>
			<path style="fill:url(#SVGID_00000124869123672099231520000013261774259577624460_);" d="M158.665,478.817
				c0,0-2.262-15.248,10.398-12.915l2.56,2.665c0,0,6.196-6.978-0.661-12.253c-6.857-5.275-16.373-3.924-21.638,5.679
				c-5.265,9.603-7.175,16.351-2.763,22.319c4.413,5.967,7.732,0.849,7.732,0.849s-2.024-5.165-0.344-7.381
				c1.679-2.216,3.846,1.289,3.846,1.289L158.665,478.817z"/>
			
				<linearGradient id="SVGID_00000177459382472890381380000017014159898139582865_" gradientUnits="userSpaceOnUse" x1="-3964.3328" y1="108.1068" x2="-3926.3662" y2="40.5388" gradientTransform="matrix(-0.9809 -0.1943 -0.1943 0.9809 -3705.0791 -370.8776)">
				<stop  offset="0" style="stop-color:#F9B776"/>
				<stop  offset="1" style="stop-color:#F47960"/>
			</linearGradient>
			<path style="fill:url(#SVGID_00000177459382472890381380000017014159898139582865_);" d="M156.935,480.123
				c0,0-1.117-7.845-5.123-5.602c-4.007,2.243,1.444,7.328,3.629,9.059L156.935,480.123z"/>
		</g>
		<g>
			
				<linearGradient id="SVGID_00000028293028347034942720000005608960671003379334_" gradientUnits="userSpaceOnUse" x1="-4016.1257" y1="45.7935" x2="-3981.0569" y2="125.583" gradientTransform="matrix(-0.9776 -0.2106 -0.2106 0.9776 -3703.3242 -410.4197)">
				<stop  offset="0" style="stop-color:#F9B776"/>
				<stop  offset="1" style="stop-color:#F47960"/>
			</linearGradient>
			<path style="fill:url(#SVGID_00000028293028347034942720000005608960671003379334_);" d="M227.964,463.818
				c0.086,0.922-3.342,1.559-4.433-2.371c0.3-1.706,0.832-9.176,2.14-10.337c6.967-6.181,19.389-13.135,19.389-13.135
				c1.39,2.121-0.433,3.518-0.433,3.518l-6.201,4.185c0.647,2.143,1.591,4.037,1.698,6.483c0.081,1.852-0.603,3.666-1.833,5.071
				c-1.234,1.41-2.896,3.231-4.393,4.613C231.063,464.462,227.964,463.818,227.964,463.818z"/>
			
				<linearGradient id="SVGID_00000092439352354417869760000004516718117837537939_" gradientUnits="userSpaceOnUse" x1="227.3062" y1="454.3975" x2="236.7266" y2="454.3975">
				<stop  offset="0" style="stop-color:#F9B776"/>
				<stop  offset="1" style="stop-color:#F47960"/>
			</linearGradient>
			<path style="fill:url(#SVGID_00000092439352354417869760000004516718117837537939_);" d="M231.321,460.768l-0.925-0.379
				c0.126-0.308,3.101-7.537,4.539-9.039c0.549-0.573,0.814-1.065,0.79-1.463c-0.014-0.219-0.122-0.435-0.328-0.653l-5.03,2.689
				l-2.218,3.474l-0.843-0.539l2.358-3.692l5.867-3.137l0.258,0.21c0.592,0.483,0.897,1.003,0.934,1.588
				c0.043,0.696-0.306,1.422-1.065,2.216C234.572,453.176,232.16,458.726,231.321,460.768z"/>
		</g>
		
			<linearGradient id="SVGID_00000144308807619377147370000014275529798493957773_" gradientUnits="userSpaceOnUse" x1="72.2954" y1="565.486" x2="149.5716" y2="565.486">
			<stop  offset="0" style="stop-color:#F9B776"/>
			<stop  offset="1" style="stop-color:#F47960"/>
		</linearGradient>
		<path style="fill:url(#SVGID_00000144308807619377147370000014275529798493957773_);" d="M136.376,522.933
			c0,0-32.099,65.905-43.724,71.666c0,0-11.803,1.233-19.026,3.418c-1.817,0.55-1.756,3.13,0.075,3.629
			c5.03,1.372,13.364,2.518,21.002-1.628c0,0-4.103,6.15-1.71,8.546c0,0,5.47-6.494,7.522-8.546
			c1.806-1.806,34.677-37.643,48.497-59.256c1.117-1.746,0.342-6.936-0.434-8.858C146.794,527.483,142.833,520.421,136.376,522.933z
			"/>
		<path style="opacity:0.44;fill:#FFFFFF;" d="M160.688,457.654c-2.716,0.894-5.141,2.525-7.344,4.326
			c-2.209,1.813-4.124,3.969-5.739,6.313c-1.614,2.348-2.912,4.91-3.814,7.607c-0.451,1.349-0.807,2.721-1.07,4.124
			c-0.269,1.405-0.494,2.845-0.928,4.264c-0.423,1.411-1.117,2.823-2.187,3.914c-1.049,1.104-2.333,1.899-3.615,2.591
			c-1.287,0.69-2.597,1.286-3.825,1.981c-1.234,0.681-2.355,1.512-3.357,2.488c-2.007,1.949-3.454,4.431-4.187,7.138
			c-0.39,1.361-0.688,2.785-1.205,4.187c-0.503,1.394-1.314,2.787-2.52,3.769c-1.186,0.998-2.613,1.596-4.03,2.007
			c-1.425,0.407-2.865,0.648-4.281,0.892c-2.824,0.449-5.569,1.188-8.188,2.291c-5.189,2.191-9.945,5.865-12.497,10.92
			c-1.265,2.504-1.868,5.354-1.504,8.136c0.377,2.761,1.591,5.476,3.664,7.363c1.028,0.942,2.248,1.683,3.588,2.071
			c1.344,0.381,2.782,0.431,4.168,0.198c2.765-0.431,5.418-2.198,6.462-4.867l0.234,0.087c-1.02,2.795-3.743,4.703-6.617,5.216
			c-1.443,0.275-2.952,0.259-4.39-0.113c-1.44-0.381-2.761-1.143-3.873-2.119c-2.241-1.973-3.547-4.826-3.984-7.735
			c-0.423-2.939,0.181-5.978,1.476-8.618c1.289-2.657,3.19-4.981,5.426-6.878c2.233-1.908,4.779-3.412,7.463-4.566
			c2.686-1.146,5.537-1.923,8.396-2.39c1.418-0.25,2.823-0.494,4.167-0.884c1.337-0.394,2.619-0.949,3.641-1.819
			c1.032-0.857,1.741-2.025,2.219-3.328c0.488-1.3,0.791-2.701,1.198-4.105c0.784-2.848,2.346-5.511,4.485-7.563
			c1.063-1.03,2.281-1.921,3.571-2.625c1.282-0.717,2.599-1.308,3.852-1.975c1.248-0.665,2.445-1.41,3.389-2.397
			c0.966-0.965,1.602-2.2,2.023-3.532c0.428-1.332,0.67-2.742,0.96-4.159c0.285-1.423,0.672-2.84,1.152-4.214
			c0.962-2.754,2.323-5.357,4.004-7.732c1.704-2.354,3.704-4.501,5.989-6.289c2.279-1.775,4.763-3.366,7.555-4.214L160.688,457.654z
			"/>
		<path style="opacity:0.44;fill:#FFFFFF;" d="M145.39,477.372c-0.085,1.854-0.189,3.719-0.528,5.567
			c-0.331,1.842-0.867,3.695-1.868,5.349c-0.979,1.676-2.515,2.974-4.059,4.013c-1.557,1.049-3.061,2.057-4.436,3.256
			c-2.739,2.359-5.036,5.294-5.755,8.808c-0.824,3.481-0.594,7.349-2.154,11.024c-0.793,1.819-2.115,3.388-3.651,4.577
			c-1.54,1.2-3.279,2.074-5.068,2.733c-3.606,1.298-7.334,1.757-10.903,2.563c-3.536,0.796-7.073,2.139-9.574,4.747
			c-1.212,1.285-2.283,2.876-2.308,4.648c-0.021,1.782,0.803,3.504,1.613,5.152l-0.22,0.119c-0.92-1.591-1.892-3.288-1.965-5.268
			c-0.032-0.98,0.226-1.965,0.65-2.832c0.422-0.873,0.977-1.663,1.606-2.39c2.601-2.892,6.306-4.395,9.915-5.327
			c3.629-0.966,7.334-1.399,10.712-2.682c3.342-1.25,6.491-3.406,7.852-6.63c1.434-3.213,1.287-7.021,2.175-10.745
			c0.436-1.873,1.245-3.705,2.369-5.268c1.104-1.585,2.472-2.947,3.947-4.133c2.869-2.495,6.633-3.739,8.54-6.814
			c1.003-1.483,1.611-3.229,2.021-5.012c0.409-1.789,0.624-3.631,0.838-5.473L145.39,477.372z"/>
	</g>
	<g>
		
			<linearGradient id="SVGID_00000009548399986959687860000011124131455106244515_" gradientUnits="userSpaceOnUse" x1="-431.3409" y1="618.1122" x2="-490.0071" y2="711.3765" gradientTransform="matrix(-1 0 0 1 539.4083 0)">
			<stop  offset="0" style="stop-color:#CB236D"/>
			<stop  offset="1" style="stop-color:#4C246D"/>
		</linearGradient>
		<path style="fill:url(#SVGID_00000009548399986959687860000011124131455106244515_);" d="M1082.478,580.937
			c0,0,22.149,12.269,23.981,33.035c1.832,20.765,0.152,106.953-44.261,128.167c-44.413,21.213-103.202,16.324-125.704,14.005
			c-22.503-2.319-34.98-17.612-37.767-28.142c-2.787-10.53-7.289-49.755,16.384-62.408c23.673-12.653,48.536-32.037,73.38-50.912
			C1013.335,595.806,1055.913,564.994,1082.478,580.937z"/>
		
			<linearGradient id="SVGID_00000163795274265000129440000012358674239272509839_" gradientUnits="userSpaceOnUse" x1="-376.6427" y1="684.4413" x2="-354.9718" y2="707.0754" gradientTransform="matrix(-1 0 0 1 539.4083 0)">
			<stop  offset="0" style="stop-color:#2B3582"/>
			<stop  offset="1" style="stop-color:#150E42"/>
		</linearGradient>
		<path style="fill:url(#SVGID_00000163795274265000129440000012358674239272509839_);" d="M922.091,672.752
			c0,0,5.978,0.316,6.711,12.615c0,0-13.862,12.426-32.586,15.384c-1.406,0.222,1.965-9.596,2.472-10.926
			C901.1,683.497,908.693,679.421,922.091,672.752z"/>
		
			<linearGradient id="SVGID_00000152952719509095942920000000053333445927742127_" gradientUnits="userSpaceOnUse" x1="-410.0908" y1="661.9896" x2="-387.5268" y2="576.9989" gradientTransform="matrix(-1 0 0 1 539.4083 0)">
			<stop  offset="0" style="stop-color:#53D8FF"/>
			<stop  offset="1" style="stop-color:#3840F7"/>
		</linearGradient>
		<path style="fill:url(#SVGID_00000152952719509095942920000000053333445927742127_);" d="M989.414,658.291h-12.615
			c0,0-38.718-42.76-64.111-47.074c0,0-17.677,22.564,0.941,64.724c1.498,3.392,5.687,4.898,8.811,2.903
			c0.935-0.597,1.606-1.397,2.013-2.4l-1.497-35.998c0,0,33.026,28.885,38.767,34.46
			C967.464,680.48,996.643,677.082,989.414,658.291z"/>
		
			<linearGradient id="SVGID_00000044879177072015836950000007525751267516428452_" gradientUnits="userSpaceOnUse" x1="-347.8951" y1="741.2527" x2="-306.9038" y2="771.3381" gradientTransform="matrix(-1 0 0 1 539.4083 0)">
			<stop  offset="0" style="stop-color:#2B3582"/>
			<stop  offset="1" style="stop-color:#150E42"/>
		</linearGradient>
		<path style="fill:url(#SVGID_00000044879177072015836950000007525751267516428452_);" d="M867.457,748.068
			c5.286-4.632,13.709-9.83,25.868-11.32l4.112,2.515c0,0-2.622,3.868-7.412,7.953c-4.403,2.557-11.201,6.021-16.837,6.771
			C867.708,754.717,866.9,751.406,867.457,748.068z"/>
		
			<linearGradient id="SVGID_00000144304943406792198990000011177070839650305703_" gradientUnits="userSpaceOnUse" x1="-328.3079" y1="725.252" x2="-414.5523" y2="654.8024" gradientTransform="matrix(-1 0 0 1 539.4083 0)">
			<stop  offset="0" style="stop-color:#FDF53F"/>
			<stop  offset="0.6645" style="stop-color:#E57A58"/>
			<stop  offset="1" style="stop-color:#D93C65"/>
		</linearGradient>
		<path style="fill:url(#SVGID_00000144304943406792198990000011177070839650305703_);" d="M898.688,689.825
			c3.257,1.054,4.689,5.668,12.953,2.617c7.995-2.952,13.938-6.758,16.996-8.954c0.068,0.595,0.126,1.216,0.165,1.879
			c0,0-14.615,13.902-33.34,16.859c-1.406,0.222-2.52-1.181-2.013-2.511C894.359,697.328,895.998,693.709,898.688,689.825z"/>
		
			<linearGradient id="SVGID_00000147922203017659412000000007295582776156035227_" gradientUnits="userSpaceOnUse" x1="-304.9131" y1="775.765" x2="-391.1573" y2="705.3156" gradientTransform="matrix(-1 0 0 1 539.4083 0)">
			<stop  offset="0" style="stop-color:#FDF53F"/>
			<stop  offset="0.6645" style="stop-color:#E57A58"/>
			<stop  offset="1" style="stop-color:#D93C65"/>
		</linearGradient>
		<path style="fill:url(#SVGID_00000147922203017659412000000007295582776156035227_);" d="M863.475,752.023
			c1.042-1.184,2.372-2.545,3.982-3.956c-0.557,3.338,0.251,6.649,5.731,5.92c5.636-0.751,12.434-4.214,16.837-6.771
			c-5.518,4.706-13.914,9.701-24.51,9.408C863.161,756.559,861.919,753.791,863.475,752.023z"/>
		
			<linearGradient id="SVGID_00000149367547785020222450000012044777880251471283_" gradientUnits="userSpaceOnUse" x1="-347.3062" y1="684.1898" x2="-433.0493" y2="716.5315" gradientTransform="matrix(-1 0 0 1 539.4083 0)">
			<stop  offset="0" style="stop-color:#53D8FF"/>
			<stop  offset="1" style="stop-color:#3840F7"/>
		</linearGradient>
		<path style="fill:url(#SVGID_00000149367547785020222450000012044777880251471283_);" d="M988.952,667.418l-59.073,0.64
			c0,0-33.735,27.911-39.854,70.471c0,0-1.016,3.13,5.082,3.666c0,0,20.396-13.321,33.695-36.873
			c16.307-28.878,48.612-15.879,48.612-15.879c10.615-7.653,25.614-9.211,36.914-11.761L988.952,667.418z"/>
		
			<linearGradient id="SVGID_00000038393069658938235930000017054355208157380784_" gradientUnits="userSpaceOnUse" x1="-414.121" y1="630.0638" x2="-441.9499" y2="663.1576" gradientTransform="matrix(-1 0 0 1 539.4083 0)">
			<stop  offset="0" style="stop-color:#F9B776"/>
			<stop  offset="1" style="stop-color:#F47960"/>
		</linearGradient>
		<path style="fill:url(#SVGID_00000038393069658938235930000017054355208157380784_);" d="M987.557,619.832
			c0,0-6.359,31.87-37.518,44.479l-11.083-1.306l-2.615,4.17l25.999,0.828c0,0,22.224-8.802,33.998-32.787
			C996.726,634.423,1003.209,621.035,987.557,619.832z"/>
		
			<linearGradient id="SVGID_00000069363346804953470150000014444229562306902941_" gradientUnits="userSpaceOnUse" x1="-492.3832" y1="568.7404" x2="-447.7957" y2="725.1685" gradientTransform="matrix(-1 0 0 1 539.4083 0)">
			<stop  offset="0" style="stop-color:#FDF53F"/>
			<stop  offset="0.6645" style="stop-color:#E57A58"/>
			<stop  offset="1" style="stop-color:#D93C65"/>
		</linearGradient>
		<path style="fill:url(#SVGID_00000069363346804953470150000014444229562306902941_);" d="M984.149,666.898
			c0,0,7.232-19.658,8.786-38.758c0,0-5.29-4.547-8.597-6.508c-1.071-0.635-1.475-1.979-0.934-3.1
			c2.431-5.036,17.134-24.812,18.235-25.087c5.986-1.494,30.537-13.167,47.827,10.484c7.421,10.15-1.473,41.396-35.138,73.755
			l-6.945,1.328L984.149,666.898z"/>
		
			<linearGradient id="SVGID_00000020357171744604820930000006069397818152511135_" gradientUnits="userSpaceOnUse" x1="-446.5706" y1="660.1752" x2="-390.9451" y2="584.0764" gradientTransform="matrix(-1 0 0 1 539.4083 0)">
			<stop  offset="0" style="stop-color:#F9B776"/>
			<stop  offset="1" style="stop-color:#F47960"/>
		</linearGradient>
		<path style="fill:url(#SVGID_00000020357171744604820930000006069397818152511135_);" d="M1012.015,632.446
			c0,0-20.092,23.79-45.779,27.268c0,0-6.639-6.052-11.575-3.892c-4.936,2.161-11.705,11.699-11.705,11.699h32.983
			c0,0,31.187-1.099,46.77-20.01C1021.454,640.894,1017.699,636.941,1012.015,632.446z"/>
		
			<linearGradient id="SVGID_00000076581037676145769050000007401643031907811507_" gradientUnits="userSpaceOnUse" x1="-480.5983" y1="597.1123" x2="-478.5494" y2="578.6719" gradientTransform="matrix(-1 0 0 1 539.4083 0)">
			<stop  offset="0" style="stop-color:#F9B776"/>
			<stop  offset="1" style="stop-color:#F47960"/>
		</linearGradient>
		<path style="fill:url(#SVGID_00000076581037676145769050000007401643031907811507_);" d="M1023.736,576.758l4.396,14.662
			c0.201,0.672-0.047,1.399-0.626,1.796c-2.117,1.45-7.648,4.332-15.237,1.531c-0.868-0.32-1.462-1.131-1.538-2.053l-1.042-12.773
			L1023.736,576.758z"/>
		<g>
			
				<linearGradient id="SVGID_00000057844992736060312360000014612098715316035211_" gradientUnits="userSpaceOnUse" x1="-469.67" y1="581.0268" x2="-478.701" y2="551.2403" gradientTransform="matrix(-1 0 0 1 539.4083 0)">
				<stop  offset="0" style="stop-color:#F9B776"/>
				<stop  offset="1" style="stop-color:#F47960"/>
			</linearGradient>
			<path style="fill:url(#SVGID_00000057844992736060312360000014612098715316035211_);" d="M997.994,564.883
				c0,0,2.161,15.199,8,19.873c5.839,4.674,17.214,1.155,21.056-10.303l-7.655-19.591L997.994,564.883z"/>
			
				<linearGradient id="SVGID_00000010309555839765612700000011504328895263681958_" gradientUnits="userSpaceOnUse" x1="-477.8195" y1="526.3339" x2="-469.4231" y2="574.2247" gradientTransform="matrix(-1 0 0 1 539.4083 0)">
				<stop  offset="0" style="stop-color:#2B3582"/>
				<stop  offset="1" style="stop-color:#150E42"/>
			</linearGradient>
			<path style="fill:url(#SVGID_00000010309555839765612700000011504328895263681958_);" d="M1020.257,567.539
				c-0.444,0.143-0.909-0.142-0.978-0.603c-0.211-1.403-0.737-4.18-1.802-6.071c0,0,0.557-1.994-5.039,1.018
				c-5.597,3.012-14.003,7.437-18.952,4.802c-4.825-2.569-9.713-15.498,3.039-13.103c0.485,0.091,0.931-0.295,0.895-0.788
				c-0.157-2.125,0.054-7.014,5.005-8.583c4.633-1.468,7.169,0.623,8.214,1.885c0.308,0.371,0.878,0.364,1.171-0.019
				c1.388-1.812,5.157-5.668,10.705-3.223c4.57,2.014,5.281,4.829,5.205,6.583c-0.024,0.568,0.552,0.953,1.069,0.715
				c1.4-0.645,3.651-0.98,5.807,1.722c2.981,3.736-1.279,6.975-2.557,7.824c-0.209,0.139-0.34,0.37-0.341,0.621
				c-0.012,1.943-0.314,10.416-4.562,15.196c-0.368,0.414-1.047,0.292-1.262-0.218l-3.27-7.791
				c-0.152-0.362-0.555-0.547-0.929-0.427L1020.257,567.539z"/>
			
				<linearGradient id="SVGID_00000119825722043563486840000008323788037284907158_" gradientUnits="userSpaceOnUse" x1="-479.0242" y1="583.863" x2="-488.0552" y2="554.0765" gradientTransform="matrix(-1 0 0 1 539.4083 0)">
				<stop  offset="0" style="stop-color:#F9B776"/>
				<stop  offset="1" style="stop-color:#F47960"/>
			</linearGradient>
			<path style="fill:url(#SVGID_00000119825722043563486840000008323788037284907158_);" d="M1020.188,569.121
				c0,0,1.997-8.133,5.03-5.492c3.033,2.641-0.791,8.453-4.266,9.56L1020.188,569.121z"/>
		</g>
		
			<linearGradient id="SVGID_00000030476074287263915200000013736871874734563499_" gradientUnits="userSpaceOnUse" x1="-405.2073" y1="642.9581" x2="-362.8791" y2="642.9581" gradientTransform="matrix(-1 0 0 1 539.4083 0)">
			<stop  offset="0" style="stop-color:#2B3582"/>
			<stop  offset="1" style="stop-color:#150E42"/>
		</linearGradient>
		<path style="fill:url(#SVGID_00000030476074287263915200000013736871874734563499_);" d="M944.616,669.367l-14.809-49.387
			c-0.604-2.015-2.394-3.444-4.493-3.588l-19.994-1.368c-2.032-0.139-3.544,1.846-2.869,3.768l16.555,47.164
			c0.533,1.519,1.897,2.593,3.5,2.755l19.689,2.187L944.616,669.367z"/>
		
			<linearGradient id="SVGID_00000145737957032899064640000006809480331388706954_" gradientUnits="userSpaceOnUse" x1="-369.7195" y1="625.007" x2="-395.4801" y2="651.1437" gradientTransform="matrix(-1 0 0 1 539.4083 0)">
			<stop  offset="0" style="stop-color:#FDF53F"/>
			<stop  offset="1" style="stop-color:#D93C65"/>
		</linearGradient>
		<path style="fill:url(#SVGID_00000145737957032899064640000006809480331388706954_);" d="M917.303,636.719
			c1.106,2.232,3.015,3.539,4.265,2.92c1.25-0.619,1.367-2.93,0.261-5.162c-1.106-2.232-3.015-3.539-4.265-2.92
			C916.315,632.176,916.198,634.487,917.303,636.719z"/>
		
			<linearGradient id="SVGID_00000158722236850458602600000002110958275872451241_" gradientUnits="userSpaceOnUse" x1="-400.0699" y1="661.4609" x2="-433.9157" y2="670.7371" gradientTransform="matrix(-1 0 0 1 539.4083 0)">
			<stop  offset="0" style="stop-color:#2B3582"/>
			<stop  offset="1" style="stop-color:#150E42"/>
		</linearGradient>
		<path style="fill:url(#SVGID_00000158722236850458602600000002110958275872451241_);" d="M942.194,670.899
			c0.032,0,0.064-0.001,0.097-0.003l41.953-2.12c1.037-0.052,1.835-0.935,1.783-1.973c-0.052-1.037-0.939-1.853-1.973-1.783
			l-41.953,2.12c-1.037,0.052-1.835,0.935-1.783,1.972C940.369,670.118,941.2,670.899,942.194,670.899z"/>
		<path style="fill:#E78456;" d="M992.935,628.639c-0.275,0-0.499-0.223-0.5-0.498c-0.029-8.886,3.387-20.637,3.421-20.754
			c0.078-0.265,0.355-0.413,0.621-0.339c0.265,0.077,0.417,0.355,0.339,0.62c-0.034,0.116-3.41,11.729-3.381,20.469
			c0.001,0.276-0.222,0.501-0.499,0.502C992.936,628.639,992.935,628.639,992.935,628.639z"/>
		<path style="fill:#E78456;" d="M1012.015,632.946c-0.108,0-0.218-0.035-0.31-0.107c-0.216-0.171-0.253-0.485-0.082-0.702
			c0.092-0.116,9.192-11.685,12.301-19.564c0.102-0.257,0.393-0.387,0.649-0.281c0.257,0.102,0.383,0.392,0.282,0.648
			c-3.164,8.017-12.069,19.339-12.447,19.816C1012.309,632.881,1012.163,632.946,1012.015,632.946z"/>
		<path style="fill:#E78456;" d="M1024.869,650.821l-1.757-2.484c-0.16-0.226-0.106-0.538,0.12-0.697
			c0.225-0.16,0.538-0.105,0.697,0.119l1.288,1.822c12.785-5.7,20.693-20.989,20.772-21.145c0.125-0.245,0.424-0.346,0.672-0.218
			c0.246,0.125,0.344,0.427,0.218,0.673c-0.082,0.159-8.308,16.063-21.639,21.771L1024.869,650.821z"/>
	</g>
</g>
</svg>
