<?xml version="1.0" encoding="utf-8"?>
<!-- Generator: Adobe Illustrator 27.5.0, SVG Export Plug-In . SVG Version: 6.00 Build 0)  -->
<svg version="1.1" id="_x3C_Layer_x3E_" xmlns="http://www.w3.org/2000/svg" xmlns:xlink="http://www.w3.org/1999/xlink" x="0px"
	 y="0px" viewBox="0 0 2760 1840" style="enable-background:new 0 0 2760 1840;" xml:space="preserve">
<rect style="fill:#FFFFFF;" width="2760" height="1840"/>
<g>
	<g>
		<path style="fill:#CDE0FB;" d="M2601.902,1544.364l-2340.656-5.278c0,0-157.8-101.429-59.841-390.601
			c70.25-207.389,83.836-374.386,113.036-538.633c3.807-21.483,8.91-42.247,15.738-62.215
			c13.758-40.265,34.507-77.301,65.759-110.382c165.312-174.95,710.214,69.972,1187.776,0
			c477.562-69.982,936.751-104.968,1004.093,64.139c6.021,15.106,9.89,30.534,12.012,46.243c2.757,20.288,2.613,41.042,0.46,62.215
			c-14.769,145.933-124.599,311.764-36.957,479.52C2673.529,1300.309,2658.844,1473.527,2601.902,1544.364z"/>
	</g>
	<g>
		<path style="fill:#8C9DF4;" d="M2378.03,813.915h-112.61c-5.17,0-9.399-4.228-9.399-9.398v-108.69c0-5.17,4.229-9.398,9.399-9.398
			h112.61c5.17,0,9.399,4.229,9.399,9.398v108.69C2387.43,809.687,2383.2,813.915,2378.03,813.915z"/>
	</g>
	<g>
		<path style="fill:#CDE0FB;" d="M2373.151,808.393h-102.853c-4.722,0-8.585-3.863-8.585-8.585v-99.271
			c0-4.723,3.863-8.586,8.585-8.586h102.853c4.722,0,8.585,3.863,8.585,8.586v99.271
			C2381.736,804.529,2377.873,808.393,2373.151,808.393z"/>
	</g>
	<g>
		<g>
			<g>
				<path style="fill:#8C9DF4;" d="M2319.003,703.587c0-1.503,1.22-2.722,2.722-2.722c1.504,0,2.723,1.219,2.723,2.722
					c0,1.503-1.219,2.722-2.723,2.722C2320.223,706.309,2319.003,705.09,2319.003,703.587z"/>
			</g>
			<g>
				<path style="fill:#8C9DF4;" d="M2340.968,707.435c0.73-1.314,2.388-1.787,3.702-1.058c1.314,0.731,1.787,2.388,1.057,3.701
					c-0.73,1.314-2.388,1.788-3.701,1.058C2340.711,710.405,2340.237,708.749,2340.968,707.435z"/>
			</g>
			<g>
				<path style="fill:#8C9DF4;" d="M2359.785,722.385c1.264-0.816,2.948-0.452,3.764,0.811c0.815,1.264,0.451,2.948-0.813,3.763
					c-1.263,0.814-2.948,0.452-3.763-0.811C2358.158,724.885,2358.522,723.199,2359.785,722.385z"/>
			</g>
			<g>
				<path style="fill:#8C9DF4;" d="M2369.105,745.523c1.505,0,2.723,1.219,2.723,2.723s-1.218,2.722-2.723,2.722
					c-1.502,0-2.722-1.218-2.722-2.722S2367.604,745.523,2369.105,745.523z"/>
			</g>
			<g>
				<path style="fill:#8C9DF4;" d="M2364.347,772.378c1.063,1.063,1.063,2.787,0,3.849c-1.063,1.063-2.786,1.063-3.85,0
					c-1.063-1.062-1.063-2.786,0-3.849C2361.561,771.315,2363.284,771.315,2364.347,772.378z"/>
			</g>
			<g>
				<path style="fill:#8C9DF4;" d="M2347.254,789.516c1.063,1.063,1.063,2.787,0,3.85s-2.787,1.063-3.851,0
					c-1.062-1.063-1.062-2.787,0-3.85C2344.467,788.452,2346.19,788.452,2347.254,789.516z"/>
			</g>
			<g>
				<path style="fill:#8C9DF4;" d="M2319.003,798.349c0-1.503,1.22-2.721,2.722-2.721c1.504,0,2.723,1.218,2.723,2.721
					c0,1.503-1.219,2.723-2.723,2.723C2320.223,801.071,2319.003,799.852,2319.003,798.349z"/>
			</g>
		</g>
		<g>
			<g>
				<path style="fill:#8C9DF4;" d="M2302.396,707.435c-0.73-1.314-2.389-1.787-3.702-1.058c-1.314,0.731-1.786,2.388-1.058,3.701
					c0.73,1.314,2.389,1.788,3.702,1.058C2302.653,710.405,2303.127,708.749,2302.396,707.435z"/>
			</g>
			<g>
				<path style="fill:#8C9DF4;" d="M2283.578,722.385c-1.263-0.816-2.948-0.452-3.763,0.811c-0.815,1.264-0.452,2.948,0.812,3.763
					c1.264,0.814,2.947,0.452,3.763-0.811C2285.205,724.885,2284.842,723.199,2283.578,722.385z"/>
			</g>
			<g>
				<path style="fill:#8C9DF4;" d="M2274.257,745.523c-1.503,0-2.722,1.219-2.722,2.723s1.219,2.722,2.722,2.722
					s2.723-1.218,2.723-2.722S2275.76,745.523,2274.257,745.523z"/>
			</g>
			<g>
				<path style="fill:#8C9DF4;" d="M2279.016,772.378c-1.063,1.063-1.063,2.787,0,3.849c1.064,1.063,2.787,1.063,3.851,0
					c1.063-1.062,1.063-2.786,0-3.849C2281.803,771.315,2280.08,771.315,2279.016,772.378z"/>
			</g>
			<g>
				<path style="fill:#8C9DF4;" d="M2296.109,789.516c-1.063,1.063-1.063,2.787,0,3.85c1.063,1.063,2.787,1.063,3.851,0
					c1.063-1.063,1.063-2.787,0-3.85C2298.896,788.452,2297.173,788.452,2296.109,789.516z"/>
			</g>
		</g>
	</g>
	<g>
		<g>
			<path style="fill:#8C9DF4;" d="M2320.991,748.246c0-1.504,1.218-2.723,2.722-2.723s2.723,1.219,2.723,2.723
				s-1.219,2.722-2.723,2.722S2320.991,749.75,2320.991,748.246z"/>
		</g>
		<g>
			<g>
				<rect x="2323.342" y="714.24" style="fill:#8C9DF4;" width="0.744" height="34.006"/>
			</g>
		</g>
		<g>
			<g>
				
					<rect x="2320.925" y="740.006" transform="matrix(0.7866 -0.6175 0.6175 0.7866 40.185 1598.5013)" style="fill:#8C9DF4;" width="22.919" height="2.23"/>
			</g>
		</g>
	</g>
	<g>
		<path style="fill:#6980E2;" d="M2221.34,1187.637v349.815h129.732v-403.396h-76.151c-14.791,0-28.198,5.994-37.893,15.689
			C2227.334,1159.451,2221.34,1172.835,2221.34,1187.637z"/>
	</g>
	<g>
		<polygon style="fill:#8C9DF4;" points="2280.066,1134.059 2213.303,1270.925 2213.303,1537.455 2505.559,1537.455 
			2505.559,1134.059 		"/>
	</g>
	<g style="opacity:0.5;">
		<path style="fill:#DDE7FE;" d="M2236.277,1235.396l39.267-82.422c2.211-4.641,6.894-7.596,12.034-7.596h145.432l-23.669,109.081
			h-161.03C2238.513,1254.46,2232.063,1244.242,2236.277,1235.396z"/>
	</g>
	<g>
		<polygon style="fill:#8C9DF4;" points="2257.949,1233.4 2289.84,1162.743 2397.121,1160.655 2380.146,1233.4 		"/>
	</g>
	<g style="opacity:0.5;">
		<path style="fill:#6980E2;" d="M2304.633,1182.338h76.923c2.367,0,4.288-1.92,4.288-4.287c0-2.368-1.921-4.288-4.288-4.288
			h-76.923c-2.369,0-4.288,1.92-4.288,4.288C2300.345,1180.418,2302.264,1182.338,2304.633,1182.338z"/>
	</g>
	<g style="opacity:0.5;">
		<path style="fill:#6980E2;" d="M2289.841,1203.113h35.443c2.368,0,4.288-1.92,4.288-4.289c0-2.367-1.92-4.287-4.288-4.287h-35.443
			c-2.368,0-4.288,1.92-4.288,4.287C2285.553,1201.193,2287.473,1203.113,2289.841,1203.113z"/>
	</g>
	<g style="opacity:0.5;">
		<path style="fill:#6980E2;" d="M2281.994,1219h35.443c2.367,0,4.287-1.921,4.287-4.288c0-2.368-1.92-4.288-4.287-4.288h-35.443
			c-2.369,0-4.288,1.92-4.288,4.288C2277.706,1217.079,2279.625,1219,2281.994,1219z"/>
	</g>
	<g style="opacity:0.5;">
		<path style="fill:#6980E2;" d="M2352.55,1203.113h35.443c2.368,0,4.288-1.92,4.288-4.289c0-2.367-1.92-4.287-4.288-4.287h-35.443
			c-2.367,0-4.288,1.92-4.288,4.287C2348.262,1201.193,2350.183,1203.113,2352.55,1203.113z"/>
	</g>
	<g style="opacity:0.5;">
		<path style="fill:#6980E2;" d="M2344.703,1219h35.443c2.368,0,4.288-1.921,4.288-4.288c0-2.368-1.92-4.288-4.288-4.288h-35.443
			c-2.368,0-4.288,1.92-4.288,4.288C2340.415,1217.079,2342.335,1219,2344.703,1219z"/>
	</g>
	<g>
		<path style="fill:#6980E2;" d="M2375.829,1187.637v349.815h129.732v-403.396h-76.151c-14.802,0-28.186,5.994-37.893,15.689
			C2381.823,1159.451,2375.829,1172.835,2375.829,1187.637z"/>
	</g>
	<g>
		<path style="fill:#8C9DF4;" d="M2272.86,1167.311c0-2.522,2.044-4.567,4.566-4.567s4.567,2.045,4.567,4.567
			c0,2.521-2.045,4.566-4.567,4.566S2272.86,1169.832,2272.86,1167.311z"/>
	</g>
	<g>
		<circle style="fill:#8C9DF4;" cx="2266.75" cy="1193.037" r="4.566"/>
	</g>
	<g>
		<path style="fill:#8C9DF4;" d="M2250.605,1219.278c0-2.521,2.045-4.566,4.567-4.566s4.566,2.045,4.566,4.566
			c0,2.522-2.044,4.566-4.566,4.566S2250.605,1221.801,2250.605,1219.278z"/>
	</g>
	<g style="opacity:0.5;">
		
			<rect x="2229.408" y="1289.691" transform="matrix(-1 -1.224647e-16 1.224647e-16 -1 4584.9941 2614.2881)" style="fill:#DDE7FE;" width="126.178" height="34.905"/>
	</g>
	<g>
		<path style="fill:#6980E2;" d="M815.404,1187.637v349.815H685.671v-403.396h76.152c14.79,0,28.196,5.994,37.893,15.689
			C809.409,1159.451,815.404,1172.835,815.404,1187.637z"/>
	</g>
	<g>
		<polygon style="fill:#8C9DF4;" points="756.677,1134.059 823.441,1270.925 823.441,1537.455 531.184,1537.455 531.184,1134.059 		
			"/>
	</g>
	<g style="opacity:0.5;">
		<path style="fill:#DDE7FE;" d="M800.467,1235.396l-39.268-82.422c-2.211-4.641-6.893-7.596-12.034-7.596H603.733l23.669,109.081
			h161.029C798.231,1254.46,804.68,1244.242,800.467,1235.396z"/>
	</g>
	<g>
		<polygon style="fill:#8C9DF4;" points="778.794,1233.4 746.903,1162.743 639.623,1160.655 656.596,1233.4 		"/>
	</g>
	<g>
		<path style="fill:#6980E2;" d="M732.11,1182.338h-76.923c-2.367,0-4.287-1.92-4.287-4.287c0-2.368,1.92-4.288,4.287-4.288h76.923
			c2.368,0,4.288,1.92,4.288,4.288C736.398,1180.418,734.478,1182.338,732.11,1182.338z"/>
	</g>
	<g>
		<path style="fill:#6980E2;" d="M746.902,1203.113h-35.443c-2.368,0-4.288-1.92-4.288-4.289c0-2.367,1.92-4.287,4.288-4.287h35.443
			c2.367,0,4.288,1.92,4.288,4.287C751.19,1201.193,749.269,1203.113,746.902,1203.113z"/>
	</g>
	<g>
		<path style="fill:#6980E2;" d="M754.75,1219h-35.443c-2.369,0-4.289-1.921-4.289-4.288c0-2.368,1.92-4.288,4.289-4.288h35.443
			c2.368,0,4.288,1.92,4.288,4.288C759.038,1217.079,757.118,1219,754.75,1219z"/>
	</g>
	<g>
		<path style="fill:#6980E2;" d="M684.193,1203.113h-35.444c-2.367,0-4.287-1.92-4.287-4.289c0-2.367,1.92-4.287,4.287-4.287h35.444
			c2.367,0,4.288,1.92,4.288,4.287C688.481,1201.193,686.56,1203.113,684.193,1203.113z"/>
	</g>
	<g>
		<path style="fill:#6980E2;" d="M692.04,1219h-35.443c-2.368,0-4.288-1.921-4.288-4.288c0-2.368,1.92-4.288,4.288-4.288h35.443
			c2.368,0,4.288,1.92,4.288,4.288C696.328,1217.079,694.408,1219,692.04,1219z"/>
	</g>
	<g>
		<path style="fill:#6980E2;" d="M660.914,1187.637v349.815H531.182v-403.396h76.151c14.803,0,28.186,5.994,37.893,15.689
			C654.92,1159.451,660.914,1172.835,660.914,1187.637z"/>
	</g>
	<g>
		<path style="fill:#8C9DF4;" d="M763.883,1167.311c0-2.522-2.044-4.567-4.566-4.567c-2.522,0-4.566,2.045-4.566,4.567
			c0,2.521,2.045,4.566,4.566,4.566C761.839,1171.877,763.883,1169.832,763.883,1167.311z"/>
	</g>
	<g>
		<circle style="fill:#8C9DF4;" cx="769.993" cy="1193.037" r="4.566"/>
	</g>
	<g>
		<circle style="fill:#8C9DF4;" cx="781.57" cy="1219.278" r="4.566"/>
	</g>
	<g style="opacity:0.5;">
		<rect x="681.157" y="1289.691" style="fill:#DDE7FE;" width="126.178" height="34.905"/>
	</g>
	<g>
		<g>
			<rect x="899.077" y="742.059" style="fill:#E1EFFF;" width="1255.958" height="795.688"/>
		</g>
		<g>
			<path style="fill:#AFCDFB;" d="M2161.453,1544.165H892.659V735.64h1268.794V1544.165z M905.496,1531.328h1243.12V748.477H905.496
				V1531.328z"/>
		</g>
		<g>
			<rect x="899.077" y="902.671" style="fill:#AFCDFB;" width="1255.957" height="12.839"/>
		</g>
		<g>
			<g>
				<rect x="899.077" y="1114.116" style="fill:#AFCDFB;" width="362.593" height="9.939"/>
			</g>
			<g>
				<rect x="899.077" y="1315.362" style="fill:#AFCDFB;" width="362.593" height="9.939"/>
			</g>
			<g>
				<rect x="1075.404" y="909.09" style="fill:#AFCDFB;" width="9.939" height="628.657"/>
			</g>
		</g>
		<g>
			<g>
				<rect x="1792.442" y="1114.116" style="fill:#AFCDFB;" width="362.592" height="9.939"/>
			</g>
			<g>
				<rect x="1792.442" y="1315.362" style="fill:#AFCDFB;" width="362.592" height="9.939"/>
			</g>
			<g>
				<rect x="1968.769" y="909.09" style="fill:#AFCDFB;" width="9.938" height="628.657"/>
			</g>
		</g>
		<g>
			<path style="fill:#AFCDFB;" d="M1799.808,1545.112h-545.503V901.725h545.503V1545.112z M1269.036,1530.381h516.041V916.456
				h-516.041V1530.381z"/>
		</g>
		<g>
			<rect x="1521.393" y="909.09" style="fill:#AFCDFB;" width="11.327" height="628.657"/>
		</g>
		<g>
			
				<ellipse transform="matrix(0.9999 -0.0122 0.0122 0.9999 -14.8062 18.0805)" style="fill:#AFCDFB;" cx="1475.533" cy="1223.419" rx="13.207" ry="13.208"/>
		</g>
		<g>
			<path style="fill:#AFCDFB;" d="M1563.022,1223.419c0-7.295,5.913-13.208,13.208-13.208s13.207,5.913,13.207,13.208
				c0,7.294-5.912,13.208-13.207,13.208S1563.022,1230.713,1563.022,1223.419z"/>
		</g>
	</g>
	<g>
		<path style="fill:#AFCDFB;" d="M2600.279,609.852H314.441c3.807-21.483,8.91-42.247,15.738-62.215h2269.64
			C2602.576,567.926,2602.433,588.68,2600.279,609.852z"/>
	</g>
	<g>
		<g>
			<path style="fill:#8C9DF4;" d="M740.972,540.641c0,0,3.16,0.352,1.278,6.177c-1.88,5.826-14.06,36.468-14.06,36.468
				s-10.274,12.934-28.701,5.942l-4.3-8.773l6.288-21.168l5.876-17.323l13.129-2.717L740.972,540.641z"/>
		</g>
		<g>
			<g>
				<polygon style="fill:#2B478B;" points="655.268,584.784 628.609,584.784 628.609,580.052 652.031,580.052 657.556,565.854 
					661.965,567.569 				"/>
			</g>
		</g>
		<g>
			<g>
				<path style="fill:#2B478B;" d="M655.421,568.822c-1.238-5.98,2.606-11.832,8.587-13.07c5.982-1.239,11.833,2.605,13.072,8.586
					c1.237,5.981-2.607,11.834-8.588,13.071C662.512,578.648,656.659,574.803,655.421,568.822z"/>
			</g>
		</g>
		<g>
			<path style="fill:#6980E2;" d="M619.806,546.667c0,0,1.27,4.837,10.502,9.235c9.232,4.397,69.182,33.325,69.182,33.325
				s-2.904-5.731-1.404-9.372L619.806,546.667z"/>
		</g>
		<g>
			<polygon style="fill:#5270D1;" points="626.113,518.785 619.806,546.667 698.085,579.856 710.055,550.8 			"/>
		</g>
		<g>
			<path style="fill:#6980E2;" d="M626.113,518.785c0,0,12.302-10.602,25.102-8.419l89.756,30.274c0,0-18.623-1.782-30.917,10.159
				L626.113,518.785z"/>
		</g>
		<g>
			<g>
				<path style="fill:#2B478B;" d="M628.249,592.933L628.249,592.933c-3.576,0-6.474-2.898-6.474-6.473v-6.967
					c0-3.575,2.897-6.474,6.474-6.474l0,0c3.574,0,6.473,2.899,6.473,6.474v6.967C634.722,590.034,631.823,592.933,628.249,592.933z
					"/>
			</g>
		</g>
		<g>
			<path style="fill:#2B478B;" d="M727.276,570.129c-3.748,7.983-10.023,12.937-14.016,11.063c-3.991-1.873-4.188-9.866-0.441-17.85
				c3.748-7.983,10.023-12.937,14.015-11.063C730.826,554.153,731.023,562.146,727.276,570.129z"/>
		</g>
		<g>
			<path style="fill:#F77D48;" d="M736.507,549.931c-0.676,1.438-1.806,2.332-2.525,1.994c-0.72-0.338-0.755-1.778-0.08-3.217
				c0.676-1.439,1.807-2.33,2.526-1.992C737.146,547.053,737.183,548.492,736.507,549.931z"/>
		</g>
	</g>
	<g>
		<g>
			<path style="fill:#8C9DF4;" d="M548.841,731.198c0,0,3.16,0.352,1.278,6.178c-1.88,5.826-14.06,36.467-14.06,36.467
				s-10.275,12.934-28.701,5.943l-4.3-8.774l6.288-21.167l5.876-17.323l13.129-2.719L548.841,731.198z"/>
		</g>
		<g>
			<g>
				<polygon style="fill:#2B478B;" points="463.136,775.341 436.478,775.341 436.478,770.609 459.9,770.609 465.425,756.411 
					469.834,758.127 				"/>
			</g>
		</g>
		<g>
			<g>
				<path style="fill:#2B478B;" d="M463.29,759.38c-1.238-5.98,2.606-11.833,8.587-13.071c5.981-1.238,11.833,2.606,13.071,8.587
					c1.238,5.982-2.605,11.833-8.587,13.071C470.381,769.205,464.528,765.361,463.29,759.38z"/>
			</g>
		</g>
		<g>
			<path style="fill:#6980E2;" d="M427.675,737.225c0,0,1.27,4.838,10.503,9.235c9.233,4.396,69.181,33.326,69.181,33.326
				s-2.904-5.731-1.404-9.374L427.675,737.225z"/>
		</g>
		<g>
			<polygon style="fill:#5270D1;" points="433.982,709.342 427.675,737.225 505.954,770.412 517.924,741.356 			"/>
		</g>
		<g>
			<path style="fill:#6980E2;" d="M433.982,709.342c0,0,12.301-10.6,25.102-8.419l89.757,30.275c0,0-18.624-1.782-30.917,10.158
				L433.982,709.342z"/>
		</g>
		<g>
			<g>
				<path style="fill:#2B478B;" d="M436.118,783.489L436.118,783.489c-3.576,0-6.474-2.898-6.474-6.472v-6.967
					c0-3.576,2.897-6.475,6.474-6.475l0,0c3.574,0,6.473,2.898,6.473,6.475v6.967C442.591,780.592,439.692,783.489,436.118,783.489z
					"/>
			</g>
		</g>
		<g>
			<path style="fill:#2B478B;" d="M535.144,760.687c-3.747,7.983-10.022,12.936-14.015,11.063c-3.992-1.874-4.188-9.865-0.441-17.85
				c3.748-7.983,10.023-12.937,14.015-11.063C538.695,744.711,538.893,752.702,535.144,760.687z"/>
		</g>
		<g>
			<path style="fill:#F77D48;" d="M544.376,740.488c-0.676,1.439-1.806,2.331-2.525,1.993c-0.72-0.337-0.756-1.777-0.08-3.216
				c0.676-1.439,1.806-2.331,2.526-1.993C545.016,737.61,545.052,739.049,544.376,740.488z"/>
		</g>
	</g>
	<g>
		<g>
			<path style="fill:#8C9DF4;" d="M2219.069,540.641c0,0,3.16,0.352,1.28,6.177c-1.882,5.826-14.061,36.468-14.061,36.468
				s-10.275,12.934-28.702,5.942l-4.3-8.773l6.288-21.168l5.877-17.323l13.128-2.717L2219.069,540.641z"/>
		</g>
		<g>
			<g>
				<polygon style="fill:#2B478B;" points="2133.365,584.784 2106.709,584.784 2106.709,580.052 2130.129,580.052 2135.654,565.854 
					2140.063,567.569 				"/>
			</g>
		</g>
		<g>
			<g>
				<path style="fill:#2B478B;" d="M2133.52,568.822c-1.238-5.98,2.606-11.832,8.588-13.07c5.979-1.239,11.832,2.605,13.07,8.586
					c1.238,5.981-2.605,11.834-8.587,13.071C2140.61,578.648,2134.758,574.803,2133.52,568.822z"/>
			</g>
		</g>
		<g>
			<path style="fill:#6980E2;" d="M2097.904,546.667c0,0,1.27,4.837,10.502,9.235c9.232,4.397,69.181,33.325,69.181,33.325
				s-2.904-5.731-1.404-9.372L2097.904,546.667z"/>
		</g>
		<g>
			<polygon style="fill:#5270D1;" points="2104.212,518.785 2097.904,546.667 2176.183,579.856 2188.153,550.8 			"/>
		</g>
		<g>
			<path style="fill:#6980E2;" d="M2104.212,518.785c0,0,12.301-10.602,25.101-8.419l89.757,30.274c0,0-18.623-1.782-30.916,10.159
				L2104.212,518.785z"/>
		</g>
		<g>
			<g>
				<path style="fill:#2B478B;" d="M2106.347,592.933L2106.347,592.933c-3.575,0-6.474-2.898-6.474-6.473v-6.967
					c0-3.575,2.898-6.474,6.474-6.474l0,0c3.574,0,6.473,2.899,6.473,6.474v6.967
					C2112.819,590.034,2109.921,592.933,2106.347,592.933z"/>
			</g>
		</g>
		<g>
			<path style="fill:#2B478B;" d="M2205.374,570.129c-3.748,7.983-10.023,12.937-14.015,11.063
				c-3.992-1.873-4.189-9.866-0.441-17.85s10.022-12.937,14.015-11.063S2209.121,562.146,2205.374,570.129z"/>
		</g>
		<g>
			<path style="fill:#F77D48;" d="M2214.605,549.931c-0.676,1.438-1.807,2.332-2.525,1.994c-0.72-0.338-0.756-1.778-0.08-3.217
				c0.676-1.439,1.806-2.33,2.525-1.992C2215.245,547.053,2215.28,548.492,2214.605,549.931z"/>
		</g>
	</g>
	<g>
		<g>
			<g>
				<polygon style="fill:#2B478B;" points="1965.789,584.784 1992.446,584.784 1992.446,580.052 1969.024,580.052 1963.5,565.854 
					1959.091,567.569 				"/>
			</g>
		</g>
		<g>
			<g>
				<path style="fill:#2B478B;" d="M1965.635,568.822c1.238-5.98-2.606-11.832-8.587-13.07c-5.981-1.239-11.833,2.605-13.071,8.586
					c-1.238,5.981,2.605,11.834,8.587,13.071C1958.545,578.648,1964.396,574.803,1965.635,568.822z"/>
			</g>
		</g>
		<g>
			<g>
				<path style="fill:#2B478B;" d="M1992.809,592.933L1992.809,592.933c3.574,0,6.472-2.898,6.472-6.473v-6.967
					c0-3.575-2.897-6.474-6.472-6.474l0,0c-3.576,0-6.475,2.899-6.475,6.474v6.967
					C1986.334,590.034,1989.232,592.933,1992.809,592.933z"/>
			</g>
		</g>
		<g>
			<g>
				<path style="fill:#8C9DF4;" d="M1880.604,562.944c0,0-2.813,1.483,1.068,6.218c3.88,4.735,26.415,28.806,26.415,28.806
					s14.291,8.281,28.889-4.96l0.795-9.737l-13.59-17.404l-11.801-13.978l-13.214,2.268L1880.604,562.944z"/>
			</g>
			<g>
				<path style="fill:#6980E2;" d="M1995.59,524.268c0,0,0.586,4.968-6.4,12.436c-6.987,7.467-52.214,56.305-52.214,56.305
					s0.608-6.396-2.119-9.237L1995.59,524.268z"/>
			</g>
			<g>
				<polygon style="fill:#5270D1;" points="1979.527,500.62 1995.59,524.268 1934.856,583.771 1913.094,561.102 				"/>
			</g>
			<g>
				<path style="fill:#6980E2;" d="M1979.527,500.62c0,0-15.326-5.371-26.443,1.339l-72.48,60.985c0,0,16.685-8.465,32.49-1.843
					L1979.527,500.62z"/>
			</g>
			<g>
				<path style="fill:#2B478B;" d="M1904.131,585.387c6.406,6.061,14.057,8.378,17.088,5.175c3.03-3.203,0.294-10.714-6.113-16.775
					c-6.406-6.061-14.058-8.378-17.088-5.175C1894.986,571.815,1897.724,579.325,1904.131,585.387z"/>
			</g>
			<g>
				<path style="fill:#F77D48;" d="M1888.156,569.96c1.153,1.093,2.533,1.51,3.078,0.933c0.546-0.577,0.054-1.93-1.102-3.022
					c-1.153-1.093-2.533-1.51-3.078-0.933C1886.509,567.516,1887.001,568.868,1888.156,569.96z"/>
			</g>
		</g>
	</g>
	<g>
		<g id="man_1_">
			<g>
				<path style="fill:#FFB27D;" d="M1854.852,1120.027c-2.279,6.129-6.231,13.243-10.377,15.012
					c-4.702,2.005-6.662,4.838-6.662,4.838l-3.797-2.203l-4.533-2.635c0,0,0.106-0.504,0.328-1.324
					c0.219-0.815,0.559-1.953,1.02-3.214c0,0,1.391-1.787,0.539-4.034c-0.854-2.243-0.683-5.711,0.772-7.827
					c1.454-2.112,2.856-7.319,3.732-7.165c2.121,0.365-1.042,7.522-0.135,8.85c0.82,1.201,1.847,0.789,2.037,0.697
					c0.012-0.008,0.024-0.012,0.036-0.02c5.948-2.615,13.162-16.715,16.355-14.813
					C1855.361,1106.902,1855.822,1117.416,1854.852,1120.027z"/>
			</g>
			<g>
				<g>
					<path style="fill:#2B478B;" d="M1834.273,1128.563l7.451,5.236c0.527,0.37,1.26,0.241,1.63-0.284l19.088-27.161
						c0.37-0.526,0.241-1.259-0.284-1.63l-7.451-5.236c-0.527-0.369-1.26-0.242-1.63,0.284l-19.088,27.161
						C1833.619,1127.46,1833.747,1128.193,1834.273,1128.563z"/>
				</g>
				<g>
					<path style="fill:#233862;" d="M1841.096,1133.357l4.367,3.069c0.4,0.282,0.959,0.184,1.24-0.216l19.409-27.618
						c0.282-0.4,0.185-0.959-0.216-1.241l-4.368-3.069c-0.4-0.281-0.959-0.184-1.239,0.217l-19.41,27.617
						C1840.598,1132.518,1840.694,1133.075,1841.096,1133.357z"/>
				</g>
			</g>
			<g>
				<path style="fill:#94B0ED;" d="M1727.376,1089.589c0,0,37.915,66.132,51.671,78.3l50.437-37.603c0,0,7.318,2.245,10.523,9.591
					c0,0-30.627,62.4-60.783,65.045c-30.156,2.646-72.48-74.792-72.48-74.792L1727.376,1089.589z"/>
			</g>
			<g>
				<g>
					<path style="fill:#233862;" d="M1641.574,1539.383h-21.907c-2.758-1.498-5.215-4.926-5.992-10.038
						c-1.069-7.059-8.98-10.906-10.691-16.681c-1.709-5.77,7.058-13.895,7.058-13.895l1.467-1.89l1.525-1.962l14.54,3.424
						c0,0,0.36,3.464,0.579,7.875c0.158,3.183,0.241,6.859,0.063,10.085c-0.428,7.696,2.152,15.987,8.992,17.485
						C1642.264,1534.893,1642.038,1537.893,1641.574,1539.383z"/>
				</g>
				<g>
					<path style="fill:#233862;" d="M1768.715,1539.383h-50.101c-2.41-2.94-1.522-13.791-1.157-17.334
						c0.075-0.714,0.127-1.13,0.127-1.13s17.108-13.684,19.458-3.206c0.071,0.329,0.159,0.65,0.254,0.967
						c2.96,9.801,16.24,14.255,23.908,15.496C1766.189,1534.984,1768.032,1537.575,1768.715,1539.383z"/>
				</g>
				<g>
					<path style="fill:#F99746;" d="M1759.168,1259.73c0,0-2.598,32.411-5.65,71.372c-4.15,52.923-9.141,117.932-9.635,130.247
						c-0.853,21.385-4.277,55.592-4.277,55.592s-8.121,8.128-24.375,4.702c0,0-14.482-48.831-18.621-100.499
						c-0.063-0.846-0.128-1.699-0.192-2.552c-3.848-52.598-9.832-163.352-9.832-163.352L1759.168,1259.73z"/>
				</g>
				<g>
					<path style="fill:#ED7D2B;" d="M1759.168,1259.73c0,0-2.598,32.411-5.65,71.372l-56.908,90.042
						c-0.063-0.846-0.128-1.699-0.192-2.552c-3.848-52.598-9.832-163.352-9.832-163.352L1759.168,1259.73z"/>
				</g>
				<g>
					<path style="fill:#F99746;" d="M1747.305,1263.58c0,0-46.824,117.381-77.612,172.543s-40.409,70.557-40.409,70.557
						s-17.639-7.057-19.243-11.866c0,0,11.773-106.494,32.392-132.454c11.651-14.669,25.336-58.69,25.978-74.084
						c0.642-15.396,4.17-45.862,4.17-45.862L1747.305,1263.58z"/>
				</g>
			</g>
			<g>
				<path style="fill:#FFB27D;" d="M1735.648,1092.464c-18.297,5.773-49.957-9.808-49.957-9.808s16.87-12.662,15.987-38.988
					l14.147,11.401l9.61,7.743c0,0-0.04,4.565-1.091,12.566c-0.276,2.104,2.098,6.747,4.154,9.356
					C1734.047,1091.772,1735.648,1092.464,1735.648,1092.464z"/>
			</g>
			<g>
				<path style="fill:#ED975D;" d="M1725.437,1062.813c0,0-0.04,4.565-1.091,12.566c-10.648-1.826-22.727-19.037-22.727-19.037
					c5.421-1.565,10.168-1.848,14.207-1.272L1725.437,1062.813z"/>
			</g>
			<g>
				<path style="fill:#FFB27D;" d="M1731.032,1062.379c0,0-30.224,5.021-33.061-13.849c-2.838-18.869-8.648-30.93,10.527-34.933
					c19.178-4.004,24.018,2.631,26.497,8.699C1737.475,1028.365,1738.82,1060.587,1731.032,1062.379z"/>
			</g>
			<g>
				<path style="fill:#AEC3FF;" d="M1761.188,1262.431c-0.551,0.458-1.19,0.733-1.924,0.733c-6.871-0.094-26.907,3.723-43.861,1.981
					c-14.294-1.372-26.943-5.606-40.529-11.696c-1.804-0.809-5.955-3.023-5.861-5.041c0.06-2.207,0.279-5.41,0.555-9.443
					c0.961-14.021,2.638-38.141,1.004-65.966c-0.294-5.181-0.448-10.32-0.467-15.38c-0.141-37.712,7.338-70.882,22.363-82.108
					c1.284-0.919,9.163,2.932,16.402,6.503c6.689,3.3,13.378,3.664,19.698,2.385l6.321,5.588c7.697,7.146,16.127,16.86,19.791,31.61
					c3.119,12.552,4.948,35.187,5.957,58.643c0.457,10.629,0.825,21.351,0.919,31.522v0.363c0.089,1.008,0.089,2.109,0.089,3.119
					C1762.013,1241.355,1761.645,1262.063,1761.188,1262.431z"/>
			</g>
			<g>
				<path style="fill:#94B0ED;" d="M1669.566,1238.965c0.961-14.021,2.638-38.141,1.004-65.966
					c-0.294-5.181-0.448-10.32-0.467-15.38c6.259-15.185,11.375-26.196,11.375-26.196h15.777
					C1697.256,1131.423,1708.822,1210.431,1669.566,1238.965z"/>
			</g>
			<g>
				<g>
					<path style="fill:#233862;" d="M1588.747,1328.509l67.29,9.588c8.758,1.248,16.943-4.896,18.192-13.653l4.154-29.16
						c1.249-8.758-4.896-16.944-13.653-18.192l-67.29-9.588c-8.757-1.249-16.943,4.896-18.191,13.653l-4.155,29.161
						C1573.846,1319.074,1579.99,1327.261,1588.747,1328.509z"/>
				</g>
				<g>
					<path style="fill:#2B478B;" d="M1668.53,1285.784v-0.003c-1.89-4.732-5.973-8.469-11.147-9.737h-0.005
						c-0.003,0-0.007,0-0.012-0.004c-0.507-0.123-1.022-0.227-1.553-0.301l-13.398-1.907l0.896-6.293
						c0.202-1.402-0.159-2.805-1.016-3.947c-0.855-1.137-2.104-1.878-3.507-2.076l-3.495-0.499l-14.068-2.006l-2.537-0.36
						c-2.904-0.412-5.611,1.613-6.022,4.522l-0.896,6.292l-23.129-3.297c-8.789-1.252-17.005,4.914-18.261,13.704l-4.201,29.5
						c-1.253,8.79,4.914,17.006,13.704,18.258l67.168,9.574c1.185,0.171,2.358,0.203,3.504,0.111h0.004c0.004,0,0.004,0,0.008,0
						c1.839-0.139,3.606-0.599,5.243-1.323c4.938-2.18,8.687-6.785,9.503-12.496l4.204-29.496
						C1669.925,1291.123,1669.541,1288.313,1668.53,1285.784z M1615.969,1263.644c0.127-0.88,0.817-1.546,1.653-1.681
						c0.194-0.031,0.392-0.035,0.599-0.007l2.988,0.424l11.072,1.581l6.036,0.859c1.085,0.154,1.843,1.165,1.688,2.248l-0.896,6.293
						l-24.035-3.428L1615.969,1263.644z"/>
				</g>
			</g>
			<g>
				<path style="fill:#FFB27D;" d="M1639.917,1241.68c0,0-3.534,4.708-3.675,6.589c-0.949,12.748,4.876,14.512-10.205,21.592
					c0,0-6.439,2.456-6.548-2.542c-0.109-4.996,4.468-5.08,3.631-12.077c-0.966-8.071-0.868-8.147,4.429-12.362l3.509-5.798
					L1639.917,1241.68z"/>
			</g>
			<g>
				<path style="fill:#AEC3FF;" d="M1630.93,1245.288c5.682,1.108,11.841,0.659,11.841,0.659s16.867-52.105,19.038-56.864
					c2.172-4.76,50.101-61.096,50.101-61.096l-19.967-49.968c0,0-51.841,86.594-57.105,98.761
					c-8.698,20.107-11.717,65.188-11.717,65.188S1626.469,1244.419,1630.93,1245.288z"/>
			</g>
			<g>
				<path style="fill:#2B478B;" d="M1697.946,1046.715c0,0,3.102-0.519,2.602-4.791c-0.5-4.271-0.494-9.855,2.979-8.814
					s3.646,3.821,5.073,2.198c1.427-1.625,1.453-8.466,11.788-8.942c10.334-0.478,14.533,3.12,19.34,1.007
					c4.807-2.112,5.06-9.387,5.06-9.387s-1.366,2.598-3.431,3.424c0,0,8.018-10.966-1.266-18.486
					c-9.282-7.52-18.748-2.597-24.121-2.273c-11.836,0.718-19.48,1.428-23.348,9.205
					C1688.756,1017.633,1690.352,1039.229,1697.946,1046.715z"/>
			</g>
			<g>
				<path style="fill:#FFB27D;" d="M1634.342,1247.286c0,0,3.404,3.548,3.618,5.022c0.689,4.737,2.271,6.784,1.479,7.3
					c-1.648,1.071-3.83-2.437-4.872-5.584S1634.342,1247.286,1634.342,1247.286z"/>
			</g>
		</g>
	</g>
	<g>
		<g>
			<path style="fill:#FFB27D;" d="M2169.418,1277.314c0,0,3.324,14.722,2.374,18.758c-0.949,4.037-11.276,10.448-15.136,9.262
				c-3.859-1.188-0.535-21.371,6.113-24.695S2169.418,1277.314,2169.418,1277.314z"/>
		</g>
		<g>
			<path style="fill:#163560;" d="M2083.038,1141.48c-1.878-3.622,40.978-16.667,41.656,19.083c0,0,80.28-1.974,41.948-46.72
				c-13.271-15.489-11.905-28.298-11.508-40.22c0.404-11.925-8.266-46.579-37.98-43.089c0,0-7.781-3.166-17.493,1.872
				C2077.576,1043.864,2028.103,1154.665,2083.038,1141.48z"/>
		</g>
		<g>
			<path style="fill:#9FC1F4;" d="M2141.778,1115.953c0,0,14.837,3.384,19.241,16.994c4.405,13.608,9.823,62.496,10.297,84.171
				c0.423,19.254,0.476,65.896,0.476,65.896s-6.173,3.086-15.136,0l-18.745-95.454L2141.778,1115.953z"/>
		</g>
		<g>
			<path style="fill:#80A3D8;" d="M2156.475,1253.619c0,0-3.229-53.187-0.54-79.336c2.15-20.92-24.045,40.205-22.258,51.315
				C2135.463,1236.711,2156.475,1253.619,2156.475,1253.619z"/>
		</g>
		<g>
			<path style="fill:#233862;" d="M2028.08,1497.706c0,0-8.995,8.21-7.24,14.043s9.873,9.722,10.971,16.851
				c1.097,7.13,5.484,11.019,9.434,11.019c3.95,0,18.829,0,18.829,0s2.906-5.017-4.114-6.529c-7.021-1.512-9.668-9.89-9.229-17.667
				c0.439-7.777-0.658-18.148-0.658-18.148l-14.92-3.456L2028.08,1497.706z"/>
		</g>
		<g>
			<path style="fill:#1B3154;" d="M2104.22,1501.191c0,0-3.236,34.778,0.712,36.723l50.543-0.104c0,0,0-5.834-8.117-7.129
				c-8.118-1.297-22.38-6.049-24.793-16.636C2120.15,1503.46,2104.22,1501.191,2104.22,1501.191z"/>
		</g>
		<g>
			<path style="fill:#9FC1F4;" d="M2065.34,1156.02c0,0-0.754,10.619,0,23.36c0.5,8.447,9.045,19.76,10.257,22.559
				c3.042,7.02,6.472,8.161,6.472,8.161l26.537,6.504l9.331,2.284l29.425-8.788c0,0,13.401-37.408,8.021-58.465
				c-5.382-21.059-13.604-35.682-13.604-35.682s-19.947-4.793-55.274-1.993L2065.34,1156.02z"/>
		</g>
		<g>
			<path style="fill:#F2CCAA;" d="M2073.107,1182.828c0.501,8.446,1.277,16.312,2.489,19.11c3.042,7.02,6.472,8.161,6.472,8.161
				l26.537,6.504l11.525-3.388c0,0-38.475-5.83-34.211-38.933L2073.107,1182.828z"/>
		</g>
		<g>
			<path style="fill:#233862;" d="M2145.489,1215.778c0,0,14.572,45.355,15.508,60.798c0.937,15.442-27.854,219.372-29.013,226.487
				c-1.092,6.707-9.42,10.982-9.42,10.982s-3.831,2.26-9.297,0.716c-7.586-2.142-9.984-4.706-9.984-4.706
				s-11.342-145.44-4.323-197.396c7.02-51.954,7.102-96.882,7.102-96.882H2145.489z"/>
		</g>
		<g>
			<path style="fill:#2B478B;" d="M2083.752,1214.425c0,0-22.228,29.824-24.3,49.985c-2.071,20.16-3.25,90.977-7.665,110.631
				c-4.415,19.653-20.636,57.476-20.636,118.776c0,0,1.687,3.513,6.892,5.386c1.666,0.598,3.896,1.179,6.062,1.676
				c4.294,0.983,8.698-1.114,10.657-5.06c10.967-22.079,45.896-93.29,47.688-108.071c1.269-10.461,12.298-79.695,36.355-120.32
				c5.775-9.754-3.545-48.54-3.545-48.54L2083.752,1214.425z"/>
		</g>
		<g>
			<path style="fill:#233862;" d="M2147.817,1208.775c0,0-5.851,4.628-17.472,4.861c-13.881,0.28-48.276-3.538-48.276-3.538
				s-1.528,4.27-1.466,8.779c0,0,42.009,10.596,66.349,1.547C2146.952,1220.425,2150.092,1214.519,2147.817,1208.775z"/>
		</g>
		<g>
			<g>
				<path style="fill:#FFFFFF;" d="M2127.343,1218.431c0-3.953,2.841-7.169,6.334-7.169c3.492,0,6.334,3.216,6.334,7.169
					s-2.842,7.168-6.334,7.168C2130.184,1225.599,2127.343,1222.384,2127.343,1218.431z M2129.442,1218.431
					c0,2.796,1.899,5.069,4.234,5.069s4.234-2.273,4.234-5.069c0-2.795-1.899-5.069-4.234-5.069
					S2129.442,1215.636,2129.442,1218.431z"/>
			</g>
		</g>
		<g>
			
				<rect x="2055.482" y="1167.204" transform="matrix(-0.7542 -0.6567 0.6567 -0.7542 2863.5537 3484.533)" style="fill:#163560;" width="57.068" height="78.118"/>
		</g>
		<g>
			<path style="fill:#FFB27D;" d="M2091.777,1217.118c0,0,16.844,1.483,16.795,5.228c-0.05,3.743-5.343,10.27-7.837,10.27
				c-5.698,0-11.949-8.533-11.949-8.533L2091.777,1217.118z"/>
		</g>
		<g>
			<path style="fill:#9FC1F4;" d="M2086.504,1113.96c0,0-21.054,1.477-29.123,21.095c-8.071,19.619-23.383,52.559-23.383,58.1
				s8.553,22.624,54.489,32.444c0,0,4.751-4.997,4.464-8.95c0,0-28.676-24.629-28.599-27.508
				c0.146-5.444,4.701-12.633,29.876-37.817C2101.074,1144.477,2086.504,1113.96,2086.504,1113.96z"/>
		</g>
		<g>
			<path style="fill:#FFB27D;" d="M2094.305,1217.475c0,0,3.82-0.854,6.313-0.871c2.493-0.017,5.486-0.505,5.505,0.34
				c0.035,1.558-4.986,2.093-4.986,2.805C2101.137,1220.461,2094.305,1217.475,2094.305,1217.475z"/>
		</g>
		<g>
			<g>
				<path style="fill:#FFB27D;" d="M2098.6,1113.653c1.566-2.942,6.055-17.911,6.021-25.684l1.332,0.224l22.402,3.758
					c0,0-0.51,5.973-0.525,11.599c0,0.047,0,0.094,0,0.141c-0.027,4.886,0.063,7.292-0.915,13.347
					c-0.442,2.732-8.735,3.734-18.115,2.325C2105.454,1118.86,2097.564,1115.597,2098.6,1113.653z"/>
			</g>
			<g>
				<path style="fill:#E8945B;" d="M2128.355,1091.951c0,0-0.51,5.973-0.525,11.599c-12.535-0.299-19.161-9.987-21.877-15.356
					L2128.355,1091.951z"/>
			</g>
			<g>
				<path style="fill:#FFB27D;" d="M2132.542,1098.958c0,0-29.659,0.489-29.68-17.985c-0.021-18.476-3.862-30.855,15.074-31.949
					c18.935-1.093,22.622,5.952,24.129,12.117S2140.256,1098.354,2132.542,1098.958z"/>
			</g>
			<g>
				<path style="fill:#163560;" d="M2131.444,1048.571c0,0-8.12,21.675-20.583,24.88c-12.463,3.204-17.868-0.135-17.868-0.135
					s9.56-7.594,11.543-20.85C2104.536,1052.467,2125.318,1038.255,2131.444,1048.571z"/>
			</g>
			<g>
				<path style="fill:#163560;" d="M2129.432,1050.331c0,0,6.021,2.251,8.5,6.643c2.424,4.295,4.488,9.983,4.01,16.961
					c0,0,6.117-14.731-0.758-23.065C2133.893,1042.031,2129.432,1050.331,2129.432,1050.331z"/>
			</g>
		</g>
	</g>
	<g>
		<g>
			<path style="fill:#FFB27D;" d="M1037.472,1273.383c0,0-3.543,12.893-0.839,18.12c2.703,5.229,7.895,9.724,10.392,6.757
				c2.498-2.965-2.369-21.859-2.369-21.859L1037.472,1273.383z"/>
		</g>
		<g>
			<path style="fill:#163560;" d="M1078.501,1016.479c0,0,13.599-1.434,25.661,6.433c12.062,7.865,11.942,44.572,19.635,53.131
				c12.232,13.607-16.332,23.505-34.202,24.403c-14.516,0.729-52.458-2.652-46.12-13.386
				C1056.988,1064.179,1037.29,1018.81,1078.501,1016.479z"/>
		</g>
		<g>
			<path style="fill:#E8945B;" d="M1059.41,1350.683c9.645,62.096,17.513,129,13.771,164.186
				c-2.98,9.841-12.053,13.077-20.064,14.315l5.469,6.029l15.487,0.966l20.715-8.038c0,0-1.172-4.089-2.087-11.218
				c-1.055-8.282,2.88-27.181,2.88-27.181s10.423-65.285,4.763-79.988c-1.607-4.177-2.655-8.954-3.291-14.139v-0.005
				c-1.621-13.204-0.593-29.065,0.601-44.481c1.292-16.745,2.778-32.964,1.255-44.685c-6.946-53.497-6.791-99.731-6.791-99.731
				l-40.568-0.211c0,0-11.665,32.595-6.452,60.621C1049.521,1290.952,1054.682,1320.238,1059.41,1350.683z"/>
		</g>
		<g>
			<path style="fill:#ADC8FE;" d="M1054.89,1104.104c0,0-8.852,2.239-13.126,12.645c-4.275,10.404-6.178,89.841-6.968,98.402
				c-0.79,8.561,1.851,61.952,1.851,61.952s6.256,2.206,10.93-1.37c16.961-12.975,9.193-84.922,9.193-84.922L1054.89,1104.104z"/>
		</g>
		<g>
			<path style="fill:#8CB0EA;" d="M1043.117,1238.158c0,0-4.578-62.463-2.072-78.649c0.886-5.729,11.149,4.217,12.313,18.87
				C1054.525,1193.033,1043.117,1238.158,1043.117,1238.158z"/>
		</g>
		<g>
			<path style="fill:#233862;" d="M1077.84,1538.447c-9.021-1.166-6.648,1.152-19.301,1.162
				c-12.651,0.011-16.958-4.228-17.547-6.043c-0.524-1.611,5.586-2.881,12.125-4.383l0.232,0.166c0,0,7.932,4.433,18.362,3.521
				c8.501-0.738,17.212-4.17,23.077-4.728c0.349,1.923,0.696,3.892,0.522,5.878
				C1094.823,1539.658,1086.86,1539.614,1077.84,1538.447z"/>
		</g>
		<g>
			<path style="fill:#FFB27D;" d="M1082.287,1344.373c9.644,62.098,24.905,135.777,21.165,170.963
				c-2.981,9.841-12.055,13.077-20.065,14.316l5.469,6.029l15.488,0.966l20.715-8.039c0,0-1.173-4.089-2.087-11.218
				c-1.055-8.282,2.878-27.18,2.878-27.18s10.425-65.286,4.764-79.989c-1.607-4.177-2.655-8.954-3.291-14.138v-0.006
				c-1.621-13.204-0.592-29.066,0.602-44.481c1.292-16.745,2.777-32.964,1.254-44.685c-6.945-53.496-6.791-99.731-6.791-99.731
				l-40.567-0.211c0,0-11.665,32.595-6.452,60.621C1079.791,1291.42,1077.559,1313.931,1082.287,1344.373z"/>
		</g>
		<g>
			<path style="fill:#233862;" d="M1108.109,1538.916c-9.021-1.166-6.648,1.151-19.3,1.161c-12.652,0.011-16.958-4.227-17.547-6.043
				c-0.524-1.61,5.586-2.881,12.124-4.382l0.232,0.165c0,0,7.932,4.433,18.363,3.522c8.501-0.74,17.211-4.17,23.077-4.729
				c0.349,1.924,0.696,3.892,0.521,5.878C1125.093,1540.126,1117.131,1540.083,1108.109,1538.916z"/>
		</g>
		<g>
			<path style="fill:#ADC8FE;" d="M1133.332,1145.742c0,0,0.719,10.932-0.125,24.039c-0.561,8.688-9.412,20.285-10.675,23.158
				c-3.168,7.207-6.703,8.363-6.703,8.363l-27.343,6.551l-9.613,2.301l-30.232-9.201c0,0-13.59-38.565-7.94-60.206
				c5.65-21.64,14.189-36.644,14.189-36.644s34.859-8.872,61.786-0.856L1133.332,1145.742z"/>
		</g>
		<g>
			<path style="fill:#2B478B;" d="M1042.617,1276.022c3.149,40.996,6.928,75.533,6.928,75.533s19.041,12.976,46.071,14.754
				l0.004,0.005h0.005c12.35,0.811,26.363-0.712,40.993-6.872c0,0,6.078-98.935,2.622-114.717
				c-3.461-15.781-19.032-37.556-19.032-37.556l-70.569,2.359C1049.639,1209.529,1039.467,1235.021,1042.617,1276.022z"/>
		</g>
		<g>
			<path style="fill:#203D77;" d="M1048.179,1199.588c0,0,5.995,4.794,17.951,5.097c14.282,0.362,49.697-3.383,49.697-3.383
				s1.55,4.401,1.462,9.041c0,0-43.285,10.679-68.283,1.237C1049.006,1211.58,1045.808,1205.484,1048.179,1199.588z"/>
		</g>
		<g>
			<g>
				<path style="fill:#FFFFFF;" d="M1062.64,1216.976c-3.594-0.019-6.501-3.343-6.479-7.411c0.021-4.067,2.962-7.361,6.556-7.343
					c3.595,0.019,6.5,3.343,6.479,7.411C1069.174,1213.7,1066.233,1216.995,1062.64,1216.976z M1062.705,1204.383
					c-2.403-0.013-4.37,2.316-4.385,5.193c-0.015,2.876,1.928,5.227,4.33,5.239s4.37-2.317,4.385-5.194
					C1067.05,1206.745,1065.107,1204.395,1062.705,1204.383z"/>
			</g>
		</g>
		<g>
			
				<rect x="1084.482" y="1157.151" transform="matrix(0.7576 -0.6527 0.6527 0.7576 -511.5396 1017.3214)" style="fill:#233862;" width="58.726" height="80.387"/>
		</g>
		<g>
			<path style="fill:#FFB27D;" d="M1105.801,1208.473c0,0-16.236,1.813-16.206,5.665c0.03,3.853,3.981,11.786,5.983,12.148
				c2.004,0.363,13.263-10.632,13.263-10.632L1105.801,1208.473z"/>
		</g>
		<g>
			<path style="fill:#ADC8FE;" d="M1111.778,1102.349c0,0,21.658,1.632,29.857,21.862c8.199,20.232,23.779,54.21,23.749,59.912
				c-0.028,5.702-8.922,23.234-56.245,33.095c0,0-4.861-5.169-4.545-9.234c0,0,29.64-25.19,29.575-28.153
				c-0.121-5.604-4.77-13.024-30.54-39.075C1096.623,1133.674,1111.778,1102.349,1111.778,1102.349z"/>
		</g>
		<g>
			<path style="fill:#FFB27D;" d="M1108.379,1101.285c-4.385-0.997-8.003-4.101-9.493-8.343c-1.795-5.111-3.203-12.651-3.121-22.091
				l-1.372,0.262l-23.076,4.445c0,0,0.487,7.257,0.468,14.092c0,0.057,0,0.113,0,0.17c-0.004,5.936-3.925,11.154-9.636,12.77
				c-2.916,0.826,13.764,23.026,15.688,22.603C1081.838,1124.309,1109.77,1101.602,1108.379,1101.285z"/>
		</g>
		<g>
			<path style="fill:#E8945B;" d="M1071.316,1075.559c0,0,0.487,7.257,0.468,14.092c12.901-0.297,19.78-12.028,22.608-18.537
				L1071.316,1075.559z"/>
		</g>
		<g>
			<path style="fill:#FFB27D;" d="M1066.976,1082.007c0,0,30.518,0.663,30.638-18.349c0.119-19.011,4.139-31.729-15.34-32.955
				c-19.479-1.227-23.313,6.003-24.896,12.339S1059.04,1081.345,1066.976,1082.007z"/>
		</g>
		<g>
			<path style="fill:#163560;" d="M1068.375,1030.165c0,0,8.24,22.348,21.047,25.712c12.808,3.365,18.389-0.043,18.389-0.043
				s-9.797-7.865-11.768-21.517C1096.043,1034.317,1074.734,1019.582,1068.375,1030.165z"/>
		</g>
		<g>
			<path style="fill:#163560;" d="M1070.437,1031.986c0,0-6.208,2.284-8.781,6.79c-2.518,4.406-4.673,10.248-4.218,17.433
				c0,0-6.217-15.194,0.903-23.732C1065.891,1023.422,1070.437,1031.986,1070.437,1031.986z"/>
		</g>
		<g>
			<path style="fill:#D7E6FF;" d="M1077.837,1125.192c0,0,20.758-21.943,21.578-30.952c0,0,5.255,1.488,11.416,7.545
				c0,0-5.026,12.403-10.97,16.472c0,0-4.309-0.63-7.695-2.044c0,0,2.135,3.586,3.833,5.729
				C1095.999,1121.941,1086.617,1127.198,1077.837,1125.192z"/>
		</g>
		<g>
			<path style="fill:#D7E6FF;" d="M1070.76,1094.935c0,0-8.221,14.838,7.077,30.258c0,0-9.64-1.896-14.563-8.727
				c0,0,1.557-3.644,2.868-4.483c0,0-2.893-1.168-4.721,0.514c0,0-1.062-7.984,0.056-10.41
				C1062.592,1099.662,1068.37,1094.842,1070.76,1094.935z"/>
		</g>
		<g>
			<path style="fill:#233862;" d="M1079.374,1125.199c0.005-0.849-0.681-1.541-1.529-1.545c-0.849-0.005-1.542,0.68-1.545,1.53
				c-0.006,0.849,0.68,1.54,1.528,1.545C1078.679,1126.734,1079.37,1126.05,1079.374,1125.199z"/>
		</g>
		<g>
			<path style="fill:#233862;" d="M1071.06,1146.956c0.005-0.85-0.681-1.542-1.53-1.546c-0.849-0.005-1.54,0.68-1.545,1.529
				s0.68,1.541,1.53,1.546C1070.362,1148.49,1071.055,1147.805,1071.06,1146.956z"/>
		</g>
		<g>
			<path style="fill:#233862;" d="M1069.389,1172.512c0.004-0.85-0.68-1.541-1.529-1.546s-1.542,0.681-1.546,1.53
				c-0.005,0.849,0.68,1.541,1.53,1.545C1068.692,1174.046,1069.384,1173.361,1069.389,1172.512z"/>
		</g>
	</g>
	<g>
		<g>
			<path style="fill:#FFB27D;" d="M471.983,1238.48l-0.476,6.909c0,0-6.695,11.993,6.357,18.939c0,0,5.657,2.484,6.495-1.744
				c0.839-4.228-0.148-2.67,1.176-8.618c1.326-5.947-0.451-11.715-4.508-13.823l-3.023-3.909L471.983,1238.48z"/>
		</g>
		<g>
			<path style="fill:#7A96E5;" d="M477.004,1244.59c-5.414,1.202-6.221,0.743-6.221,0.743s-21.286-48.952-23.483-53.457
				c-2.198-4.504-49.505-57.263-49.505-57.263l17.877-48.352c0,0,51.807,81.639,57.151,93.16
				c8.832,19.04,11.108,61.574,11.108,61.574S481.255,1243.646,477.004,1244.59z"/>
		</g>
		<g>
			<path style="fill:#FFB27D;" d="M485.015,1244.823c0,0,1.491,5.408,2.801,6.931c1.311,1.522,2.564,2.857,1.603,3.734
				c-0.961,0.878-5.624-3.019-5.863-3.881C483.314,1250.746,485.015,1244.823,485.015,1244.823z"/>
		</g>
		<g>
			<g>
				<path style="fill:#233862;" d="M534.406,1328.792l-76.517,17.836c-9.958,2.32-20.006-3.929-22.327-13.887l-7.728-33.158
					c-2.321-9.959,3.928-20.006,13.886-22.327l76.517-17.835c9.958-2.321,20.005,3.927,22.326,13.885l7.729,33.16
					C550.613,1316.424,544.364,1326.471,534.406,1328.792z"/>
			</g>
			<g>
				<path style="fill:#233862;" d="M558.463,1304.477l-7.818-33.544c-2.33-9.995-12.415-16.268-22.41-13.938l-26.297,6.13
					l-1.668-7.152c-0.77-3.308-4.09-5.37-7.395-4.6l-22.854,5.326c-1.599,0.373-2.957,1.349-3.827,2.748
					c-0.871,1.4-1.146,3.051-0.773,4.648l1.667,7.152l-15.233,3.551c-9.996,2.33-16.268,12.414-13.938,22.41l7.818,33.544
					c2.33,9.995,12.415,16.268,22.41,13.938l76.381-17.804C554.521,1324.557,560.793,1314.472,558.463,1304.477z M469.18,1263.22
					c-0.288-1.235,0.482-2.473,1.717-2.762l22.854-5.326c0.23-0.054,0.462-0.07,0.687-0.054c0.978,0.07,1.839,0.767,2.073,1.771
					l1.667,7.152l-27.331,6.371L469.18,1263.22z"/>
			</g>
		</g>
		<g>
			<path style="fill:#FFB27D;" d="M414.881,1084.27c0,0-16.06,15.834-33.828,6.947c0,0-3.079-9.956-2.482-17.029
				c0.074-0.872,0.141-1.716,0.202-2.519c0.636-7.97,0.781-12.462,0.781-12.462s0.005-0.001,0.019-0.001
				c0.871-0.273,29.245-8.972,29.137-8.041C406.251,1072.651,414.881,1084.27,414.881,1084.27z"/>
		</g>
		<g>
			<path style="fill:#ED975D;" d="M405.49,1056.045c-3.088,4.644-13.017,13.368-26.718,15.624c0.636-7.97,0.781-12.462,0.781-12.462
				s0.005-0.001,0.019-0.001C380.348,1059.072,406.407,1054.678,405.49,1056.045z"/>
		</g>
		<g>
			<path style="fill:#FFB27D;" d="M373.904,1057.852c0,0,30.076,10.068,36.059-8.759c5.98-18.827,13.892-30.206-5.059-37.431
				s-24.982-1.231-28.507,4.566C372.872,1022.027,366.235,1054.748,373.904,1057.852z"/>
		</g>
		<g>
			<g>
				<path style="fill:#2C3A64;" d="M469.944,1539.433h18.695c3.919,0,8.273-3.925,9.364-11.108c1.09-7.189,9.147-11.108,10.89-16.99
					c1.744-5.881-7.189-14.16-7.189-14.16l-1.494-1.919l-1.553-2l-14.81,3.482c0,0-0.364,3.527-0.594,8.019
					c-0.158,3.243-0.245,6.993-0.06,10.279c0.437,7.844-2.196,16.287-9.162,17.813
					C467.06,1534.374,469.944,1539.433,469.944,1539.433z"/>
			</g>
			<g>
				<path style="fill:#2C3A64;" d="M339.795,1539.433h49.557c0.475-0.093,0.834-0.196,1.052-0.305
					c3.31-1.658,2.273-14.325,1.875-18.238c-0.076-0.726-0.131-1.15-0.131-1.15s-17.425-13.937-19.823-3.265
					c-0.076,0.332-0.164,0.659-0.256,0.98v0.006c-3.025,9.985-16.548,14.521-24.359,15.785
					C341.741,1534.216,340.193,1537.693,339.795,1539.433z"/>
			</g>
			<g>
				<path style="fill:#2B478B;" d="M349.783,1253.655c0,0,2.647,33.02,5.757,72.71c4.228,53.915,9.312,120.143,9.815,132.688
					c0.869,21.786,4.359,56.635,4.359,56.635s8.272,8.279,24.83,4.789c0,0,14.756-49.746,18.97-102.382
					c0.065-0.862,0.132-1.731,0.196-2.601c3.921-53.582,10.017-166.413,10.017-166.413L349.783,1253.655z"/>
			</g>
			<g>
				<path style="fill:#233862;" d="M349.783,1253.655c0,0,2.647,33.02,5.757,72.71l57.973,91.73
					c0.065-0.862,0.132-1.731,0.196-2.601c3.921-53.582,10.017-166.413,10.017-166.413L349.783,1253.655z"/>
			</g>
			<g>
				<path style="fill:#2B478B;" d="M361.869,1257.577c0,0,47.701,119.58,79.066,175.777c31.366,56.195,41.168,71.879,41.168,71.879
					s17.97-7.188,19.604-12.089c0,0-11.994-108.49-32.999-134.938c-11.869-14.943-25.812-59.79-26.465-75.473
					c-0.653-15.683-4.248-46.722-4.248-46.722L361.869,1257.577z"/>
			</g>
		</g>
		<g>
			<path style="fill:#9DB0F4;" d="M348.313,1266.839c0.565,0.463,1.228,0.723,1.98,0.704c6.993-0.225,27.476,3.244,44.706,1.134
				c14.53-1.692,27.332-6.256,41.041-12.742c1.826-0.859,6.01-3.197,5.876-5.25c-0.108-2.244-0.395-5.508-0.76-9.611
				c-1.268-14.256-3.46-38.791-2.365-67.168c0.195-5.282,0.249-10.517,0.167-15.676c-0.226-13.435-1.382-26.288-3.456-37.796
				c-3.863-21.389-10.904-38.144-20.998-45.378c-1.327-0.907-9.271,3.173-16.575,6.96c-6.742,3.492-13.551,4.001-20.013,2.832
				l-6.327,5.814c-7.69,7.434-16.08,17.5-19.516,32.598c-0.255,1.117-0.492,2.303-0.722,3.569
				c-1.136,6.172-1.999,14.043-2.653,22.884c-0.759,10.197-1.222,21.697-1.502,33.395c-0.01,0.695-0.025,1.391-0.041,2.086
				c-0.074,3.384-0.135,6.778-0.186,10.153c-0.056,3.853-0.091,7.68-0.101,11.464c-0.004,2.842,0.008,5.658,0.039,8.427l0.009,0.37
				c-0.075,1.03-0.053,2.152-0.027,3.18c0.03,4.639,0.075,9.106,0.133,13.331C347.31,1252.113,347.921,1266.538,348.313,1266.839z"
				/>
		</g>
		<g>
			<path style="fill:#7A96E5;" d="M347.021,1232.118c42.569-18.946,55.331-86.64,55.331-86.64l-55.383,49.868
				c-0.056,3.853-0.091,7.68-0.101,11.464c-0.004,2.842,0.008,5.658,0.039,8.427l0.009,0.37c-0.075,1.03-0.053,2.152-0.027,3.18
				C346.918,1223.426,346.963,1227.894,347.021,1232.118z"/>
		</g>
		<g>
			<path style="fill:#FFB27D;" d="M277.751,1219.424c-3.158-0.933-10.274-2.924-10.275-1.941c0,0.707,0.673,1.68,1.747,2.564
				c-3.935-0.117-7.772,0.232-15.609,4.693c-1.569,0.894-2.768,2.364-3.202,4.117c-0.402,1.622-0.156,3.395,2.435,3.997
				c5.184,1.207,3.401,0.034,10.665,1.887s14.88,0.367,18.306-3.831l5.506-2.957l-2.539-9.848
				C284.785,1218.105,281.323,1218.839,277.751,1219.424z"/>
		</g>
		<g>
			<path style="fill:#9DB0F4;" d="M280.988,1224.396c-2.281-5.438,0.288-7.346,0.288-7.346s53.133-29.51,57.431-32.66
				c4.298-3.151,30.901-59.957,30.901-59.957s9.727-23.155,23.98-23.618c12.386-0.402,19.75,6.862,24.08,14.695
				c5.159,9.336,3.977,20.896-2.835,29.102c-15.294,18.42-46.039,54.922-54.241,60.69c-18.256,12.839-74.594,25.891-74.594,25.891
				S282.779,1228.666,280.988,1224.396z"/>
		</g>
		<g>
			<path style="fill:#A9453D;" d="M408.427,1054.231c0.396,0.307,6.823,2.951,21.656-20.85c2.329-3.736,4.451-12.087,0.559-20
				c-3.893-7.911-19.603-15.302-32.872-19.111c-13.268-3.81-17.212,3.489-21.098,10.833c-4.08,7.709-14.331,13.419-14.331,13.419
				c11.045,7.581,25.931-0.428,30.649,1.552c4.719,1.978,5.728,9.796,5.865,12.284c0.138,2.489,0.51,4.58,6.823,2.952
				c6.313-1.628,1.963,8.916,0.793,10.9C406.471,1046.211,405.129,1051.661,408.427,1054.231z"/>
		</g>
	</g>
	<g>
		<g>
			<path style="fill:#ED7D2B;" d="M814.681,1083.746c0,0,40.229,41.711,42.131,57.41c1.9,15.701-19.27,40.207-19.27,40.207
				L814.681,1083.746z"/>
		</g>
		<g>
			<path style="fill:#163560;" d="M796.503,1516.03c0,0-1.421,22.125-5.702,22.434c-0.569,0.041-21.713-0.005-21.713-0.005
				l-26.991-0.215c0,0,0.19-6.504,8.083-7.861c7.893-1.358,21.111-6.873,25.912-17.291
				C781.144,1502.133,796.503,1516.03,796.503,1516.03z"/>
		</g>
		<g>
			<path style="fill:#163560;" d="M856.621,1516.162c0,0-1.42,22.125-5.702,22.432c-0.569,0.042-21.713-0.004-21.713-0.004
				l-26.991-0.216c0,0,0.19-6.503,8.083-7.86c7.893-1.357,21.11-6.874,25.912-17.291
				C841.262,1502.263,856.621,1516.162,856.621,1516.162z"/>
		</g>
		<g>
			<path style="fill:#163560;" d="M767.127,1278.15c0,0,6.961,45.164,33.12,125.368c26.161,80.203,29.674,114.917,29.674,114.917
				l28.252-0.73c0,0,0.432-87.59-11.616-127.919c-12.05-40.329-2.304-145.301-2.304-145.301L767.127,1278.15z"/>
		</g>
		<g>
			<path style="fill:#1C468A;" d="M753.447,1246.761c0,0-1.146,68.034,10.443,151.597c11.59,83.563,7.523,119.014,7.523,119.014
				l28.19,0.999c0,0,17.031-83.531,12.291-125.354c-4.74-41.822,23.385-143.426,23.385-143.426L753.447,1246.761z"/>
		</g>
		<g>
			<path style="fill:#FFB27D;" d="M808.372,1087.666l-15.043,9.815l-21.7-4.093c0.303-1.752,1.753-9.013,3.072-15.589
				c0.079-0.388,0.16-0.775,0.233-1.154c1.13-5.596,2.106-10.402,2.106-10.402l20.295-8.902l7.568-3.319
				c-0.021,0.118-0.6,6.212-0.681,7.101C802.771,1076.919,808.372,1087.666,808.372,1087.666z"/>
		</g>
		<g>
			<path style="fill:#ED7D2B;" d="M777.212,1082.628c0.422-0.176,26.16-7.71,28.952-6.781c2.792,0.928,4.435,6.339,4.435,6.339
				l-42.092,9.42C768.507,1091.605,771.832,1084.88,777.212,1082.628z"/>
		</g>
		<g>
			<path style="fill:#F99746;" d="M846.1,1255.361c-4.403,19.88-76.969,22.081-95.633,3.986c-2.123-2.063-2.207-11.637-1.377-24.544
				c1.625-25.219,6.747-63.146,6.984-82.53c0.117-9.36,1.424-18.932,3.156-27.621c3.685-18.521,9.275-33.05,9.275-33.05
				s35.467-11.381,42.093-9.417C842.527,1091.641,850.502,1235.48,846.1,1255.361z"/>
		</g>
		<g>
			<path style="fill:#ED7D2B;" d="M749.09,1234.804c1.625-25.219,6.747-63.146,6.984-82.53c0.117-9.36,1.424-18.932,3.156-27.621
				l21.327-3.717C780.558,1120.936,801.218,1206.12,749.09,1234.804z"/>
		</g>
		<g>
			<path style="fill:#FFB27D;" d="M760.711,1199.673c0,0,1.446,3.477-1.611,5.803c-3.058,2.325-5.045,6.1-4.351,8.862
				c0.692,2.763,7.378,7.282,9.699,6.561c2.322-0.722,7.053-4.348,6.548-5.806c-0.505-1.457,3.205-12.774-2.444-17.146
				C762.904,1193.574,760.711,1199.673,760.711,1199.673z"/>
		</g>
		<g>
			<path style="fill:#F99746;" d="M784.796,1086.535c0,0-20.801,3.846-37.42,28.225c-16.621,24.379-27.561,42.508-24.527,51.313
				c3.033,8.807,30.786,39.386,35.582,39.396c4.796,0.011,12.542-3.461,12.995-11.307c0,0-19.521-29.398-15.654-33.786
				c1.652-1.875,25.474-21.128,28.85-12.4C790.206,1162.415,784.796,1086.535,784.796,1086.535z"/>
		</g>
		<g>
			<path style="fill:#FCA56B;" d="M802.702,1061.398c-4.469,7.532-21.076,14.019-28.001,16.401c0.079-0.388,0.16-0.775,0.233-1.154
				c1.13-5.596,2.106-10.402,2.106-10.402l20.295-8.902C801.818,1057.289,804.545,1058.299,802.702,1061.398z"/>
		</g>
		<g>
			<path style="fill:#FFB27D;" d="M769.4,1064.993c0,0,32.641,10.26,38.716-10.165c6.076-20.425,14.382-32.855-6.201-40.27
				s-26.969-0.831-30.655,5.493C767.574,1026.376,761.067,1061.798,769.4,1064.993z"/>
		</g>
		<g>
			<path style="fill:#163560;" d="M772.548,1018.086c0,0,2.031,23.787,6.951,22.766c4.921-1.022,9.383-1.778,8.647,5.39
				c-0.736,7.168-7.574,15.431,7.581,16.732c15.154,1.301,37.029-37.742,32.882-45.152
				C816.641,996.44,755.239,991.996,772.548,1018.086z"/>
		</g>
	</g>
	<g>
		<g>
			<g>
				<polygon style="fill:#1C468A;" points="1016.51,1023.13 1010.8,1023.13 1010.8,990.455 1042.385,990.455 1042.385,996.166 
					1016.51,996.166 				"/>
			</g>
		</g>
		<g>
			<g>
				<polygon style="fill:#1C468A;" points="1165.385,1022.584 1159.675,1022.584 1159.675,996.712 1132.711,996.712 
					1132.711,991.001 1165.385,991.001 				"/>
			</g>
		</g>
		<g>
			<g>
				<polygon style="fill:#1C468A;" points="1165.385,1127.472 1133.801,1127.472 1133.801,1121.762 1159.675,1121.762 
					1159.675,1094.799 1165.385,1094.799 				"/>
			</g>
		</g>
		<g>
			<g>
				<polygon style="fill:#1C468A;" points="1043.475,1126.928 1010.8,1126.928 1010.8,1095.343 1016.51,1095.343 1016.51,1121.218 
					1043.475,1121.218 				"/>
			</g>
		</g>
	</g>
	<g>
		<g>
			<g>
				<polygon style="fill:#1C468A;" points="315.398,1007.625 309.733,1007.625 309.733,975.21 341.066,975.21 341.066,980.875 
					315.398,980.875 				"/>
			</g>
		</g>
		<g>
			<g>
				<polygon style="fill:#1C468A;" points="463.087,1007.084 457.422,1007.084 457.422,981.417 430.673,981.417 430.673,975.752 
					463.087,975.752 				"/>
			</g>
		</g>
		<g>
			<g>
				<polygon style="fill:#1C468A;" points="463.087,1111.136 431.755,1111.136 431.755,1105.471 457.422,1105.471 457.422,1078.724 
					463.087,1078.724 				"/>
			</g>
		</g>
		<g>
			<g>
				<polygon style="fill:#1C468A;" points="342.147,1110.597 309.733,1110.597 309.733,1079.263 315.398,1079.263 315.398,1104.931 
					342.147,1104.931 				"/>
			</g>
		</g>
	</g>
	<g>
		<g>
			<g>
				<polygon style="fill:#1C468A;" points="705.077,1007.625 699.412,1007.625 699.412,975.21 730.746,975.21 730.746,980.875 
					705.077,980.875 				"/>
			</g>
		</g>
		<g>
			<g>
				<polygon style="fill:#1C468A;" points="852.767,1007.084 847.101,1007.084 847.101,981.417 820.352,981.417 820.352,975.752 
					852.767,975.752 				"/>
			</g>
		</g>
		<g>
			<g>
				<polygon style="fill:#1C468A;" points="852.767,1111.136 821.434,1111.136 821.434,1105.471 847.101,1105.471 847.101,1078.724 
					852.767,1078.724 				"/>
			</g>
		</g>
		<g>
			<g>
				<polygon style="fill:#1C468A;" points="731.826,1110.597 699.412,1110.597 699.412,1079.263 705.077,1079.263 705.077,1104.931 
					731.826,1104.931 				"/>
			</g>
		</g>
	</g>
	<g>
		<g>
			<g>
				<polygon style="fill:#1C468A;" points="1653.478,1008.713 1649.01,1008.713 1649.01,983.149 1673.72,983.149 1673.72,987.617 
					1653.478,987.617 				"/>
			</g>
		</g>
		<g>
			<g>
				<polygon style="fill:#1C468A;" points="1769.949,1008.286 1765.481,1008.286 1765.481,988.044 1744.387,988.044 
					1744.387,983.576 1769.949,983.576 				"/>
			</g>
		</g>
		<g>
			<g>
				<polygon style="fill:#1C468A;" points="1769.949,1090.345 1745.239,1090.345 1745.239,1085.877 1765.481,1085.877 
					1765.481,1064.783 1769.949,1064.783 				"/>
			</g>
		</g>
		<g>
			<g>
				<polygon style="fill:#1C468A;" points="1674.572,1089.919 1649.01,1089.919 1649.01,1065.208 1653.478,1065.208 
					1653.478,1085.451 1674.572,1085.451 				"/>
			</g>
		</g>
	</g>
	<g>
		<g>
			<g>
				<polygon style="fill:#1C468A;" points="2039.385,1053.684 2033.574,1053.684 2033.574,1020.438 2065.712,1020.438 
					2065.712,1026.248 2039.385,1026.248 				"/>
			</g>
		</g>
		<g>
			<g>
				<polygon style="fill:#1C468A;" points="2190.862,1053.129 2185.053,1053.129 2185.053,1026.804 2157.616,1026.804 
					2157.616,1020.993 2190.862,1020.993 				"/>
			</g>
		</g>
		<g>
			<g>
				<polygon style="fill:#1C468A;" points="2190.862,1159.85 2158.727,1159.85 2158.727,1154.039 2185.053,1154.039 
					2185.053,1126.605 2190.862,1126.605 				"/>
			</g>
		</g>
		<g>
			<g>
				<polygon style="fill:#1C468A;" points="2066.819,1159.296 2033.574,1159.296 2033.574,1127.159 2039.385,1127.159 
					2039.385,1153.486 2066.819,1153.486 				"/>
			</g>
		</g>
	</g>
	<g>
		<g>
			<path style="fill:#8C9DF4;" d="M2337.047,995.931h-204.164c-9.579,0-17.345-7.766-17.345-17.345v-76.461
				c0-9.579,7.766-17.344,17.345-17.344h204.164c9.579,0,17.345,7.765,17.345,17.344v76.461
				C2354.392,988.165,2346.626,995.931,2337.047,995.931z"/>
		</g>
		<g>
			<g>
				<path style="fill:#E1EFFF;" d="M2207.282,938.567c0,7.872-2.421,15.169-6.557,21.206c-1.747,2.575-3.813,4.908-6.147,6.965
					c-1.349,1.194-2.797,2.301-4.312,3.295c-1.327,0.862-2.709,1.648-4.146,2.354c-4.964,2.411-10.536,3.771-16.43,3.771
					c-0.298,0-0.585,0-0.884-0.012c-3.217-0.077-6.347-0.552-9.32-1.393c-0.543-0.154-1.072-0.31-1.604-0.486v-0.011
					c-3.295-1.084-6.401-2.62-9.221-4.522v-0.01c-2.112-1.428-4.08-3.074-5.859-4.898c-2.389-2.433-4.435-5.197-6.082-8.204
					c-2.951-5.362-4.621-11.51-4.621-18.055c0-20.752,16.839-37.591,37.591-37.591
					C2190.453,900.977,2207.282,917.815,2207.282,938.567z"/>
			</g>
			<g>
				<g>
					<path style="fill:#163560;" d="M2194.789,936.577c0.254-7.264-5.031-28.37-23.131-26.248c0,0-4.742-1.923-10.657,1.14
						c-7.585,3.946-20.478,27.132-24.28,45.153c0,0,0.794,1.743,2.315,3.991c1.327,1.958,3.767,4.213,3.767,4.213
						c1.779,1.824,3.747,3.471,5.859,4.898v0.01c2.819,1.902,5.926,3.439,9.221,4.522v0.011c0.531,0.177,1.061,0.332,1.604,0.486
						c3.029-0.243,6.401,0.045,9.32,1.393c0.299,0.012,0.586,0.012,0.884,0.012c5.894,0,11.466-1.359,16.43-3.771
						c1.438-0.707,2.819-1.492,4.146-2.354c1.515-0.994,2.963-2.101,4.312-3.295c2.334-2.057,4.4-4.39,6.147-6.965
						C2193.793,950.928,2194.567,943.51,2194.789,936.577z"/>
				</g>
				<g>
					<path style="fill:#9FC1F4;" d="M2194.578,966.738c-1.349,1.194-2.797,2.301-4.312,3.295c-1.327,0.862-2.709,1.648-4.146,2.354
						l0.542-10.027C2186.662,962.36,2191.018,963.356,2194.578,966.738z"/>
				</g>
				<g>
					<path style="fill:#9FC1F4;" d="M2190.267,970.033c-1.327,0.862-2.709,1.648-4.146,2.354c-4.964,2.411-10.536,3.771-16.43,3.771
						c-0.298,0-0.585,0-0.884-0.012c-3.217-0.077-6.347-0.552-9.32-1.393c-0.543-0.154-1.072-0.31-1.604-0.486v-0.011
						c-3.295-1.084-6.401-2.62-9.221-4.522v-0.01l4.323-8.58c2.642-0.21,5.141-0.354,7.495-0.432h0.012
						c7.23-0.254,13.08,0.012,17.392,0.398c5.738,0.519,8.778,1.25,8.778,1.25S2188.265,965.224,2190.267,970.033z"/>
				</g>
				<g>
					<path style="fill:#9FC1F4;" d="M2148.662,969.725c-2.112-1.428-4.08-3.074-5.859-4.898c5.029-3.317,10.183-3.682,10.183-3.682
						s3.261,6.811,4.897,13.112c-3.295-1.084-6.401-2.62-9.221-4.522V969.725z"/>
				</g>
				<g>
					<g>
						<path style="fill:#FFB27D;" d="M2160.355,960.962c0.955-1.793,3.689-10.91,3.669-15.643l0.812,0.135l13.645,2.289
							c0,0-0.31,3.639-0.318,7.065c0,0.028-0.001,0.058-0.001,0.085c-0.017,2.977,0.04,4.441-0.558,8.13
							c-0.27,1.664-5.32,2.274-11.034,1.417C2164.531,964.133,2159.727,962.146,2160.355,960.962z"/>
					</g>
					<g>
						<path style="fill:#E8945B;" d="M2178.48,947.742c0,0-0.31,3.639-0.318,7.065c-7.636-0.183-11.672-6.084-13.326-9.354
							L2178.48,947.742z"/>
					</g>
					<g>
						<path style="fill:#FFB27D;" d="M2181.031,952.011c0,0-18.066,0.297-18.079-10.956c-0.012-11.254-2.352-18.794,9.183-19.46
							c11.533-0.666,13.779,3.625,14.697,7.381C2187.75,932.731,2185.73,951.643,2181.031,952.011z"/>
					</g>
					<g>
						<path style="fill:#163560;" d="M2180.362,921.319c0,0-4.946,13.202-12.537,15.154c-7.592,1.951-10.884-0.082-10.884-0.082
							s5.822-4.626,7.031-12.7C2163.973,923.691,2176.632,915.035,2180.362,921.319z"/>
					</g>
					<g>
						<path style="fill:#163560;" d="M2179.137,922.391c0,0,3.668,1.371,5.178,4.047c1.477,2.615,2.734,6.08,2.442,10.331
							c0,0,3.727-8.974-0.462-14.05C2181.854,917.335,2179.137,922.391,2179.137,922.391z"/>
					</g>
				</g>
			</g>
		</g>
		<g>
			<rect x="2224.27" y="904.543" style="fill:#E1EFFF;" width="47.266" height="5.705"/>
		</g>
		<g>
			<rect x="2224.27" y="952.854" style="fill:#E1EFFF;" width="82.646" height="3.431"/>
		</g>
		<g>
			<g>
				<rect x="2224.27" y="940.356" style="fill:#E1EFFF;" width="50.452" height="3.43"/>
			</g>
			<g>
				<rect x="2285.286" y="940.356" style="fill:#E1EFFF;" width="50.452" height="3.43"/>
			</g>
		</g>
		<g>
			<g>
				<rect x="2224.27" y="965.354" style="fill:#E1EFFF;" width="50.452" height="3.429"/>
			</g>
			<g>
				<rect x="2285.286" y="965.354" style="fill:#E1EFFF;" width="50.452" height="3.429"/>
			</g>
		</g>
		<g>
			<rect x="2280.746" y="904.543" style="fill:#E1EFFF;" width="33.372" height="5.705"/>
		</g>
	</g>
	<g>
		<g>
			<path style="fill:#8C9DF4;" d="M1417.989,1059.074h-204.164c-9.579,0-17.345-7.765-17.345-17.344v-76.462
				c0-9.579,7.766-17.345,17.345-17.345h204.164c9.579,0,17.345,7.766,17.345,17.345v76.462
				C1435.334,1051.31,1427.568,1059.074,1417.989,1059.074z"/>
		</g>
		<g>
			<g>
				<path style="fill:#E1EFFF;" d="M1288.229,1001.715c0,7.865-2.43,15.166-6.562,21.202c-1.749,2.576-3.811,4.909-6.144,6.97
					c-0.224,0.194-0.447,0.389-0.68,0.573c-1.148,0.973-2.373,1.886-3.637,2.713c-1.322,0.865-2.702,1.652-4.141,2.361
					c-4.969,2.411-10.539,3.772-16.429,3.772c-0.302,0-0.593,0-0.884-0.021c-3.219-0.077-6.349-0.543-9.323-1.39
					c-0.545-0.155-1.079-0.311-1.604-0.486v-0.01c-3.296-1.088-6.407-2.624-9.226-4.52v-0.01c-2.109-1.429-4.073-3.082-5.853-4.899
					c-1.399-1.429-2.683-2.965-3.84-4.608c-0.816-1.156-1.565-2.352-2.246-3.596c-2.954-5.367-4.617-11.511-4.617-18.053
					c0-20.754,16.837-37.591,37.592-37.591C1271.392,964.124,1288.229,980.961,1288.229,1001.715z"/>
			</g>
			<g>
				<g>
					<path style="fill:#163560;" d="M1253.57,970.595c0,0-7.307-0.771-13.786,3.455s-6.416,23.945-10.548,28.543
						c-6.572,7.311,8.773,12.627,18.373,13.109c7.799,0.393,28.182-1.425,24.776-7.19
						C1265.126,996.219,1275.709,971.846,1253.57,970.595z"/>
				</g>
				<g>
					<path style="fill:#F99746;" d="M1273.307,1019.942c-1.564-3.82-4.287-5.591-5.852-6.319c-0.729-0.35-1.206-0.466-1.206-0.466
						s-3.703-0.943-9.079-1.605c-4.102-0.515-9.177-0.875-14.339-0.525c-3.014,0.205-6.057,0.643-8.953,1.429
						c-0.272,0.079-0.544,0.157-0.816,0.233c-1.847,0.468-4.423,1.382-6.932,3.131c-2.371,1.653-4.685,4.063-6.221,7.543
						c1.157,1.644,2.44,3.18,3.84,4.608c1.779,1.817,3.743,3.471,5.853,4.899v0.01c2.818,1.896,5.93,3.432,9.226,4.52v0.01
						c0.524,0.176,1.059,0.331,1.604,0.486c2.975,0.847,6.104,1.313,9.323,1.39c0.291,0.021,0.582,0.021,0.884,0.021
						c5.89,0,11.46-1.361,16.429-3.772c1.438-0.709,2.818-1.496,4.141-2.361c1.264-0.827,2.488-1.74,3.637-2.713
						C1274.405,1025.337,1273.9,1021.391,1273.307,1019.942z"/>
				</g>
				<g>
					<path style="fill:#FFB27D;" d="M1246.404,1018.202c-4.341-1.399-4.587-4.252-3.786-6.531c0.965-2.745,1.722-6.796,1.677-11.867
						l0.737,0.142l12.396,2.388c0,0-0.261,3.898-0.251,7.57c0,0.03,0,0.061,0,0.091c0.002,3.189,0.092,4.898-1.479,7.673
						C1254.726,1019.39,1251.494,1019.843,1246.404,1018.202z"/>
				</g>
				<g>
					<path style="fill:#E8945B;" d="M1257.429,1002.333c0,0-0.261,3.898-0.251,7.57c-6.93-0.16-10.626-6.462-12.146-9.958
						L1257.429,1002.333z"/>
				</g>
				<g>
					<path style="fill:#FFB27D;" d="M1259.762,1005.797c0,0-16.396,0.356-16.459-9.857c-0.064-10.213-2.225-17.045,8.24-17.703
						c10.465-0.66,12.522,3.225,13.373,6.628C1265.768,988.269,1264.024,1005.441,1259.762,1005.797z"/>
				</g>
				<g>
					<path style="fill:#163560;" d="M1259.01,977.946c0,0-4.427,12.005-11.308,13.813c-6.88,1.808-9.878-0.022-9.878-0.022
						s5.263-4.225,6.321-11.559C1244.146,980.178,1255.594,972.262,1259.01,977.946z"/>
				</g>
				<g>
					<path style="fill:#163560;" d="M1257.901,978.925c0,0,3.336,1.227,4.718,3.648c1.354,2.367,2.51,5.506,2.266,9.365
						c0,0,3.34-8.162-0.484-12.749C1260.345,974.324,1257.901,978.925,1257.901,978.925z"/>
				</g>
			</g>
		</g>
		<g>
			<rect x="1305.212" y="967.688" style="fill:#E1EFFF;" width="47.266" height="5.704"/>
		</g>
		<g>
			<rect x="1305.212" y="1015.998" style="fill:#E1EFFF;" width="82.646" height="3.43"/>
		</g>
		<g>
			<g>
				<rect x="1305.212" y="1003.5" style="fill:#E1EFFF;" width="50.452" height="3.43"/>
			</g>
			<g>
				<rect x="1366.229" y="1003.5" style="fill:#E1EFFF;" width="50.452" height="3.43"/>
			</g>
		</g>
		<g>
			<g>
				<rect x="1305.212" y="1028.497" style="fill:#E1EFFF;" width="50.452" height="3.43"/>
			</g>
			<g>
				<rect x="1366.229" y="1028.497" style="fill:#E1EFFF;" width="50.452" height="3.43"/>
			</g>
		</g>
		<g>
			<rect x="1361.688" y="967.688" style="fill:#E1EFFF;" width="33.372" height="5.704"/>
		</g>
	</g>
	<g>
		<g>
			<path style="fill:#8C9DF4;" d="M821.055,952.291H616.89c-9.579,0-17.345-7.766-17.345-17.345v-76.461
				c0-9.579,7.766-17.345,17.345-17.345h204.165c9.579,0,17.344,7.766,17.344,17.345v76.461
				C838.398,944.525,830.634,952.291,821.055,952.291z"/>
		</g>
		<g>
			<g>
				<path style="fill:#E1EFFF;" d="M691.286,894.93c0,7.874-2.42,15.164-6.551,21.201c-1.711,2.517-3.733,4.813-6.007,6.834
					c-0.05,0.049-0.099,0.097-0.146,0.137c-1.342,1.194-2.79,2.294-4.307,3.295c-1.331,0.856-2.712,1.643-4.15,2.353
					c-4.958,2.41-10.538,3.771-16.429,3.771c-0.291,0-0.583,0-0.885-0.01c-3.218-0.077-6.348-0.554-9.322-1.399
					c-0.535-0.156-1.069-0.312-1.595-0.486v-0.01c-3.296-1.079-6.406-2.614-9.226-4.52v-0.01c-2.109-1.429-4.083-3.071-5.861-4.9
					c-0.194-0.193-0.389-0.398-0.573-0.602c-2.14-2.284-3.996-4.841-5.502-7.602c-2.956-5.365-4.627-11.51-4.627-18.052
					c0-20.755,16.837-37.591,37.591-37.591C674.461,857.339,691.286,874.175,691.286,894.93z"/>
			</g>
			<g>
				<g>
					<path style="fill:#F99746;" d="M678.728,922.965c-0.05,0.049-0.099,0.097-0.146,0.137c-1.342,1.194-2.79,2.294-4.307,3.295
						c-1.331,0.856-2.712,1.643-4.15,2.353c-4.958,2.41-10.538,3.771-16.429,3.771c-0.291,0-0.583,0-0.885-0.01
						c-3.218-0.077-6.348-0.554-9.322-1.399c-0.535-0.156-1.069-0.312-1.595-0.486v-0.01c-3.296-1.079-6.406-2.614-9.226-4.52v-0.01
						c-2.109-1.429-4.083-3.071-5.861-4.9c-0.194-0.193-0.389-0.398-0.573-0.602c3.946-2.021,10.362-3.362,17.547-3.82
						c6.852-0.438,14.406-0.078,21.191,1.255C670.261,919.057,675.072,920.67,678.728,922.965z"/>
				</g>
				<g>
					<path style="fill:#FFB27D;" d="M644.157,918.261c4.891,5.299,21.315,4.515,20.828-0.111c-0.066-0.569-0.173-3.957-0.227-4.481
						c-0.042-0.421-0.083-0.834-0.116-1.222c-0.111-1.141-0.202-2.148-0.276-3.019c-0.219-2.537-0.289-3.911-0.289-3.911
						s-0.008,0-0.017,0c-0.471-0.132-11.031-3.131-16.285-4.374c-1.764-0.418-2.933-0.636-2.912-0.483
						C646.475,912.459,642.556,916.523,644.157,918.261z"/>
				</g>
				<g>
					<path style="fill:#ED975D;" d="M647.218,904.623c0,0,4.411,4.481,17.148,4.804c-0.219-2.537-0.289-3.911-0.289-3.911
						s-0.008,0-0.017,0c-0.471-0.132-11.031-3.131-16.285-4.374C646.85,901.521,648.077,903.987,647.218,904.623z"/>
				</g>
				<g>
					<path style="fill:#FFB27D;" d="M667.306,904.888c0,0-3.225,1.158-7.337,1.709c-6.013,0.813-13.919,0.335-16.401-6.94
						c-4.184-12.244-9.527-19.586,2.783-24.586c6.59-2.677,10.806-2.818,13.67-1.798c2.487,0.882,3.954,2.642,5.065,4.386
						C667.477,881.406,672.285,902.744,667.306,904.888z"/>
				</g>
				<g>
					<path style="fill:#233862;" d="M664.159,868.182c4.397,2.888,2.961,9.656-2.22,10.567c-3.106,0.546-5.711,0.656-7.218,1.326
						c-3.062,1.36-5.692,2.803-4.97,7.553c0.246,1.615,1.033,3.583-3.125,2.606c-0.681-0.159-1.172-0.113-1.51,0.09
						c-1.725,1.022,0.479,5.983,1.144,7.057c0,0,0.956,3.553-1.167,5.283c-0.258,0.206-4.428,2.029-14.478-13.352
						c-1.58-2.414-3.088-7.854-0.648-13.092c2.437-5.236,9.234-11.859,22.038-11.859
						C655.34,864.361,660.351,865.681,664.159,868.182z"/>
				</g>
			</g>
		</g>
		<g>
			<rect x="708.277" y="860.902" style="fill:#E1EFFF;" width="47.265" height="5.705"/>
		</g>
		<g>
			<rect x="708.277" y="909.213" style="fill:#E1EFFF;" width="82.646" height="3.431"/>
		</g>
		<g>
			<g>
				<rect x="708.277" y="896.715" style="fill:#E1EFFF;" width="50.451" height="3.431"/>
			</g>
			<g>
				<rect x="769.294" y="896.715" style="fill:#E1EFFF;" width="50.451" height="3.431"/>
			</g>
		</g>
		<g>
			<g>
				<rect x="708.277" y="921.713" style="fill:#E1EFFF;" width="50.451" height="3.43"/>
			</g>
			<g>
				<rect x="769.294" y="921.713" style="fill:#E1EFFF;" width="50.451" height="3.43"/>
			</g>
		</g>
		<g>
			<rect x="764.754" y="860.902" style="fill:#E1EFFF;" width="33.371" height="5.705"/>
		</g>
	</g>
	<g>
		<g>
			<path style="fill:#F99746;" d="M1974.339,1046.576h-166.95c-8.734,0-15.814-7.08-15.814-15.814V951.24
				c0-8.733,7.08-15.814,15.814-15.814h166.95c8.734,0,15.815,7.081,15.815,15.814v79.522
				C1990.154,1039.496,1983.073,1046.576,1974.339,1046.576z"/>
		</g>
		<g>
			<path style="fill:#8C9DF4;" d="M1883.319,989.214c0,7.874-2.421,15.165-6.562,21.201c-1.74,2.577-3.811,4.909-6.144,6.97
				c-1.353,1.196-2.801,2.295-4.317,3.296c-0.971,0.633-1.973,1.216-3.003,1.768c-0.379,0.204-0.758,0.399-1.138,0.584
				c-4.967,2.411-10.537,3.772-16.428,3.772c-0.302,0-0.584,0-0.885-0.01c-3.004-0.068-5.939-0.496-8.739-1.245
				c-0.195-0.048-0.39-0.097-0.583-0.155c-0.545-0.155-1.07-0.302-1.604-0.485v-0.011c-3.296-1.079-6.396-2.615-9.216-4.52v-0.01
				c-0.68-0.457-1.341-0.943-1.992-1.439c-0.428-0.341-0.855-0.682-1.273-1.041c-0.904-0.758-1.77-1.574-2.596-2.42
				c-2.392-2.431-4.433-5.191-6.086-8.205c-2.945-5.355-4.617-11.51-4.617-18.052c0-20.754,16.837-37.592,37.592-37.592
				C1866.492,951.622,1883.319,968.46,1883.319,989.214z"/>
		</g>
		<g>
			<rect x="1890.864" y="955.19" style="fill:#E1EFFF;" width="34.617" height="5.704"/>
		</g>
		<g>
			<rect x="1890.864" y="1003.5" style="fill:#E1EFFF;" width="62.118" height="3.43"/>
		</g>
		<g>
			<g>
				<rect x="1890.864" y="991.001" style="fill:#E1EFFF;" width="37.919" height="3.431"/>
			</g>
			<g>
				<rect x="1936.725" y="991.001" style="fill:#E1EFFF;" width="37.921" height="3.431"/>
			</g>
		</g>
		<g>
			<g>
				<rect x="1890.864" y="1015.998" style="fill:#E1EFFF;" width="37.919" height="3.43"/>
			</g>
			<g>
				<rect x="1936.725" y="1015.998" style="fill:#E1EFFF;" width="37.921" height="3.43"/>
			</g>
		</g>
		<g>
			<rect x="1932.229" y="955.19" style="fill:#E1EFFF;" width="24.442" height="5.704"/>
		</g>
		<g>
			<g id="man_2_">
				<g>
					<path style="fill:#FFB27D;" d="M1857.808,1017.617c-11.999,3.787-32.763-6.433-32.763-6.433s11.064-8.304,10.484-25.569
						l9.278,7.478l6.303,5.078c0,0-0.026,2.994-0.715,8.241c-0.182,1.381,1.376,4.426,2.725,6.137
						C1856.758,1017.164,1857.808,1017.617,1857.808,1017.617z"/>
				</g>
				<g>
					<path style="fill:#ED975D;" d="M1851.11,998.171c0,0-0.026,2.994-0.715,8.241c-6.983-1.197-14.905-12.485-14.905-12.485
						c3.556-1.026,6.669-1.211,9.317-0.834L1851.11,998.171z"/>
				</g>
				<g>
					<path style="fill:#FFB27D;" d="M1854.78,997.888c0,0-19.821,3.292-21.682-9.083c-1.861-12.376-5.672-20.284,6.904-22.91
						c12.577-2.626,15.751,1.726,17.376,5.705C1859.006,975.579,1859.888,996.711,1854.78,997.888z"/>
				</g>
				<g>
					<path style="fill:#163560;" d="M1863.294,1022.449c-0.379,0.204-0.758,0.399-1.138,0.584
						c-4.967,2.411-10.537,3.772-16.428,3.772c-0.302,0-0.584,0-0.885-0.01c-3.004-0.068-5.939-0.496-8.739-1.245
						c-0.195-0.048-0.39-0.097-0.583-0.155c-0.545-0.155-1.07-0.302-1.604-0.485v-0.011c-3.296-1.079-6.396-2.615-9.216-4.52v-0.01
						c-0.68-0.457-1.341-0.943-1.992-1.439c-0.428-0.341-0.855-0.682-1.273-1.041c1.079-2.537,2.284-4.783,3.625-6.697
						c0.02-0.02,0.04-0.049,0.059-0.068c0,0,0-0.01,0.01-0.01c0.01-0.01,0.01-0.019,0.029-0.029
						c1.254-1.788,2.625-3.275,4.122-4.433c0.067-0.048,0.136-0.106,0.204-0.155c0.846-0.602,6.018,1.924,10.761,4.268
						c4.316,2.129,8.652,2.392,12.734,1.594c0.059-0.01,0.127-0.019,0.186-0.029l4.141,3.665
						C1859.309,1017.852,1861.379,1019.962,1863.294,1022.449z"/>
				</g>
				<g>
					<path style="fill:#2B478B;" d="M1833.082,987.613c0,0,2.034-0.34,1.706-3.142c-0.329-2.801-0.324-6.463,1.954-5.781
						c2.277,0.683,2.391,2.507,3.327,1.442c0.937-1.066,0.952-5.553,7.731-5.865c6.776-0.313,9.531,2.047,12.684,0.661
						c3.15-1.386,3.318-6.156,3.318-6.156s-0.897,1.704-2.251,2.245c0,0,5.258-7.191-0.829-12.124
						c-6.089-4.932-12.296-1.702-15.82-1.489c-7.761,0.47-12.776,0.935-15.312,6.036
						C1827.055,968.541,1828.102,982.704,1833.082,987.613z"/>
				</g>
			</g>
		</g>
	</g>
	<g>
		<g>
			<rect x="1378.941" y="426.92" style="fill:#FFFFFF;" width="6.805" height="227.196"/>
		</g>
		<g>
			<rect x="1668.366" y="426.92" style="fill:#FFFFFF;" width="6.805" height="227.196"/>
		</g>
	</g>
	<g>
		<rect x="1316.542" y="654.116" style="fill:#FFFFFF;" width="421.029" height="34.683"/>
	</g>
	<g>
		<g>
			<path style="fill:#8C9DF4;" d="M2513.862,1459.241c0,0-12.668-14.779-0.782-24.166c0,0,8.684-5.257,15.763-4.83
				c0,0-10.031,16.822-6.786,18.495s9.826-19.55,9.826-19.55s19.759-1.916,26.115,1.14c0,0-16.891,13.823-13.334,14.645
				c3.559,0.823,21.802-12.743,21.802-12.743s18.39,3.13,17.409,14.348s-7.317,14.682-10.102,14.384
				c-2.785-0.299-19.076-6.518-19.432-4.235c-0.354,2.282,9.452,9.739,16.318,10.089c0,0-12.964,14.297-21.581,10.171
				c-8.616-4.127-9.352-10.668-14.724-13.121c-5.371-2.453-9.955-2.447-7.738,0.055c2.218,2.503,11.938,4.935,15.011,10.367
				c3.07,5.434,5.827,9.098-3.087,7.757c-8.916-1.342-23.406-7.864-24.043-15.334
				C2513.862,1459.241,2513.862,1459.241,2513.862,1459.241z"/>
		</g>
		<g>
			<g>
				<path style="fill:#8C9DF4;" d="M2574.84,1446.882c0,0-49.947-1.925-60.978,12.359c0,0-2.44,7.306-9.946,13.958l-1.17,3.189
					c0,0,8.655-9.126,11.752-9.678C2514.498,1466.711,2509.655,1449.015,2574.84,1446.882z"/>
			</g>
			<g>
				<path style="fill:#8C9DF4;" d="M2503.916,1473.199c0,0-10.721,7.929-11.465,22.096l1.945,0.174c0,0,3.424-14.647,9.612-20.376
					C2510.198,1469.364,2503.916,1473.199,2503.916,1473.199z"/>
			</g>
		</g>
	</g>
	<g>
		<g>
			<path style="fill:#8C9DF4;" d="M2469.571,1440.655c0,0,20.151-11.284,10.747-26.599c0,0-7.522-9.405-15.584-11.823
				c0,0,4.3,22.839,0,23.376c-4.299,0.537-2.955-25.793-2.955-25.793s-21.226-10.21-29.555-9.404c0,0,13.165,22.3,8.866,21.763
				c-4.298-0.537-19.077-23.106-19.077-23.106s-21.763-4.03-25.256,8.866c-3.492,12.897,2.15,19.345,5.375,20.151
				c3.224,0.806,23.912,0.537,23.375,3.225c-0.538,2.686-14.51,6.985-22.301,4.567c0,0,8.598,21.226,19.883,20.151
				c11.284-1.075,14.777-8.062,21.763-8.599s12.09,1.344,8.598,3.225c-3.493,1.881-15.314,0.616-20.957,5.413
				s-10.21,7.753,0.269,9.901c10.479,2.149,29.286,0.807,33.049-7.254C2469.571,1440.655,2469.571,1440.655,2469.571,1440.655z"/>
		</g>
		<g>
			<g>
				<path style="fill:#8C9DF4;" d="M2406.7,1401.965c0,0,56.423,18.271,62.871,38.69c0,0-0.269,9.136,5.373,19.614v4.03
					c0,0-5.91-13.703-9.134-15.584C2465.811,1448.716,2478.438,1430.982,2406.7,1401.965z"/>
			</g>
			<g>
				<path style="fill:#8C9DF4;" d="M2474.944,1460.27c0,0,8.702,13.213,3.741,29.298l-2.238-0.602c0,0,2.173-17.716-2.379-26.627
					C2469.516,1453.43,2474.944,1460.27,2474.944,1460.27z"/>
			</g>
		</g>
	</g>
	<g>
		<g>
			<path style="fill:#5976D3;" d="M2501.63,1425.093c0,0-26.563-14.876-14.166-35.063c0,0,9.916-12.396,20.542-15.583
				c0,0-5.667,30.104,0,30.813c5.666,0.708,3.896-34.001,3.896-34.001s27.979-13.458,38.958-12.396c0,0-17.354,29.397-11.688,28.688
				c5.668-0.708,25.146-30.459,25.146-30.459s28.688-5.313,33.293,11.688c4.604,17.001-2.834,25.501-7.084,26.563
				c-4.25,1.062-31.521,0.708-30.813,4.25c0.708,3.541,19.125,9.209,29.396,6.021c0,0-11.334,27.979-26.209,26.563
				c-14.876-1.417-19.479-10.626-28.688-11.334c-9.208-0.708-15.938,1.771-11.333,4.251c4.604,2.479,20.188,0.812,27.625,7.136
				c7.438,6.322,13.459,10.219-0.354,13.052s-38.605,1.063-43.563-9.563C2501.63,1425.093,2501.63,1425.093,2501.63,1425.093z"/>
		</g>
		<g>
			<g>
				<path style="fill:#5976D3;" d="M2584.506,1374.091c0,0-74.376,24.085-82.876,51.002c0,0,0.354,12.042-7.083,25.854v5.313
					c0,0,7.792-18.063,12.042-20.542C2506.589,1435.718,2489.942,1412.342,2584.506,1374.091z"/>
			</g>
			<g>
				<path style="fill:#5976D3;" d="M2494.547,1450.947c0,0-11.471,17.418-4.931,38.62l2.95-0.793c0,0-2.864-23.353,3.137-35.099
					C2501.705,1441.93,2494.547,1450.947,2494.547,1450.947z"/>
			</g>
		</g>
	</g>
	<g>
		<path style="fill:#7FA1F7;" d="M2500.735,1535.546c28.736,0,52.033-23.296,52.033-52.033h-104.066
			C2448.702,1512.25,2471.999,1535.546,2500.735,1535.546z"/>
	</g>
	<g>
		<path style="fill:#7FA1F7;" d="M2553.487,1538.193h-105.504l0,0c0-3.545,2.875-6.42,6.421-6.42h92.662
			C2550.612,1531.773,2553.487,1534.648,2553.487,1538.193L2553.487,1538.193z"/>
	</g>
	<g>
		<rect x="2446.992" y="1483.513" style="fill:#5976D3;" width="106.959" height="1.596"/>
	</g>
	<g>
		<path style="fill:#233862;" d="M2608.861,1544.369H183.82c-1.535,0-2.791-1.256-2.791-2.791v-1.04
			c0-1.535,1.256-2.791,2.791-2.791h2425.041c1.535,0,2.791,1.256,2.791,2.791v1.04
			C2611.652,1543.113,2610.396,1544.369,2608.861,1544.369z"/>
	</g>
	<g>
		<polygon style="fill:#6980E2;" points="1149.593,948.718 999.576,948.718 999.435,948.576 819.544,768.685 580.525,768.685 
			580.525,767.713 819.946,767.713 999.979,947.746 1149.593,947.746 		"/>
	</g>
	<g>
		<path style="fill:#6980E2;" d="M1144.65,948.231c0-2.73,2.212-4.943,4.942-4.943s4.943,2.213,4.943,4.943
			c0,2.729-2.213,4.942-4.943,4.942S1144.65,950.961,1144.65,948.231z"/>
	</g>
	<g>
		<path style="fill:#6980E2;" d="M575.582,768.199c0-2.73,2.214-4.943,4.943-4.943c2.73,0,4.943,2.213,4.943,4.943
			c0,2.73-2.213,4.942-4.943,4.942C577.796,773.142,575.582,770.93,575.582,768.199z"/>
	</g>
	<g>
		<polygon style="fill:#6980E2;" points="659.647,991.486 527.431,991.486 527.431,827.427 528.402,827.427 528.402,990.515 
			659.647,990.515 		"/>
	</g>
	<g>
		<path style="fill:#6980E2;" d="M654.74,992.012c-0.328-2.711,1.603-5.174,4.313-5.501c2.71-0.328,5.173,1.603,5.501,4.314
			c0.328,2.709-1.604,5.172-4.313,5.5C657.531,996.652,655.068,994.721,654.74,992.012z"/>
	</g>
	<g>
		<path style="fill:#6980E2;" d="M523.009,828.021c-0.327-2.71,1.604-5.173,4.313-5.501c2.711-0.328,5.174,1.603,5.502,4.313
			c0.327,2.711-1.603,5.173-4.313,5.502C525.801,832.662,523.338,830.731,523.009,828.021z"/>
	</g>
	<g>
		<polygon style="fill:#6980E2;" points="2088.282,927.771 2001.049,840.537 1213.935,840.537 963.112,589.715 774.56,589.715 
			774.56,588.742 963.515,588.742 1214.337,839.565 2001.452,839.565 2001.595,839.707 2088.971,927.083 		"/>
	</g>
	<g>
		<path style="fill:#6980E2;" d="M2083.684,928.503c0-2.73,2.213-4.942,4.943-4.942c2.729,0,4.942,2.213,4.942,4.942
			c0,2.73-2.214,4.943-4.942,4.943C2085.896,933.446,2083.684,931.233,2083.684,928.503z"/>
	</g>
	<g>
		<path style="fill:#6980E2;" d="M769.617,589.227c0-2.729,2.213-4.942,4.942-4.942s4.942,2.213,4.942,4.942
			c0,2.731-2.213,4.943-4.942,4.943S769.617,591.958,769.617,589.227z"/>
	</g>
	<g>
		
			<rect x="1572.095" y="842.046" transform="matrix(0.7071 -0.7071 0.7071 0.7071 -180.3432 1377.4694)" style="fill:#6980E2;" width="0.973" height="128.764"/>
	</g>
	<g>
		<path style="fill:#6980E2;" d="M1613.162,951.953c0-2.73,2.213-4.943,4.942-4.943c2.73,0,4.943,2.213,4.943,4.943
			c0,2.729-2.213,4.942-4.943,4.942C1615.375,956.896,1613.162,954.683,1613.162,951.953z"/>
	</g>
	<g>
		<path style="fill:#6980E2;" d="M1522.113,860.902c0-2.729,2.213-4.942,4.943-4.942c2.729,0,4.941,2.213,4.941,4.942
			c0,2.731-2.212,4.943-4.941,4.943C1524.326,865.846,1522.113,863.633,1522.113,860.902z"/>
	</g>
</g>
</svg>
