<svg xmlns="http://www.w3.org/2000/svg" viewBox="-23.44000244140625 -2.8643 621.8800048828125 527.2793021362304"> <svg xmlns="http://www.w3.org/2000/svg" xmlns:xlink="http://www.w3.org/1999/xlink" version="1.1" x="133.677" y="67.1357" viewBox="62.860836029052734 62.965152740478516 366.13922119140625 364.13482666015625" xml:space="preserve" height="305.9624386875137" width="307.6466234821685" preserveAspectRatio="xMinYMin" enable-background="new 0 0 500 500" style="overflow: visible;"><path class="st0" d="M262.3,63.7l-8-0.5c4.8,0.4,8.2,0.7,10.9,0.9C264.3,63.9,263.3,63.8,262.3,63.7z" style="fill: #CBE9FB;"></path><path class="st0" d="M283.4,66.8L283.4,66.8c-0.4-0.1-0.7-0.1-1.1-0.2c-7.8-1.5-10.9-2-17-2.6c6,0.8,13.1,1.9,18.6,2.9    C283.8,66.9,283.6,66.9,283.4,66.8z" style="fill: #CBE9FB;"></path><path class="st0" d="M418,184.2l-0.6-1.8c-0.1-0.2-0.2-0.4-0.2-0.6c0,0,0,0.1,0,0.1C417.5,182.6,417.7,183.4,418,184.2z" style="fill: #CBE9FB;"></path><path class="st0" d="M368.6,110.1l-0.6-0.5c-0.3-0.3-0.7-0.6-1.1-0.9C367.5,109.2,368,109.6,368.6,110.1    C368.5,110.1,368.6,110.1,368.6,110.1z" style="fill: #CBE9FB;"></path><path class="st0" d="M359.8,106c0.3-1-3.7-4.6-6.2-6.6c-5-4-11.4-8-13.7-8.6c-0.1,0-0.3,0-0.4,0.1    C339.7,92.2,357.8,106.9,359.8,106z" style="fill: #CBE9FB;"></path><path class="st0" d="M312.8,78.1c-0.1-0.7-2.9-2.2-6-3.5c0,0,0,0,0,0c2.9,0.2,5.2,0.7,7,1.4l-5.6-2.1c-1.7-0.6-3.8-1-6.3-1.2    c0.1,0,0.2,0.1,0.3,0.1c-5-1.8-9.9-3.1-11.7-3.2c-0.1,0-0.2,0-0.3,0c0,0,0,0.1,0,0.1C291.1,70.7,311.9,79.2,312.8,78.1z     M306.3,74.4c0.1,0,0.1,0.1,0.2,0.1c0,0,0,0,0,0C306.5,74.5,306.4,74.4,306.3,74.4z" style="fill: #CBE9FB;"></path><path class="st0" d="M162.9,88.4c0.6,1.8,5.1-0.8,7.1-4.5c4.4-1.8,9-3.6,13.6-5.4c0.5-0.2,0.7-0.6,0.6-0.9c0,0-1.1-3-1.4-3.5    l-0.8,0.3c-0.1,0.9-0.1,0.9,0.4,3.3c-4,1.5-8,3.1-11.8,4.7c0,0,0,0,0,0c0.2-0.8,0.2-1.6-0.9-1.3c0,0,0,0,0.1,0    c1.4-1.6,2.9-2.8,4.7-3.6l-0.8,0.4c-1.9,0.8-3.6,2.1-5.1,3.8c0,0,0,0,0,0c-1.6,0.9-3.6,2.5-4.7,4c0.1-0.2,0.2-0.3,0.4-0.5    c-11.1,5-23.6,11-32.8,18.1l-5.4,4.5c3.3-2.7,12-9.8,36.9-20.8C162.8,87.5,162.7,88,162.9,88.4z" style="fill: #CBE9FB;"></path><polygon class="st0" points="406,239.9 406,239.9 406,239.9   " style="fill: #CBE9FB;"></polygon><path class="st0" d="M155.2,352.9c-0.1-0.1-0.1-0.2-0.2-0.3c-11.9,7.6-20.7,14.7-25.2,20.7c-4.2,5.5-4.4,9.6-1.1,12.3l4.6,3.7    c-3.4-2.6-3.3-6.7,0.9-12.3c4.4-5.9,13-12.8,24.7-20.3C158.3,356.3,156.8,354.9,155.2,352.9z" style="fill: #CBE9FB;"></path><path class="st0" d="M379.2,226c-3.6,0.9-5.2,5.9-5.1,11.3c-7.2,1.2-15.1,2.8-23.5,4.7c-9.9-10.8-25.1-25.7-27.3-25.4    c-9.2,2.4-18.8,5.2-28.8,8.3c0.1,0.2,0.1,0.3,0.2,0.5c-2.4-5.1-7.3-9-13.1-7.5c-9.8,3.9-7.6,19.8,1.3,24.8    c7.7,4.4,14.8-2.5,13.5-12c9.7-3,19-5.6,27.8-8c5.1,4.5,11.9,10.4,16.5,15.4c9.3,10,9.3,10,10.2,10c8.6-2,16.6-3.6,23.9-5.2    c0.7,3.4,2,6.6,3.9,8.3c4.2,4,8.8-2.1,8.5-11.4C386.8,233,383.7,225.8,379.2,226z" style="fill: #CBE9FB;"></path><path class="st0" d="M405.2,207.6c2.8,1.6,4.1-3.3,2.8-10.2c0,0.2,0.1,0.3,0.1,0.5c9.6,0.8,15.2,3.4,16.2,7.8l-1.5-6l-0.1-0.3    l-2.2-7.7l-1-3c1.1,3.3,2.1,6.6,2.9,10c-1.7-3.7-7.2-5.9-15.8-6.6c0.1,0.2,0.1,0.3,0.2,0.5c-1.8-5.4-4.7-10.5-7.3-10.9    c-0.1,0-0.3,0-0.4,0.1C394.5,183,399.6,204.6,405.2,207.6z" style="fill: #CBE9FB;"></path><path class="st0" d="M420.3,299.7c-0.1,0.5-0.2,1.1-0.4,1.7l1.7-5.7c0.2-0.7,0.3-1.3,0.3-1.9l0,0c-0.3,0.5-1.5,4.8-1.6,5.5    C420.3,299.4,420.3,299.5,420.3,299.7z" style="fill: #CBE9FB;"></path><path class="st0" d="M428.7,243.5L428.7,243.5L428.7,243.5c0-0.1,0-0.3,0-0.5c-0.1-6.1-8.3-9.1-22.8-9c0,0.4,0.1,0.7,0.1,1    c-0.4-6.1-2.6-12.2-5.9-12.4c-1.2,0.2-2.1,1.2-2.8,2.6c-12-20.7-18.7-30-40.1-51.2c-0.5-0.4-0.6-0.5-1.1-0.6    c-4.2,0.7-8.3,1.5-12.5,2.3c-3.2-8.3-6.8-16.1-10.6-23.6c23.7-4.9,42.5-6.9,54.8-5.8c0.1,0,0.2-0.1,0.2-0.2c0-0.2,0-0.4,0-0.5    c-5.4-20.7-14.4-29.9-22.3-38c0,0-0.1-0.1-0.1-0.1c0.4,0.4,0.9,0.7,1.3,1.1c-4.7-4-12.5-10.3-17.7-13.8c3.9,2.9,8.7,6.6,13.1,10.1    c12,12.1,16.5,18.5,22.2,36.4c-12.2-1-30.7,1-54.1,5.8c-2.6-4.9-5.4-9.6-8.4-14.2c-0.1-0.2-0.2-0.3-0.4-0.4c0,0,0.1,0.1,0.1,0.1    c2.9-1.8,2.4-5.5,0.5-9c0,0.1,0.1,0.1,0.1,0.2c7.2-1.4,13.9-2.5,20-3.2c0.4-0.1,0.5-0.2,0.4-0.7c-2.1-10.3-2.9-12.1-6.9-20.8    c5-0.3,9.3-0.2,12.9,0.2c-1.6-1.2-2.9-2.2-4.3-3.4c-3.7-0.4-8.1-0.4-13.1-0.1c-0.1,0-0.1,0.1-0.2,0.1c0,0.1,0,0.3,0.1,0.4    c4.3,8.3,4.8,10.3,7.1,20.2c-5.9,0.8-12.3,1.8-19.2,3.1c0.1,0.1,0.2,0.3,0.3,0.4c-3.4-3.7-8.4-6.7-12.7-6.1    c-0.5,0.2-1.2,0.4-1.8,0.8c-4.5,3.9,3.6,16.8,13.3,18.3c-0.1-0.3-0.2-0.6-0.2-1c0-0.4,0.3-0.8,0.7-0.9c-0.4,0.2-1.2,0.7-0.2,2.6    c2.8,4.5,5.5,9.2,8.1,14.1c-4.2,0.9-8.5,1.9-12.9,2.9c0.1,0.2,0.2,0.3,0.3,0.5c-2.9-4.4-8-8-13-7c-0.4,0.1-0.8,0.3-1.2,0.4    c-1.1,0.6-2,1.4-2.5,2.4c-15.1-8.7-17.5-10-32.8-17.6c-0.8-0.3-1-0.3-1.7-0.2c-3.3,1-6.7,2-10.1,3.1c-5.5,1.7-11.1,3.5-16.6,5.3    c0.2,0.3,0.4,0.5,0.6,0.8c-2.8-4.1-7.9-6.2-12.3-4.8c0.6-0.2,1.3-0.3,2-0.4c-1.9-4.1-3.7-7.9-5.5-11.6c7.1-2.4,14.3-4.8,21.5-7    c15.8-4.9,30.4-8.9,43.6-11.9c0.2-0.1,0.4-0.3,0.5-0.4c-0.7-10.4-0.7-10.6-2.4-15.9c24-4.7,41-5.3,47.9-1.6l-5.3-2.7    c-7-3.4-23.5-2.8-46.8,1.8c-0.1,0.1-0.3,0.3-0.4,0.4c2.2,8.3,2.3,8.8,2.6,15.1c-12.7,3-26.8,6.8-42,11.5c-7,2.2-14.1,4.5-21,6.9    c-3.7-7.6-7.3-14.3-10.7-20c-0.1,0-0.1,0.1-0.2,0.1c2.6-1.4,3.9-4.4,2.2-7.2c-1.3-2.3-5.3-5-9.9-3.6c-0.3,0.1-0.8,0.3-1.1,0.5    c-4.6,2.7-2.8,9.5,3,11c1.1,0.3,2.2,0.4,3.2,0.2c3.1,5.9,6.5,12.7,10,20.3c-7.1,2.5-14.1,5-21,7.6c-15.8-8.5-19.2-10.6-27.9-16.4    c0.4-1.1,0.7-2.3,0.7-3.6c0.1-3.4-2-6.1-5.4-4.7c0.4-0.2,0.7-0.3,1.1-0.3c0.3-3.6,0.8-6.8,1.4-9.6c8.5-3.5,21.4-8.9,40.4-15    c-0.3-0.2-0.9-0.5-1.4-1c1.7,1.5,5.4,2.8,8.6,2.3c-0.1,0-0.1,0-0.2,0c4.3,3.5,8.9,8.3,13.6,14.1c0,0,0,0,0.1,0    c-0.2,0.1-0.3,0.2-0.5,0.3c-4.8,3.6,0,11.6,7.6,12.7c6.7,1,10.6-3.9,7.1-8.9c-1.1-1.6-2.8-2.9-4.7-3.8c0,0,0.1,0,0.1,0.1    c1.2-8.3,1.4-9.4,0.9-14.4c12.7-3.4,24-5.9,33.6-7.4l6.8,1.6c4.3,2.9,16.3,7.4,19.1,6.6c1.7-0.5-0.5-2.7-4.9-4.7    c-5-2.4-11.9-4.2-14.9-4c-0.3,0.1-0.6,0.1-0.7,0.3c-0.1,0.2-0.1,0.4,0.1,0.7l-8-1.8c-0.5-0.1-0.6-0.1-1-0.1    c-9.5,1.4-20.7,3.9-33.3,7.3c-0.5,0.2-0.5,0.2-0.2,5.6c0.1,2.8-0.7,6.5-1.2,9.2c0.2,0,0.4,0.1,0.5,0.1c-1.3-0.3-2.6-0.3-3.8-0.2    c0.2,0,0.3-0.1,0.5-0.1c-4.9-5.7-9.7-10.4-14.3-13.8c0,0,0,0,0,0c1.7-0.9,1.7-2.5-0.1-3.7c0,0,0.1,0,0.1,0.1    c17.3-4.7,27.8-7.5,42.6-9.2c10,1.3,21.4,2.7,36,6.7c-0.8-0.3-1.7-0.7-2.4-1.1c-0.1,0-15.3-4.5-36.9-6.2c-0.3,0-0.6,0-0.8,0    c-10.4,1-24.2,3.9-40.6,8.8c0.1,0,0.2,0.1,0.2,0.1c-2.2-0.8-5-1.1-7.2-0.7c0,0,0.1,0,0.1,0c-4.7-2-9.1-2.5-13.1-1.3l-0.8,0.2    l-0.3,0.1c3.7-1.1,7.8-0.6,12.3,1.5c0,0,0,0,0,0c-0.3,0.2-0.6,0.4-0.8,0.7c-0.4,0.7-0.1,1.6,0.7,2.4c-0.1-0.1-0.1-0.1-0.2-0.2    c-13.3,4.2-26.3,9-38.2,14.1c0.2-0.5,0.3-1,0.5-1.5l-0.1,0.1c-0.6,0.4-1.1,0.6-1.6,0.7c-0.2,0.5-0.4,1-0.6,1.6    c-22.6,9.7-41,20.1-48.7,27.8l-4.3,4.6c9.3-9.1,26.9-19.2,52.3-30.2c-0.8,2.9-1.4,6.2-1.8,9.8c0.1-0.1,0.2-0.1,0.2-0.1    c-4.4,2.7-6.8,10.1-4,12.9c2,2,5.5,0.8,7.9-2c0,0,0,0,0,0c9.1,6.2,12.2,8.2,28.8,17.4c0.6,0.3,0.8,0.3,1.5,0.1    c7.3-2.8,14.7-5.5,22.2-8.1c1.7,3.7,3.5,7.6,5.3,11.7c0,0,0,0,0,0c-3.2,2-4.3,5.8-3.7,9.5c-24,8.2-47.1,17.5-67.8,27    c-1.9-11.6-3-22.4-3.2-32.3c-0.2,0.2-0.4,0.3-0.6,0.4c2.8-1.9,5.4-6.1,5.6-10.7c0.2-3.4-1.2-8.1-5.8-6.3    c-3.5,1.8-6.1,6.4-6.7,10.5c0-0.3,0.1-0.6,0.2-0.9c-22.7,10.5-41.3,21.3-52.4,30.4c2.2-5.5,4.6-10.8,7.4-16    c12-9.9,34-21.9,60.3-33.5c0-0.5-0.1-1.5,0.2-3c-25.7,11.2-47.1,23-58.6,32.6c0,0,0,0.1,0,0.1c0,0-0.1,0-0.1,0    c-0.4,0.5-0.6,0.8-0.8,1.1c0.5-0.7,0.7-1,0.8-1.1c0,0,0.1-0.1,0.1-0.1c-2.8,2.3-5,4.6-6.6,6.6c-0.4,0.5-0.7,0.9-1,1.4l-3.1,5.2    c0.3-0.6,0.8-1.2,1.3-1.9c1.5-2,3.6-4.1,6.3-6.4c-2.8,5.2-5.3,10.5-7.6,16.1c-3,2.5-5.3,4.9-7,7.1c-1,1.3-1.7,2.5-2.2,3.6    l-2.2,5.5c0.7-1.2,1.7-2.8,2.3-4c1.7-2.3,4.1-4.7,7.2-7.3c-5.3,14.5-8.4,30.1-9.3,46.3c-3.7,3.1-6.6,6.1-8.6,8.8    c-1.1,1.5-1.9,2.8-2.5,4.1l-0.3,5.2c0-0.5,0.1-1,0.1-1.5c0.6-10.6,0.6-10.6,0.5-11c0,0,0,0,0,0c0,0,0,0,0,0c0.3-2.3,0.7-4.5,1-6.7    c1-4.2,1.9-8.4,2.9-12.6c1.4-5.8,2.6-9.8,3-11.2l-1.2,3.9c-1.7,6.1-3.6,14.4-4.9,20.7c0,0,0,0.1,0,0.1c0,0,0,0.1,0,0.1    c-0.4,2.2-0.8,4.5-1.1,6.8c0,0,0-0.1,0-0.1c-0.1,0.8-0.3,1.9-0.3,2.4c-0.6,5.2-1,12.1-1.3,17.2c-0.1,3.4,0,5.3,0.2,5.5    c0,0,0,0,0,0c0.2,19.6,3.7,39.5,10.9,59c4,10.9,9.1,21.3,14.9,30.9c-0.4,1.9-0.1,3.5,0.7,4.9l3.3,5.2c-1.1-2.9-2.2-5.6,2.8-12.1    c1.7-2.2,3.9-4.6,6.6-7.1c2.2,2.9,4.7,5.1,7,5.4c0.4,0.1,0.7,0,1,0c-0.1,0-0.1,0-0.2,0.1c1.3,2,2.7,3.9,4.1,5.8    c-1.8,4.9,8.5,18.6,15.4,19.7c4.7,0.7,2.8-5.8-2-12.2c-4-5.3-9.5-9.7-12.2-8.7c0.1-0.1,0.3-0.1,0.5-0.1c-1.4-1.9-2.8-3.9-4.1-5.9    c-0.1,0.3-0.3,0.5-0.4,0.7c1.3-1.6,0.7-5.9-1.6-10.9c5.2-4,11.4-8.2,18.4-12.6c7.1,12.4,15.1,24.1,24,34.8    c-3.2,4.8,6.9,17.5,15.4,18.5c6,0.7,5.1-5.8,0.2-11.9c-3.9-4.8-9.9-8.9-13.7-8c0.1,0,0.2-0.1,0.3-0.1    c-8.5-10.8-16.5-22.5-23.6-34.9c16-9.7,36-20,58.5-30.1c1.6,2.2,3.7,4.1,6.2,5c1.4,0.6,2.8,0.8,4,0.6c2.4,5.2,4.9,10.3,7.5,15.3    c-7.4,3.3-14.5,6.5-21.3,9.8c-1.1,0.8-2.8,19.1,1.6,45.9c0,0,0,0,0,0c-1.6-0.4-3.1-0.4-4.4,0.2c-0.1,0.1-0.3,0.2-0.5,0.3    c-5,4,5.7,16.6,14.8,17.5c0.7,0.1,1.2,0,1.7,0c0,0-0.1,0-0.1,0c5.1,4.5,10.2,8.8,15.5,12.7c-15,8.6-25.5,15.4-31.7,23.1    c-3.4,4.5-3.3,7.7-0.2,9.7c-9.7-3.5-19.1-7.8-28-12.9c-3.7-2.4-3.8-6.2,0.2-11.5c5.3-7.1,17.3-15.8,33.6-25.2    c-0.6-0.5-2.2-1.7-3.8-3.5c-0.1-0.1-0.1-0.2-0.2-0.3c-16.7,9.6-29,18.6-34.5,25.8c-4.1,5.5-4,9.4-0.2,11.8l-3.4-2.2    c1.1,0.7,2.3,1.5,3.4,2.2c0.1,0,0.1,0.1,0.2,0.1l5.1,3l4.1,2.3c7.7,4.2,15.8,7.7,24.1,10.7c0.5,0.3,1,0.5,1.7,0.7l5.7,1.9    c-5.3-1.7-6.5-5.2-2.4-10.5c4.7-6.2,15.6-14,30.5-22.3c1.1,0.7,2.1,1.5,3.2,2.2c0,0,0,0,0-0.1c-1.2,2,2.3,5.3,6.8,7.8    c-0.9-0.5-1.7-1-2.6-1.6c-12,6.9-20.8,13.3-24.7,18.5c-4,5.3-2.4,8.6,3.6,9.9l6,1.3c-6.3-1.2-8-4.3-4.1-9.6    c3.7-4.9,12.1-11.1,23.5-17.6c3.6,1.7,7.5,2.8,10.1,2.4c0,0-0.1,0-0.1,0c13.7,7.1,27.6,11.8,41.2,13.7c1.7,0.2,2.1,0.2,2.4,0.1    c-0.2-0.2-0.3-0.2-1.8-0.5c-13.3-2.1-26.9-7-40.3-14.2l0,0.1c0,0,0,0-0.1,0.1c0.8-1.1-1.1-3.5-4.1-5.7c4.5-2.4,9.4-4.8,14.5-7.2    c12.5,11,25,19.2,36.7,23.6c1.1,0.4,1.4,0.4,1.8,0.4c-0.1-0.4-0.1-0.4-1-0.8c-11.8-4.9-24.5-13.7-37.1-25.7    c-1.1-0.9-1.9-1.3-2.7-1c-5.8,2.7-11.2,5.4-16.2,8.1c0,0,0,0,0.1,0c-4.1-2.3-8-3.5-10.3-3c0.1,0,0.1,0,0.2-0.1    c-1-0.7-2.1-1.5-3.1-2.2c12.5-6.8,27.6-14,44.1-20.8c1.5,1.8,3.5,3.4,5.7,4.2c1,0.4,1.9,0.5,2.7,0.4c0,0-0.1,0-0.1,0    c9.3,16,18,28.6,25.4,36.5c0.6,0.6,0.8,0.7,1.1,0.7c0.1,0,0.1-0.1,0.2-0.1c0-0.2-0.1-0.4-0.5-0.9c-6.8-8.1-15-20.9-24-37.1    l-0.1,0.1c-0.1,0.1-0.1,0.1-0.2,0.1c2-1.5,2.4-5,1.2-8.7c0,0.1,0.1,0.2,0.1,0.3c13.1-5.1,26.9-9.9,40.6-14.2    c9.1-2.8,17.7-5.2,25.7-7.3c0.6-0.4,0.6-0.4,1-0.9c0.1-0.1,10.1-17.6,19.1-34.3c3.3,4.5,8.3-1.6,9.8-9.4c0,0.1,0,0.2,0,0.3    c7.6-1.3,14.4-2.2,20.4-2.7c-0.4,3.8-0.3,7.2,0.7,8.7c0.2,0.2,0.3,0.4,0.5,0.5c0,0-0.1,0-0.1,0c-0.4,1.4-0.7,2.8-1.1,4.2    c0,0,0.1,0,0.1-0.1c-2.2,1.3-4.9,6.5-6.7,11.7c0.2-0.6,0.4-1.3,0.7-2c0-0.1,0.1-0.2,0.1-0.3c-3.6,0.3-7.5,0.7-11.8,1.4    c-0.5,0.3-0.5,0.3-7.6,11.5c-0.1,0.1-8.2,13-20,30c0,0.1,0.1,0.2,0.1,0.3c-0.3-1-0.9-1.5-1.8-1.4c-2.5,0.8-4.9,4.6-6.5,8.6    c-6.7,1.6-13.9,3.6-21.7,6c-6.9,2.2-13.9,4.5-20.7,7c-0.3,0.2-0.8,0.5-0.5,1.9c3.3,9.6,6.1,17.6,8.1,23.6c0.3,0.8,0.5,0.8,0.8,0.9    c0.2-0.3,0.3-0.5,0.1-1.2c-1.5-5.8-3.7-13.3-6.4-22.2c6.1-2.2,12.3-4.3,18.5-6.2c7.3-2.3,14.2-4.2,20.4-5.7    c-0.6,2.4-0.8,4.5-0.5,5.5c0.1,0.4,0.3,0.6,0.6,0.7c0,0,0,0-0.1,0c-3.7,8.2-8,15.5-12.9,21.9c-0.8,1.1-0.8,1.2-0.9,1.5    c0.1,0,0.4-0.1,1.7-1.6c5.2-6.5,9.7-13.9,13.6-22.1c0,0,0,0,0,0c1.9-1.2,4.6-4.9,6.4-8.8c1.1-2.3,1.7-4.4,1.9-6.1    c0,0.1,0,0.1,0,0.2c12.7-17.9,15.9-22.7,26.6-39.3c4-0.6,7.6-1,11-1.3c-1,3.6-1.4,6.8-0.8,8.2c0.1,0.3,0.3,0.4,0.4,0.6    c-0.1,0-0.1-0.1-0.2-0.1c-11,26.4-27.4,49.7-48.5,67.2c-1.1,0.9-1.3,1.1-1.8,1.5c0.5-0.2,0.6-0.2,2.3-1.6    c21.5-17.5,38.3-40.8,49.5-67.2c-0.1,0.1-0.2,0.1-0.3,0.2c1.7-0.8,4.4-4.6,6.6-9.4c-0.1,0.1-0.1,0.2-0.2,0.4    c6.3,0,11,0.7,13.7,2.3c-1.9,4.3-3.3,8-3,8.9c0,0,0,0,0,0c-14.4,25.9-35.1,48.8-61,65.8c-1.4,0.9-1.6,1.1-2.3,1.5    c0.8-0.4,0.8-0.4,2.4-1.4c26-16.9,46.8-39.7,61.3-65.8l-0.1,0c0,0,0,0,0,0c0.8-0.4,2.9-3.4,5.1-7.5c-0.1,0.1-0.1,0.3-0.2,0.4    c0.5,0.8,0.8,1.6,0.7,2.6l0-0.1c0-0.1,0.1-0.3,0.2-0.5c-0.1,0.3-0.2,0.5-0.2,0.6c0,0.1,0,0.3,0,0.4c-0.1,0.9-0.4,2-1,3.1l2.6-5.3    c0.6-1.2,0.9-2.3,0.9-3.2l0,0c0-1-0.2-1.8-0.7-2.6c-0.1,0.3-0.3,0.6-0.4,0.9c2.8-6.1,4.3-11.2,3.7-12c0.1,0.1,0.1,0.3,0.1,0.5    c0.4-1.1,0.8-2.2,1.2-3.3l0,0c0,0-0.1,0-0.1,0c0.8-0.4,2.6-4.2,4.2-9c-0.1,0.2-0.1,0.4-0.2,0.7c0.6,0.9,0.9,1.9,0.8,3l0-0.1    c0.2-1.1,1.4-4.8,1.6-5.3c0-1.1-0.3-2.1-0.8-3c0,0.1,0,0.2-0.1,0.3c1.4-5.5,2.1-10.3,1.4-11.3c0,0-0.1-0.1-0.1-0.1    c-0.7,0-2.3,4-3.8,8.8c-3.3-1.8-8.8-2.7-16.3-2.7c0,0.1,0,0.2,0,0.3c0.7-5.3,0-9.4-1.9-10c0.1,0,0.2,0.1,0.3,0.1    c0.3-1.4,0.5-2.8,0.7-4.2c15.4-0.6,24.1,2.2,24,8.3l0-0.1c0.1-0.4,0.2-1,0.3-1.7c-0.2,0.9-0.3,1.6-0.3,1.9c0,0.2,0,0.3,0,0.5    c0,0.3-0.1,0.5-0.1,0.8l0.9-4.9l0.2-0.9c0.1-0.4,0.1-0.7,0.1-1.1l0,0c0.1-6.2-8.7-9-24.4-8.5c0.5-5.8,0.8-11.6,0.8-17.5    c-0.6,0.4-1.1,0.4-1.7,0.3c2.4,0.7,4.5-3.4,5-9.4c0,0.1,0,0.2,0,0.3c14.7-0.1,22.8,2.9,22.7,9.1c0,0,0-0.4,0-1c0,0.4,0,0.8,0,0.9    l0-1.1l0-0.6c0-0.6,0-1.2,0-1.9c0,0,0-0.1,0-0.1c0-0.1,0-0.1,0-0.2C428.7,244.5,428.7,244,428.7,243.5z M319.2,131.2    c0.3,0,0.6,0,1,0.2C319.9,131.3,319.6,131.2,319.2,131.2z M97.7,142.8c-0.1,0.2-0.2,0.5-0.6,1.1C97.3,143.6,97.5,143.2,97.7,142.8    z M96.5,144.1c-0.1,0.2-0.3,0.5-0.5,0.8C96.2,144.6,96.3,144.3,96.5,144.1z M66.2,213.5c-0.1,0.3-0.1,0.5-0.1,0.6    C66.2,213.8,66.2,213.6,66.2,213.5z M241.7,399.7c-0.1,0.1-0.2,0.1-0.4,0.2C241.5,399.8,241.6,399.8,241.7,399.7z M223.6,388    c-0.3,0.1-0.6,0.2-0.9,0.3C222.9,388.2,223.2,388.1,223.6,388z M385.3,328.6c0.2,0.1,0.5,0,0.7-0.1    C385.7,328.7,385.5,328.7,385.3,328.6z M163.9,166.9C163.9,166.9,163.9,166.9,163.9,166.9c0,0-0.1,0-0.1-0.1    C163.8,166.8,163.8,166.8,163.9,166.9z M163.5,166.7c-0.4-0.1-0.9,0-1.3,0.2C162.7,166.6,163.1,166.6,163.5,166.7z M162.1,167    c-0.3,0.4-0.6,0.7-0.8,1.2C161.4,167.7,161.7,167.3,162.1,167z M93,328.8C93,328.8,93,328.8,93,328.8c-1.7,2.3-2.8,4.3-3.4,6.1    c-5.9-9.7-10.9-20-14.9-31c-7.2-19.5-10.7-39.4-11-59c0,0,0,0,0,0c0.2-1.6,0.4-5.2,0.9-12.1c0.6-1.3,1.4-2.6,2.5-4.1    c2.1-2.8,5-5.8,8.8-8.9c-0.5,22.1,3.3,45.2,11.8,68.2c2.8,7.5,5.9,14.7,9.5,21.7c-1.2,2.5,0.1,7.4,2.5,12    C96.9,324.2,94.7,326.6,93,328.8z M107.1,315.4c0.1,0.1,0.2,0.3,0.2,0.4c-3.1-4.8-7.1-8.5-9.3-7.2c0,0,0.1-0.1,0.1-0.1    c-2.9-7.2-6-14.4-8.8-21.9c-8.5-23-12.3-46.1-11.9-68.1c5.4-4.4,12.3-9.2,20.3-14.2c0.7,21.2,5.1,43.9,13.6,66.9    c4,10.9,8.8,21.5,14.2,31.6C118.5,307.2,112.3,311.4,107.1,315.4z M97.7,201.7c0-0.1,0-0.2,0-0.3c0,0.6,0,1,0,1.5    C97.7,202.5,97.7,202.1,97.7,201.7z M99.6,198.4c0.3,0.2,0.5,0.8,0.6,1.8C100.1,199.7,99.8,198.9,99.6,198.4z M128.2,301.2    c-5.4-10.1-10.2-20.6-14.2-31.6c-8.5-23-13-45.6-13.8-66.8c3-1.8,6.1-3.6,9.4-5.5c-0.1-0.6-0.4-2.4-0.1-4.8c0-0.1,0-0.3,0-0.4    c-3.7,2.1-7.3,4.2-10.7,6.2c0.3-0.1,0.5-0.1,0.7,0c-0.3,0.1-0.6,0.1-0.9,0.2c-0.5,0.8-0.7,1.2-0.9,2.4c0.2-1.5,0.7-2.1,0.9-2.4    c0.1-0.1,0.2-0.1,0.2-0.2c-8.4,5.2-15.6,10.1-21.2,14.7c0.8-16.1,3.9-31.6,9-46.1c11.4-9.4,30.6-20.5,54-31.5    c0.1,1.5,0.6,2.7,1.5,3.6c0.9,0.9,2,1.2,3.1,1c0.1,9.9,1,20.8,2.8,32.5c-9.3,4.3-18.1,8.6-26.3,12.9c0.2,0.6,0.3,1.3,0.4,2.2    c-0.7-5.1-3.3-8.9-7-7.1c0.4-0.2,0.9-0.4,1.4-0.5c0-2,0-4,0-5.9c2.4-2.3,4.6-6.9,5.1-12.1c0.4-4.3-0.5-10-4.7-8.1    c-5.6,3.5-9.1,16.4-5.6,20.5c0.7,0.9,1.6,1.2,2.5,1.1c0,2-0.1,3.9,0,5.9c0,0,0.1-0.1,0.1-0.1c-5.2,4.7-6.4,18-1.4,21.8    c1,0.8,2.1,1,3.2,0.8c1.8,18,6.5,37.1,13.7,56.6c4,10.9,8.7,21.6,13.9,31.7C138,295.5,132.9,298.4,128.2,301.2z M146.4,290.9    c-5.2-10.2-9.8-20.8-13.9-31.8c-7.2-19.5-11.9-38.5-14.2-56.5c0,0,0,0-0.1,0.1c2.4-2.4,4.2-7,4.2-12.2c8.2-4.3,17.1-8.7,26.5-13    c3.4,19.8,9.4,41.6,17.9,64.6c4,10.9,8.5,21.7,13.2,32.1C167.9,279.8,156.6,285.4,146.4,290.9z M188.6,274.6    c-0.7-1.3-1.2-2.4-1.6-3.6c-1.1,0.5-2.2,1-3.3,1.5c-4.7-10.4-9.1-21.2-13.2-32.1c-8.5-23-14.5-44.8-18.1-64.5    c3-1.4,6.1-2.8,9.2-4.1c4.1,19.5,10.4,41.2,18.9,64.2c2.8,7.5,5.7,14.9,8.7,22.1c0.4-0.3,0.7-0.5,1-0.8    C185.2,260.3,185.1,268.4,188.6,274.6z M191,256.8c0.6-0.3,1.2-0.4,2-0.5c-3-7.3-5.9-14.7-8.7-22.1c-8.5-23-14.9-44.6-19.2-64    c17.5-7.6,36.3-15.1,55.7-22c1.4,2.4,3.6,4.4,6.5,5.4c7.7,2.7,13.8-4,11.5-11.6c5.5-1.8,11-3.6,16.6-5.3c3.2-1,6.3-1.9,9.4-2.9    c14.4,7.4,18.3,9.4,32,17.5c0-0.3,0-0.7,0.1-1.2c-0.6,5.9,4,14.1,10.9,16.6c7,2.5,11.3-3.3,8.9-10.8c4.5-1.1,8.8-2.1,13-3    c3.8,7.5,7.3,15.3,10.5,23.6c-17.7,3.8-37.9,9.1-60,16c-8.5,2.6-17.1,5.4-25.5,8.3c0.2,0.3,0.3,0.6,0.4,0.8    c-2.6-5.1-7.8-9-13.7-7.3c-8.7,3.7-7.6,16.2-1,22.5c-4.7,15.7-6.4,21.5-10.5,36.2c-8.8,3.4-17.4,7-25.8,10.5    c0.2,0.3,0.4,0.7,0.5,1C201.4,258.3,195.6,254.9,191,256.8z M393.9,286.2c-6.1,0.5-13.1,1.4-20.8,2.8c0,0.2,0,0.4,0,0.6    c0-5.2-1.9-9.7-5.5-9.3c-5.9,1.7-7.9,13.5-6.2,20.2c0-0.2-0.1-0.3-0.1-0.5c-6.7,12.6-9.4,17.8-18.5,34.1    c-8.1,2.1-16.9,4.5-26.2,7.4c-14.3,4.4-28.6,9.5-42.2,14.8c0,0,0,0.1,0.1,0.1c-2.3-3.5-5.6-5.5-8.6-5.2c0.1,0,0.2,0,0.2,0    c-4.7-9.2-9.6-19.1-14.5-29.6l-0.2,0.1c-0.3,0.2-0.7,0.4-1,0.6c1.3-0.6,2.3-1.7,2.9-3.1c12.9,8.1,15.6,9.7,25.3,16.4    c0.6,0.4,0.8,0.3,1.4,0.3c11.3-4.2,22.9-8.1,34.5-11.7c5.5-1.7,10.8-3.3,16-4.7c0.5-0.3,0.7-0.4,1.1-1l3.8-8    c4.7,3.6,10.1-3.3,10.4-11.7c0.2-5.5-2.1-12.7-7.9-11.6c-7.3,2.5-8,15.4-4.3,21.3c-0.2-0.3-0.4-0.7-0.6-1.1c-1,2.2-2.4,5-3.4,7.2    c-5.1,1.4-10.3,3-15.8,4.7c-11.7,3.6-23.4,7.6-34.8,11.8c-12.8-8.7-13.6-9.3-24.7-16.2c0-1.7-0.3-3.6-1-5.6    c-1.7-4.6-6.9-11.1-13.7-9c-8.5,4.1-4.1,18.4,4.7,22.1c1.4,0.6,2.7,0.8,3.9,0.7c0,0,0,0-0.1,0c5.1,10.4,10.1,20.3,15.1,29.4    c-2.1,1.8-2.2,5.4-0.8,8.8c-17.1,7.1-32.9,14.5-45.9,21.6c-5.2-4-10.2-8.3-15.2-12.8c1.3-2-0.2-6-3.5-9.8c-1.7-2-3.9-3.8-6.1-5.2    c0,0,0.1,0,0.1,0.1c-2.4-15.1-3.3-20.8-2.4-43.2c6.5-3.1,13.3-6.2,20.4-9.4c5.4,10.4,11.1,20.4,16.8,29.8    c-4.7,4.4,0.7,16.1,9.3,18.8c7.2,2.3,9.5-4.6,6-11.6c-3.1-6.1-9.3-9.9-13.7-8.2c0.5-0.2,1-0.3,1.6-0.4c-5.6-9.5-11.1-19.5-16.5-30    c22.1-9.6,46.3-18.9,71-27.2c13.5,10.1,14.9,11.1,22.7,17.6c0.3,0.1,0.7,0.3,0.9,0.4c0.7-0.1,0.8-0.1,0.9-0.2    c38.2-11.9,69.7-18.4,90.3-19.5c-0.2,1.4-0.3,2.9-0.5,4.3c0,0,0,0,0,0C396.8,277.6,395,281.6,393.9,286.2z M401.2,291.1    c0,0.1-0.1,0.2-0.1,0.4c7.3,0,12.7,0.8,15.9,2.6c-1.2,4.5-2,8.6-1.9,10.1c-0.4,1.1-0.8,2.2-1.2,3.3c0.1-0.1,0.2-0.1,0.3-0.1    c-0.7,0-3.1,4.2-5.5,9.2c-2.9-1.6-7.7-2.4-14.2-2.3c0,0.1-0.1,0.3-0.1,0.4c1.6-5.4,1.5-9.7-0.4-9.8c0.3,0,0.5,0.1,0.7,0.3    c0.4-1.4,0.8-2.8,1.1-4.2c-0.1,0.1-0.2,0.1-0.3,0.2C397.4,300.2,399.7,296.2,401.2,291.1z M400.6,248.8c0,5.9-0.2,11.7-0.7,17.5    c-20.8,1.1-52.8,7.7-91.5,19.7c-13.3-10.7-13.5-10.9-23-17.8c-0.3-0.1-0.7-0.3-1.1-0.4c-25.9,8.6-50.7,18.1-73.4,28    c-2.5-5-4.9-10.1-7.3-15.3c2.5-2.2,3.6-6.4,2.6-11.3c8.7-3.7,17.6-7.3,26.7-10.9c0.5-0.3,0.8-0.5,1.1-1.4    c3.7-12.3,7.1-24.8,10.9-37.1c0,0,0,0-0.1,0c7.6,2.8,13.6-4.2,11.9-13.2c8.5-2.9,17-5.7,25.5-8.3c22.2-6.9,42.4-12.2,60.1-16    c2.2,5.8,4.1,11.7,5.9,17.6c0.1-0.1,0.2-0.1,0.2-0.1c-6,3.5-4.4,18.8,3.1,24.3c6.1,4.4,11.4-2.2,9.7-12    c-1.4-7.7-6.6-13.7-11.3-12.9c0.5-0.1,1-0.1,1.7,0c-1.7-5.9-3.7-11.8-5.8-17.6c4-0.8,7.8-1.6,11.5-2.2    c19.1,19.6,26.6,28.6,38.9,50.5c-0.8,6.5,0.6,15.4,3.6,18.4c0.4,0.4,0.7,0.6,1.1,0.7C400.7,248.9,400.6,248.8,400.6,248.8z     M406,239.4c0-0.4,0-0.9,0.1-1.4C406,238.6,406,239,406,239.4z M406.1,237.8c0-0.5,0-0.9,0-1.4C406.1,237,406.1,237.4,406.1,237.8    z" style="fill: #CBE9FB;"></path><path class="st0" d="M343.8,399.9l1.7-1.1c-0.7,0.5-1.4,0.9-2.1,1.3C343.5,400.1,343.7,400,343.8,399.9z" style="fill: #CBE9FB;"></path><path class="st1" d="M268.1,91.9c5.3,2.4,9.5,3.3,11.5,2.9c0,0-0.1,0-0.1,0l-0.1,0c1,0.5,1.9,1,2.8,1.6c0,0,0-0.1,0.1-0.1    c-0.6,1.5,1.8,4.3,5.1,6.8c-0.1-0.1-0.2-0.2-0.3-0.2c-7.6,4.6-16.7,9.5-26.7,14.4c1.4,1.1,2.5,2.2,3.5,3.5    c10.4-5.1,19.8-10.1,27.7-14.9c-0.1,0-0.2-0.1-0.2-0.1c7.4,4.4,13.1,4.6,12.8,1.4c-0.6-5.4-15.3-12.7-20.4-11.7c0,0,0.1,0,0.1,0    c-1-0.5-1.9-1-2.9-1.6c0,0,0,0,0,0c0.1-0.2,0-0.5-0.1-0.9c-1.7-4.3-16.3-9.5-20.9-8.6c-25.1-9.4-51.2-12.3-75.9-7.2l0,0    c24.3-4.8,49.9-1.6,74.7,8c0-0.1,0.1-0.1,0.1-0.2c-0.7,1.4,3.9,4.2,7.2,5.9c-0.9-0.5-1.6-0.9-2.2-1.2c-6.1,3.7-13.4,7.7-21.5,11.6    c0.1,0,0.2,0.1,0.2,0.2c1.8,1.2,2.9,2.3,3.3,2.7c8.4-4.1,16-8.2,22.5-12.1C268.2,92,268.2,91.9,268.1,91.9z" style="fill: #0065C2;"></path><path class="st1" d="M162.8,100.4c-0.6,1-0.6,1.3-0.6,1.5c0,0,0.1,0.1,0.1,0.1c4.2-1,8.8-2.3,13.8-3.8c4-1.2,8-2.6,12-4    c0,0,0,0,0-0.1c1.6,4.1,4.7,4.8,5.8,2.7c0.1-0.2,0.2-0.4,0.2-0.6c0,0,0,0.1,0,0.1c10.4,8.3,26.9,16.7,28.8,17.6    c0.6,0.3,0.8,0.2,1.1,0.2c4.5-1.9,8.8-3.8,13-5.7c0,0,0,0-0.1-0.1c3.4,2.8,6.9,4,9.1,3.8c0.8,0.8,1.7,1.7,2.5,2.5    c0.5-0.6,1.2-1,2.3-1.1c-0.9-0.8-1.7-1.7-2.6-2.5c0.3-0.4,0.5-1,0.5-1.7c-0.2-5.2-10.7-11.6-15.4-11c0,0,0.1,0,0.1,0    c-17.3-13.3-34.3-21-49.4-21l0,0c14.5,0.4,30.9,8.3,47.7,21.8c0.1-0.1,0.2-0.2,0.2-0.2c-1.3,1.3-0.1,4.1,2.2,6.7    c-0.1-0.1-0.1-0.2-0.2-0.2c-3.8,1.8-7.8,3.5-11.9,5.3C205.5,102,202.8,100.2,194,94c0.1,0.5,0.1,0.9,0.1,1.3    c0.1-3.4-3.3-8.4-5.5-8.5c-2-4.3-3.5-7.5-4.7-9.6l0,0c0.9,2.2,2.2,5.6,3.9,9.9c0.1-0.1,0.2-0.2,0.4-0.3c-1,0.4-1.2,2.8-0.7,5.1    c0-0.1,0-0.2-0.1-0.3c-3.5,1.3-7.1,2.5-10.7,3.6c-4.2,1.3-8.2,2.4-11.8,3.3c5.4-8.7,11.7-15.9,19-21.3l0.1-0.1l-0.1,0.1    C175.7,83.1,168.7,90.9,162.8,100.4z" style="fill: #0065C2;"></path><path class="st1" d="M136.2,114.4c-2.2,0.1-4.1,0-5.7-0.2c-0.5,0.6-2.4,2.5-3.9,4.1c1.8,0.2,4,0.3,6.6,0.1c0.3-0.1,1-0.8,2.2-2.1    c13.4-16.3,29.6-29.7,48.4-39.2l0.1-0.1c0,0,0,0-0.1,0.1C165.5,86.3,149.5,99.1,136.2,114.4z" style="fill: #0065C2;"></path><path class="st1" d="M66.1,213.9c0.4-1.9,0.8-3.9,1.3-6C66.7,210.9,66.5,211.9,66.1,213.9z" style="fill: #0065C2;"></path><path class="st1" d="M72.3,189.2c0,0.1-0.1,0.1-0.1,0.2l-1.2,3.9c-1.1,4.3-2.5,9.7-3.6,14.7c0.8-3.1,2.1-8.2,4.9-18.6    C72.3,189.3,72.3,189.2,72.3,189.2z" style="fill: #0065C2;"></path><path class="st1" d="M183.7,239.9c1.9-3,2.3-7,1.6-10.8c0.1,0.7,0.2,1.2,0.2,1.6c1.5-0.1,2.9-0.5,4.4-1c8.1-2.5,16.2-5.2,24.2-7.9    c0.5-0.3,1.9-1,11.8-35.6c9-3.3,17.8-6.8,26.4-10.3c-0.1-0.1-0.1-0.2-0.2-0.3c4.8,7.2,13.4,8.6,15.8,2c2.8-7.8-6.4-20.7-15-17.8    c-5.2,2.6-4,9.9-1.9,14c-0.4-0.8-0.8-1.6-1.1-2.7c-8.6,3.5-17.5,7-26.6,10.4c-0.8,0.5-0.8,0.5-4.7,13.7c-1.9,6.5-4.9,15.1-7,21.5    c-7.6,2.6-15.3,5.1-23,7.5c-1.4,0.4-2.9,0.9-4.3,1.3c-1.9-4.8-5.8-8.3-10.8-7.2c-6.5,2.4-7.3,11-5.8,16.4    C170.3,244.1,179.3,247.1,183.7,239.9z" style="fill: #0065C2;"></path><path class="st1" d="M359,149.3c-0.1,0.1-0.3,0.2-0.4,0.2c-2.8,2.5-0.2,8.8,2.5,13.1c-0.3-0.5-0.7-1.1-1-1.7    c-10.9,7.2-24.5,14.9-40,22.8c0.1,0.1,0.2,0.2,0.2,0.3c1.6,2.2,2.4,4.1,2.7,4.8c15.7-7.9,29.5-15.7,40.4-23    c-0.2-0.2-0.4-0.4-0.5-0.7c2,2.4,6,6.7,9.7,6.5c7.9,12.6,14.6,26.2,19.9,40.6c0.9,2.3,1.7,4.6,2.4,6.9c0.1-0.2,0.3-0.4,0.4-0.5    c-2.6,3-2.2,10.9-0.3,17.1c2.5,8,6.8,10.9,9.1,6.1c3.7-7.7-1.6-24.9-7-24.2c-0.8-2.3-1.6-4.6-2.4-6.9c-5.3-14.4-12-27.9-19.9-40.6    c1.3-3.1,0.2-7.1-2.1-10.9c0.4-0.3,0.9-0.7,1.3-1c-0.1,0-0.2,0.1-0.4,0.1c-0.2,0-0.3-0.1-0.5-0.2c0.3,0.1,0.6,0.2,0.9,0.1    c0.4-0.3,0.8-0.6,1.1-0.9c5.4-4.3,9.6-8.3,12.4-12c2.7-3.5,3.9-6.5,3.7-9c4.1,5.1,5.2,6.3,5.6,6.6c0,0,0,0,0,0c0,0,0,0,0,0l0,0    c11.6,17.8,14.9,24,23.7,48.7l-3.2-9.4c-1.6-4.3-4.1-9.9-5.9-14.2c-4.3-9.2-9.3-17.8-14.8-25.7c-2.1-3.8-13.8-18.7-16.1-20    c0,0,0,0.1,0,0.1c0.4,0.8,1.6,2.5,7.1,9.3c0.2,2.4-1,5.4-3.6,8.9c-2.9,3.9-7.5,8.1-13.4,12.7c-0.5,0.4-0.9,0.7-1.4,1.1    C365.7,150.7,361.5,148.2,359,149.3z M366.2,161.4c-0.4-1.1-0.2-1.7,0.2-1.9C365.9,159.8,365.8,160.5,366.2,161.4z M366.5,159.5    c0.1,0,0.2,0,0.3,0c0.4,0.1,0.7,0.3,1.1,0.5C367.3,159.7,366.9,159.6,366.5,159.5z M395.9,218.1c-0.2,0.1-0.3,0.3-0.5,0.5    C395.6,218.4,395.8,218.2,395.9,218.1z M369,161.3c-0.1-0.2-0.3-0.4-0.4-0.5C368.7,161,368.9,161.2,369,161.3z" style="fill: #0065C2;"></path><path class="st1" d="M110.7,123l-1.5,1.7c1.2-1.4,2.5-2.7,3.7-4c0.3-0.4,0.6-0.7,0.9-1.1L110.7,123z" style="fill: #0065C2;"></path><path class="st1" d="M192.7,70.9l-0.8,0.2l-0.3,0.1c-2.9,0.9-5.5,2.9-7.8,5.9l0,0c0,0,0,0,0,0C186.5,73.9,189.5,71.9,192.7,70.9z" style="fill: #0065C2;"></path><path class="st1" d="M189,73.5c-1.7,1.1-3.4,2.2-5.1,3.6C186.1,75.5,187.7,74.4,189,73.5z" style="fill: #0065C2;"></path><path class="st1" d="M201.2,68.6c-1.8,0.4-3.6,0.9-5.4,1.6c1.1-0.4,2.4-0.8,4.1-1.3L201.2,68.6z" style="fill: #0065C2;"></path><path class="st1" d="M183.9,77.1C183.9,77.1,184,77.1,183.9,77.1C184,77.1,183.9,77.1,183.9,77.1L183.9,77.1z" style="fill: #0065C2;"></path><path class="st1" d="M195.9,70.2c-2.8,0.9-4.4,1.7-6.8,3.4C191.3,72.1,193.5,71,195.9,70.2z" style="fill: #0065C2;"></path><path class="st1" d="M254.4,63.1c-0.1,0-0.3,0-0.4,0c0.2,0,0.4,0,0.6,0L254.4,63.1z" style="fill: #0065C2;"></path><path class="st1" d="M213.5,65.9c-0.8,0.2-1.8,0.3-3,0.6C211.5,66.3,212.5,66.1,213.5,65.9z" style="fill: #0065C2;"></path><path class="st1" d="M249.1,63c1.9,0,3.5,0.1,4.9,0.1C252.4,63.1,250.7,63,249.1,63z" style="fill: #0065C2;"></path><path class="st1" d="M254.6,63.2l5.8,0.4C258.4,63.4,256.5,63.2,254.6,63.2z" style="fill: #0065C2;"></path><path class="st1" d="M278.2,65.8c-5-0.7-9.2-1.3-12.8-1.8c4.6,0.6,9.9,1.4,14.6,2.2C279.5,66.1,278.9,65.9,278.2,65.8z" style="fill: #0065C2;"></path><path class="st1" d="M262.3,63.7l-2-0.1c1.6,0.1,3.3,0.3,5,0.5C264.3,63.9,263.3,63.8,262.3,63.7z" style="fill: #0065C2;"></path><path class="st1" d="M182.9,74.2l-0.8,0.3c0.3,0,0.4,0.1,1.8,2.7l0,0l0,0C183.1,75,183.1,74.9,182.9,74.2z" style="fill: #0065C2;"></path><path class="st1" d="M174.5,77.5l-0.8,0.4c2.9-1.3,6.3-1.5,10.1-0.7c0,0,0,0,0.1,0c0,0,0,0,0,0C180.3,76.3,177.2,76.4,174.5,77.5z    " style="fill: #0065C2;"></path><path class="st1" d="M272,75c0,0-0.1-0.1-0.1-0.1c0,0,0-0.1,0-0.1c0.2,0.9,4.1,2.4,7.3,3.5c-1.3,1.3-2.9,2.6-4.6,4    c-1.6,1.2-3.3,2.5-5.2,3.7c0.1,0,0.3,0.1,0.4,0.1c2.4,0.8,4,1.6,4.6,1.9c2-1.3,3.7-2.6,5.4-3.9c0.2-0.2,0.4-0.3,0.7-0.5    c1.6-1.2,3-2.4,4.2-3.6c-0.1,0-0.1,0-0.2-0.1c6.3,1.9,10.2,2.5,11.6,2.1c0,0-0.1,0-0.1,0l-0.1,0c1.1,0.4,2.2,0.8,3.3,1.3    c-0.1-0.2,0-0.3,0.1-0.5c-0.7,1.3,5,4.5,8.1,6.2c-0.3-0.1-0.5-0.3-0.8-0.4c-1.6,1.6-3.6,3.2-5.8,4.9c-1.9,1.5-4.1,3-6.4,4.6    c1.8,0.9,3.2,1.8,4.7,2.8c2.4-1.6,4.6-3.2,6.6-4.8c-0.1,0-0.1,0.1-0.2,0.1c-0.1,0-0.2,0-0.3,0c0.2,0,0.4,0,0.5-0.1    c0.3-0.2,0.5-0.4,0.8-0.6c1.9-1.5,3.7-3,5.2-4.5c-0.1-0.1-0.3-0.1-0.4-0.2c7,3.2,12,4.1,11.4,2c-0.5-1.6-3.6-3.8-7.4-5.8    c0,0,0.1-0.1,0.1-0.1c2.8-3.6,3.3-6.5,1.9-8.6c0,0-2.2-0.9-5.3-2.1c1.4,2,0.8,4.8-1.8,8.3c0,0,0,0.1-0.1,0.1    c-4.3-1.7-8.5-2.8-10.3-2.3c-1.1-0.4-2.1-0.8-3.2-1.2c-0.8-1.8-7.6-4.4-13.9-5.9c2.5,0.6,4.3,1.1,5,1.3c0,0,0.1-0.1,0.1-0.1    c2.2-3,2.7-5.3,1.5-7c-1.4-0.3-4.4-0.9-5.6-1.2c1.1,1.6,0.7,3.8-1.5,6.6c0,0-0.1,0.1-0.1,0.1c-4.2-1-8-1.5-9.6-1    c-28.9-6.4-59.2-5.9-88.5,2.9l0,0C213.1,68.6,243.3,68.4,272,75z M300.8,93.8c0,0.5,0.9,1.1,1.6,1.5    C301.4,94.8,300.7,94.2,300.8,93.8z M272.2,74.5C272.2,74.5,272.2,74.4,272.2,74.5C272.2,74.5,272.2,74.5,272.2,74.5    C272.2,74.5,272.2,74.5,272.2,74.5z" style="fill: #0065C2;"></path><path class="st1" d="M227.4,64.1c2-0.3,3.7-0.5,5.1-0.6c6.8-0.3,11.9-0.5,16.5-0.5c-4.8-0.1-10.7,0-16,0.5    c1.4-0.1,2.6-0.2,3.4-0.3c-3.5,0.1-7.2,0.5-10.7,0.9c-1.5,0.1-3.2,0.3-5,0.6c-3.2,0.5-4.2,0.6-7.3,1.2c2.4-0.4,4.8-0.7,7.2-1.1    c-3.8,0.6-6.5,1.3-6.7,1.5c0,0,0,0,0,0c-10,2.3-20.1,5.9-30,10.8l-0.1,0.1c10.1-5,20.3-8.6,30.5-10.9    C218.8,65.8,223.1,64.7,227.4,64.1z" style="fill: #0065C2;"></path><path class="st1" d="M428.7,243.2C428.7,243.3,428.7,243.3,428.7,243.2l0,0.2l0-0.4C428.7,243.1,428.7,243.2,428.7,243.2    c-0.1,2.3-1.2,5.1-3.7,8.3c-4.3,5.7-12.1,12.3-22.7,19.4c0.2,1.4,0.2,2.6,0.2,3.5c0-6.3-2.3-11.9-5.4-11.3c-0.3,0.1-0.7,0.3-1,0.4    c-1.3,1-2.3,2.6-3,4.5c0,0,0-0.1,0-0.1c-19.8-22.5-41.5-37.9-43.1-37.4c-4,2.1-8.2,4.2-12.5,6.3c-4.8-12.4-10.2-24.4-16.1-35.9    c7.5-6.4-2-22.7-10.8-23.1c-1.4-0.1-2.1,0.2-2.9,0.6c-5.5,3.2-3.3,11.5-0.6,16c1.3,2.2,4.9,7.2,10.6,7.7    c5.9,11.7,11.4,23.9,16.3,36.5c-19.3,9.3-40.9,18.7-63.7,27.5c-3.1-8.4-6.3-16.7-9.5-25c5.1-2,10.1-3.9,15-5.9    c0.7-0.4,0.8-0.6,1.1-1.4c6.7-28.4,8.6-40.4,10.6-64c-1.2-0.5-2.1-0.9-3.2-1.7c5.1,3.5,10.7,3,11.7-2.4c1.4-7.7-8.5-18-15.3-16.9    c0.1,0,0.1,0,0.2,0c-3.2-4.4-6.4-8.6-9.7-12.6c21.6-10.3,39.5-20.6,51-29.4c0.3-0.2,0.6-0.5,0.9-0.7c4.3-3.4,7.7-6.6,9.9-9.5    c3.5-4.6,3.8-8,1.4-10.4c5,2.7,9.9,5.6,14.6,8.8c2.5,2.1,5.2,4,7.8,5.9c1.7,2.5,1,6-2.4,10.5c-2.6,3.4-6.7,7.3-12,11.4    c-11.9,9.2-30,19.7-51.8,30.3c0.1,0.1,0.2,0.2,0.3,0.3c1.8,1.8,2.7,3.4,3.2,4c22.1-10.8,40.5-21.5,52.5-30.8    c0.3-0.3,0.7-0.5,1-0.8c4.9-3.9,8.7-7.5,11.2-10.8c3.4-4.6,4.2-8.1,2.4-10.7c2.5,2,4.8,4.1,7.4,5.9l-0.6-0.5    c-5.5-4.6-13-10.5-18.8-14.7c-0.5-0.4-0.7-0.4-0.9-0.6c-4.7-3.2-9.6-6.1-14.5-8.8c-0.4-0.3-0.8-0.6-1.3-0.8l-5.3-2.7    c0.6,0.3,1.1,0.6,1.6,1c-1.2-0.6-2.4-1.2-3.6-1.8c-1.4-1-5.7-2.9-10.1-4.7c-0.4-0.2-0.7-0.4-1.2-0.5l-5.6-2.1    c0.6,0.2,1.1,0.5,1.6,0.7c-3.9-1.4-7.2-2.4-8.1-2.3c0,0,0,0,0.1,0c-1.3-0.4-2.6-0.8-3.9-1.1c-1.2-0.7-5.6-1.9-10.4-2.9    c-0.9-0.5-2.1-0.9-3.6-1.2c-1.2-0.2-2.6-0.5-3.9-0.7c0.7,0.2,1.4,0.5,2,0.8c-4-0.7-7.5-1.2-8.7-1c0,0,0,0,0,0    c-29.1-3.8-59.7-0.5-89.2,11.1l0,0c29.7-11.5,60.4-14.7,89.6-10.8c0,0,0,0,0,0c0.8,0.2,3.5,0.8,13.3,2.9    c10.8,2.3,10.9,2.3,11.3,2.2c0,0,0,0-0.1,0l0,0c1.4,0.4,2.8,0.8,4.2,1.2c-0.3-0.1-0.4-0.2-0.5-0.3c0.4,0.2,0.6,0.3,13.3,5.3    c9.4,3.7,10.2,4,10.4,3.9c0,0,0,0,0,0l0,0c1.3,0.6,2.6,1.2,3.8,1.9c2.4,2.3,2,5.6-1.3,10.1c-2.3,3-5.8,6.4-10.5,9.9    c-11.2,8.6-28.6,18.6-49.6,28.6c-0.8-1-1.7-2-2.5-2.9c0,0,0,0,0,0c0.5-0.5,0.8-1.2,0.9-2.1c0.7-6.8-11.8-15.5-16.8-13.3    c-2.7,1.3-1.8,5.2,0.6,8.8c-0.1-0.1-0.1-0.2-0.2-0.3c-7.4,3.4-15.2,6.7-23.2,10c-2.6-3.4-6.3-5.6-9.6-4.6    c-1.6,0.8-2.5,2.3-2.9,4.1c0.1-0.4,0.2-0.8,0.3-1.3c-11.3-7.4-16.5-11.8-16.5-11.8c-6.6-5.7-6.6-5.7-7.2-5.7    c-5.5,1.9-11,3.8-16.6,5.5c-11.3,3.5-21.5,6.2-30.4,8.2c1.3-3.5,1.9-6.4,1.1-7c0,0,0,0,0,0c9.9-18.1,23-32.8,38.8-42.6l0.1-0.1    c0,0,0,0-0.1,0.1c-16.3,9.9-29.8,24.7-40.2,42.9c0.1,0,0.3-0.2,0.2-0.1c0.1,0,0.1,0,0.1-0.1c-1.7,0.8-4.6,4.3-6.9,8.1    c0.1-0.1,0.1-0.2,0.2-0.3c-9.3,1.5-16.5,1.9-20.9,1c0.9-1.1,1.8-2.2,2.7-3.3c-0.2,0.1-0.2,0.1-0.4,0.1c0,0,0,0,0-0.1    c1.7,0.4,16.9-16.7,18.2-18.2c0,0,0,0,0,0c13.8-12.3,29.6-22.6,47.1-30.2l0,0c-17.7,7.6-33.6,17.8-47.5,30.1    c0.1,0,0.2-0.1,0.3-0.1c0,0,0,0,0,0c-1.1,0.4-4.9,3.4-8.7,7c0.1-0.1,0.3-0.3,0.4-0.4c-3-1-3.6-3-1.3-6.1c1.7-2,1.8-2.1,4.6-4.5    l-5.4,4.5c-1.5,1.3-1.8,1.6-3.5,3.6c-2.5,3.3-1.8,5.5,1.4,6.6c0.1-0.1,0.1-0.1,0.2-0.2c-3.4,3.6-5.8,6.8-5.8,7.8c0,0,0-0.1,0-0.1    l0-0.1c-0.9,1.1-1.9,2.2-2.8,3.3c-4.7-1.1-5.9-3.8-2.7-8c-1.3,1.3-2.5,2.7-3.7,4c-3.4,4.5-2.1,7.3,2.8,8.5    c-4.4,5.8-8.6,11.8-12.2,18c0.1,0,0.1,0,0.2-0.1c-1.3,0.5-4.1,4.1-6.7,8.6c0.1-0.1,0.1-0.2,0.2-0.4c-4.8-1.6-6.1-4.6-3.2-9.2    l-3.1,5.2c-2.6,4.5-1.2,7.5,3.6,9.1c0.1-0.2,0.1-0.3,0.2-0.5c-3,6.2-3.7,10.7-2.1,10.1c2.8-1.1,12.2-19.8,11.6-22.6c0,0,0,0,0,0    c3.7-6.3,7.8-12.3,12.2-18.1c4.7,0.9,12.3,0.5,22.2-1.1c0.1-0.1,0.1-0.3,0.2-0.4c-2,4.5-2,7.4-0.6,7.8c-0.1,0-0.2-0.1-0.3-0.1    c-4.1,10.2-7.4,21-9.8,32.4c0.5-0.3,0.8-0.4,1.2-0.5c-3.2,0.7-6.8,7.4-7.7,14.1c-1,7.6,2,12.2,5.9,9.2c4-3.2,6.2-13.1,5.3-18.9    c0,0.1,0,0.2,0,0.3c5.8-10.1,7.8-13.4,15.1-25.7c9.3-2.2,19.5-5,30.5-8.4c2.9-0.9,5.7-1.8,8.6-2.7c1.2,1.2,2.9,2.9,4.1,4.1    c-0.4,2.2-0.3,4.6,0.3,6.8c2.1,7.7,9.3,9.9,12.5,3.9c3.4-6.5-1.5-18.8-8.5-17c-1.3,0.5-2.2,1.5-3,2.7c0,0,0,0,0-0.1    c-5-4.9-5-4.9-5.6-4.8c-2.9,1-5.8,1.9-8.8,2.8c-10.7,3.3-20.7,6.1-29.8,8.2c-0.5,0.3-0.5,0.3-0.8,0.8    c-7.1,11.5-7.5,12.1-15.8,26.1c-0.4-0.7-1-1.1-1.6-1.2c0.1,0,0.2,0,0.3,0.1c2.3-11.4,5.4-22.2,9.3-32.3c2-1.2,4.3-4.6,6.1-8.3    c9.3-1.9,20.1-4.7,32.1-8.4c5.8-1.8,11.5-3.7,17.2-5.7c7.2,6.7,15.4,12.4,22.7,17.4c0-0.1,0-0.3,0-0.4c0,2.1,0.7,4.4,1.7,6.4    c4,7.7,11.6,8.4,13.6,2.9c0.7-2.1,0.5-4.5-0.4-6.8c8.4-3.4,16.4-6.9,24.1-10.4c0,0,0,0-0.1-0.1c3.5,3.3,7.2,4.8,9.9,4.5    c0.8,1,1.6,2,2.4,3c-25.8,12.1-56.7,24.2-87.8,33.8c-1.9,0.6-3.8,1.2-6.1,2c-0.2,0.2-0.4,0.6-0.6,0.8c-1.2,2.7-7.2,15.7-12,26.2    c-20.5,5.6-38.3,9.3-52.6,11.1c1.3-11.6,3.6-22.8,6.5-33.6c0,0,0,0,0,0c5-2.8,11.5-21.9,7.6-22.7c-0.1,0-0.2,0-0.4,0    c-2.8,0.7-6.8,7.2-8.7,12.7c-1.8,5.2-1.8,9.2-0.3,10.1c-3.2,10.8-5.5,22.1-7,33.7c-4.5,0.5-8.5,0.8-12.2,0.9    c-2.3-19-1.3-24.6,1.4-39.5c-1,1.7-1.6,2.5-2.4,3.6c-1.9,10.9-3.9,22.2-0.8,40.8c0.1,0.6,0.3,0.7,0.5,0.8c3.8-0.1,8.1-0.4,12.9-1    c-0.5,5.5-0.9,11.1-1,16.7c0.3-0.2,0.5-0.3,0.8-0.4c-2.4,0.8-4.4,5-4.9,10.1c0-0.1,0-0.2,0-0.2c-8.1,0.8-14.9,0.9-20.2,0.3    c0,0.1,0,0.2,0,0.4c0,2.7-0.1,4.8-0.2,5.5c4.4,0.5,9.7,0.5,15.9,0c0.5,23.5,4.8,47.3,13.2,70.3c4,10.9,8.9,21.2,14.3,30.7    c-6.6,0.4-12.3,0.4-16.9,0c1.4,2.2,2.3,3.7,2.9,4.9c4.7,0.5,10.3,0.5,16.9,0.1c7.2,11.7,15.3,22.1,24.8,31.1c0,0,0.1,0,0.1,0    c-2.1,0.5-0.9,3.4,2.5,6.9c-0.1-0.1-0.1-0.1-0.2-0.2c-9.8,0.4-16.9-0.5-21-2.7c-12.8-10.7-24.2-23.4-33.6-37.9    c1.1,0.6,2.5,1.1,4.1,1.6c0,0-0.1-0.1-0.1-0.1c4.1,5.8,8.6,9.9,9.1,8c0.7-2.7-10.3-20.5-14.3-21.8c0.2,0,0.4,0.1,0.8,0.4    c-3.6-6.8-6.7-14-9.5-21.4c-7.3-19.8-11.1-40.1-11.8-60.2c0,0-0.1,0-0.1,0c0.2-0.1,0.3-0.2,0.5-0.3c2.7-2.8,3.9-24.4,0.1-25.8    c-1.8,0-3.2,4.9-3.7,10.2c0-0.2,0-0.4,0.1-0.7c-0.8-0.2-1.5-0.5-2.2-0.7c0,0.1,0,0.3,0,0.4l0,0c-0.1,2.6-0.2,4.7-0.2,5.4    c0.7,0.3,1.4,0.5,2.1,0.7c0-0.2,0-0.3,0-0.5c0,5.3,1,9.6,2.2,11c0,0,0,0,0,0c0.5,20.2,4.3,40.6,11.6,60.3    c2.8,7.5,5.9,14.6,9.5,21.4c0.1,0,0.2-0.2,0.3-0.1c0.1,0,0.1,0,0.2,0c-1.6,0.1-0.2,4.5,2.9,9.8c-0.2-0.3-0.4-0.6-0.5-0.9    c-1.5-0.4-2.9-0.9-4-1.5c-5.8-9.6-10.8-19.9-14.8-30.8c-7.2-19.5-10.8-39.6-11.4-59.4c0,0,0,0,0,0c0.1,0,0.1,0,0.2-0.1    c2-1.9,2.8-24.2,1-26c0.1,0.1,0.2,0.2,0.3,0.5c1.3-10.8,3.6-21.4,6.6-31.7c0,0-0.1,0-0.1,0c1.2-0.5,3.7-6.2,5.6-11.4    c1.3-3.5,4.2-11.7,3.3-12.8c-0.9-0.2-3.3,3.6-5.4,8.6c0-0.1,0.1-0.2,0.1-0.3c-1.8-1.6-2.2-3.9-1-6.7l-2.2,5.5    c-1.1,2.7-0.7,4.9,1.1,6.5c0.1-0.2,0.1-0.3,0.2-0.5c-1.8,5.1-2.6,9.3-2.3,10.6c0,0,0-0.1,0-0.1c-3.2,10.3-5.4,20.9-6.8,31.7    c0,0,0.1-0.1,0.1,0c0.1-0.1,0.2-0.1,0.4,0c-1.3-0.3-2.5,6-2.8,12c0.1-1.5,0.2-2.7,0.3-3.7c-1.2-1.1-1.9-2.4-2-3.8    c0.3-3.1,0.5-6.2,0.8-8.8c-0.2,1.8-0.5,4.6-0.8,8c0,0,0,0,0,0c0,0.1,0,0.3,0,0.4c0,0,0,0.1,0,0.1c-0.1,1.5-0.2,3.2-0.3,4.9    c0,0.1,0,0.2,0,0.3c0,0,0,0,0,0c-0.1,1.1-0.1,2.2-0.1,3.4c0-0.9,0.1-2,0.2-3c0.1,1.6,0.8,3,2,4.2c0-0.1,0-0.2,0-0.3    c-0.2,5.7,0.4,10.4,1.2,11.9c0,0-0.1-0.1-0.1-0.1C67,273,70.6,293,77.8,312.6c4,10.9,9,21.2,14.9,30.8c-1.1-0.7-2-1.6-2.6-2.5    l3.3,5.2c0.6,0.9,1.4,1.7,2.5,2.3c9.5,14.5,20.9,27.2,33.7,38c-0.3-0.2-0.6-0.4-0.9-0.6l4.6,3.7c0.2,0.2,0.4,0.3,0.7,0.5    c4,3.2,8.2,6.1,12.5,8.9l3.6,2.3l5.1,3l4.1,2.3c-1.3-0.7-2.6-1.4-3.9-2.1c5,2.7,15.1,3.1,29.2,1.5c-0.1-0.1-0.2-0.1-0.3-0.2    c6.4,3.8,13.8,5.6,13.5,2.9c-0.4-3.2-12.9-12.1-19.1-11.5c-2.9,0.6-1.2,3.5,2.2,6.3c-0.1-0.1-0.3-0.2-0.4-0.3    c-14.5,1.7-24.9,1.2-30-1.5c-5.5-3.4-10.8-7.1-15.8-11c4,2.1,11,3,20.6,2.6c-0.1-0.1-0.2-0.1-0.2-0.2c6.1,4.7,13,7.3,13,4.6    c0-3.4-11.6-13.4-17.5-14.6c0,0,0.1,0,0.1,0c-8.9-9.2-17-19.7-24.1-31.3c15-1.2,34.4-4.7,57.1-10.3c3.2,4.2,7.7,6.3,11.3,6    c-0.3,0-0.6,0-0.9,0c2.5,4.6,5,9,7.7,13.3c-7.5,1.9-14.7,3.7-21.4,5.1c-0.5,0.2-0.6,0.3-0.7,0.9c-0.5,16.5,0.3,20.1,3.5,31.2    c0.2,0.1,0.4,0.1,0.5,0.2c1.7,0.6,3.2,1.4,3.9,1.7c-3.8-12.1-3.8-16.9-3.5-29.9c6.5-1.4,13.3-3.1,20.5-4.9    c5.6,8.7,11.4,16.6,17.4,23.5c0.5-0.3,1-0.5,1.5-0.6c-4.4,1.2-4.2,5.8,0.3,9.7c6,5.1,16,6.2,15.7,0.3c-0.3-4.8-8.3-10.9-14.7-10.3    c0.2,0,0.4,0,0.6,0c-5.8-7-11.5-14.9-17-23.6c9.2-2.4,18.9-5.2,29-8.4c14.7-4.6,29.4-9.6,43.7-14.8c23,12.7,23,12.7,23.8,12.6    c36.3-14.3,68.9-30,91-44c-0.1,1.3-0.3,2.5-0.5,3.8c0,0,0.1-0.1,0.1-0.1c-2.2,2.3-4.1,6.8-5.2,11.1c0-0.1,0.1-0.3,0.1-0.4    c-6.5,4-13.9,8-21.9,12.2c0.1,1.5,0,2.8-0.4,4.5c7.8-4,15-8,21.4-11.9c0,0,0-0.1,0-0.1c-0.4,3.5,0,6.1,1.6,5.9c0,0,0,0,0,0l-0.1,0    c-0.3,1.2-0.7,2.3-1,3.5c0.4-0.4,0.7-0.6,1-0.8c-2.3,1.5-5,6.3-7,10.8c0.1-0.1,0.1-0.3,0.2-0.4c-3.8,2.3-8,4.7-12.4,7.1    c-0.4,0.3-0.5,0.4-1,1c-9.8,15.2-16.9,23.8-25.9,34.7c-0.1-0.1-0.1-0.1-0.2-0.2c-0.5-0.3-1.3,0.1-1.7,0.2    c-2.8,1.4-5.2,4.7-6.5,6.9c0.1-0.2,0.2-0.3,0.3-0.5c-12.5,5.7-26.7,11.4-41.4,16.4c-0.5,0.3-0.6,0.6-0.3,1c3.6,3.7,6.7,5.5,9,5.1    c0.5-0.1,0.6-0.2,0.9-0.3c-1.9,0.2-4.4-1.4-7.4-4.8c13.4-4.6,26.4-9.8,37.9-15.1c0,0,0-0.1,0-0.1c-0.5,1.2-1,2.9,0.3,2.5    c0,0-0.1,0-0.1,0c-3.3,4.3-7.2,7.6-11.7,9.8c-0.1,0.1-0.3,0.1-0.4,0.2l0.9-0.4c0.1,0,0.2-0.1,0.3-0.1c4.7-2.3,8.9-5.7,12.4-10.1    c3-1.8,7.3-6.8,7.8-9.4c11.9-13.4,15.1-17.6,25.9-33.2c4.1-2.2,8-4.5,11.6-6.6c0-0.1,0-0.1,0.1-0.2c-1,3-1.4,5.7-0.2,5.4l-0.1,0    c-9,18.1-21.9,33.1-38.4,43.5l1.7-1.1c16.3-10.6,29.2-25.5,38.1-43.2c2.1-1.7,4.6-5.5,6.4-9.3c6.8-4.6,12-8.8,15.3-12.6    c-1,1.9-2,3.7-2.7,5.7c-1.6,2.7-3.2,5.4-5,8l0.8-1.1c1.5-2.3,3-4.7,4.4-7.1c1.2-1.4,5-8.7,7.8-14.5l0.2-0.4c0,0.1-0.1,0.2-0.1,0.2    c1.9-3.9,3.2-7.2,3.1-7.6c0,0,0,0,0,0c0,0,0,0,0,0c0.4-1,0.8-2,1.2-3c1-1.8,2.7-6.2,4.2-10.7c0.4-0.7,0.6-1.3,0.8-1.9l1.7-5.7    c-0.2,0.7-0.5,1.4-0.9,2.2c1-3.5,1.6-6.5,1.3-7.3c-0.1,0-0.2,0.1-0.3,0.2c-0.3,0.5-1.2,1.9-4.1,11.7c-3.9,4.6-10.2,9.7-18.4,15.2    c0.5-3.4,0.1-6-1.6-6.2c-0.1,0-0.2,0-0.3,0c0,0,0,0,0.1,0c0.2-1.3,0.3-2.5,0.5-3.8c11.4-7.4,19.8-14.2,24.2-20    c1.8-2.3,2.8-4.4,3.2-6.2l0.9-4.9l0.2-0.9c-0.3,1.9-1.4,4.1-3.3,6.6c-4.5,5.9-13,12.8-24.6,20.3c0.4-5.1,0.7-10.4,0.6-15.7    c2.2-2.7,3.3-6.6,3.5-10.4c10.5-7.1,18.3-13.6,22.6-19.3c2.4-3.2,3.6-5.9,3.6-8.2l0,0c0,0,0,0,0,0l0,0l0-1.2    C428.7,246.4,428.7,244.6,428.7,243.2z M312.5,191.1c0-0.7,0.3-1.1,0.7-1.3C312.9,190.1,312.6,190.4,312.5,191.1z M313.5,189.7    c0.2-0.1,0.5-0.1,0.7,0C314,189.6,313.7,189.6,313.5,189.7z M314.2,189.6c0.1,0,0.2,0,0.3,0c0.1,0.1,0.3,0.1,0.4,0.2    C314.7,189.7,314.5,189.7,314.2,189.6z M315.9,190.7c0.2,0.3,0.4,0.6,0.5,0.7C316.2,191.2,316.1,190.9,315.9,190.7z M343.1,124.5    c0.5,0.6,1,1,1,1c0.2,0.2,0.4,0.3,0.7,0.5C344.1,125.7,343.5,125.1,343.1,124.5z M360,103.2C360,103.3,360,103.3,360,103.2    C360,103.3,360,103.2,360,103.2C360,103.2,360,103.2,360,103.2z M348.8,94.7c-0.2-0.1-0.3-0.2-0.4-0.3    C348.6,94.5,348.7,94.6,348.8,94.7z M298.2,71.4c0-0.1-0.1-0.1-0.2-0.2C298.2,71.3,298.2,71.3,298.2,71.4    C298.2,71.4,298.2,71.4,298.2,71.4z M301.7,72.3C301.7,72.3,301.7,72.3,301.7,72.3C301.7,72.3,301.7,72.3,301.7,72.3    C301.7,72.3,301.7,72.3,301.7,72.3z M319.6,105.9c0.2,0.1,0.5,0.3,0.8,0.4c-0.7-0.3-1.4-0.8-2-1.3    C319,105.5,319.6,105.9,319.6,105.9z M224.5,387.3c-0.4,0-0.8,0.1-1.2,0.2C223.6,387.5,224,387.4,224.5,387.3z M93.6,243.4    c0-0.3,0-0.8,0.1-1.4C93.7,242.4,93.7,242.8,93.6,243.4z M93.8,241.9c0.1-0.5,0.3-0.9,0.5-1.2c0.1-0.1,0.1-0.1,0.2-0.2    C94.1,241.1,93.9,241.4,93.8,241.9z M94.5,240.5c0.1-0.1,0.2-0.1,0.4,0C94.8,240.5,94.7,240.5,94.5,240.5z M95,240.5    c0.2,0.1,0.5,0.4,0.7,1.1C95.5,241.2,95.3,241,95,240.5z M95.8,242.2c0,0.3,0.1,0.6,0.1,1C95.9,242.8,95.8,242.5,95.8,242.2z     M123.7,346.5c-5.4-9.5-10.2-19.8-14.3-30.8c-8.5-23-12.8-46.9-13.4-70.3c0.7-0.1,1.4-0.1,2.1-0.2c0,0,0-0.1,0-0.1    c0.5,5.4,2.6,9.4,4.9,10.3c1.7,19.9,6.1,40.1,13.3,59.6c4,10.9,8.8,21.2,14.2,30.8C128.1,346.1,125.8,346.3,123.7,346.5z     M185,324.2c-5.1,1.7-5.8,7.1-4,12.1c0-0.1-0.1-0.1-0.1-0.2c-18.2,4.5-34.3,7.7-47.8,9.4c-5.3-9.5-10.1-19.8-14.1-30.8    c-7.2-19.5-11.6-39.6-13.6-59.5c0.3-0.2,0.6-0.5,1-0.8c2-2.2,3-6.4,3.1-10.7c0,0,0,0.1,0,0.1c5.8-0.8,12.2-2,18.9-3.3    c8.5,11.2,9.3,12,21.9,25.1c0.4-2,0.8-3.2,1.7-4.7c-11.3-11.6-11.7-12.1-22.2-25.7c-0.5-0.6-0.8-0.6-1.2-0.6    c-7,1.4-13.5,2.6-19.4,3.4c0,0.1,0,0.3,0.1,0.4c0.4,2.4,0.4,4.4,0.3,5.2c0.1-6.4-1.7-13-4.8-14.1c0.1-5.6,0.4-11.1,0.9-16.6    c14.7-1.9,33.2-5.7,54.9-11.8c0.2-0.3,0.4-0.6,0.6-0.9c4-8.8,7.9-17.7,11.9-26.5c1.7-0.5,3.4-1,5.2-1.6    c32-9.9,63.7-22.3,90.2-34.8c3.2,4.1,6.4,8.3,9.5,12.7c0.4-0.4,0.8-0.7,1.3-0.9c-4.2,2.2-3.1,9,0.4,14c1.4,2,3.1,3.7,4.8,4.8    c-0.2-0.1-0.4-0.3-0.6-0.5l-0.5-0.4c-1.8,23.2-4.3,36.6-10.4,62.8c-4.6,1.9-9.3,3.7-14.1,5.6c-2.2-5.7-4.4-11.3-6.6-16.8    c1-0.8,1.9-2,2.5-3.5c3.6-8.7-4.6-22.4-14.1-19.5c-6.3,2.9-5.9,11.3-3.7,16.3c2.9,6.3,8.5,9.2,12.9,7.8c-0.5,0.1-0.9,0.3-1.5,0.3    l-0.3,0c2.2,5.6,4.4,11.2,6.5,16.9c-18.5,7.1-37.7,13.7-56.9,19.7c-10.8,3.3-21.1,6.3-30.8,8.9c0,0,0,0,0,0.1    c-2.1-5-6.1-8.9-10.9-8c-5.7,1.8-7,9.9-4.9,16.4c3.1,9.7,12.1,13.1,15.9,6.2c2-3.6,1.9-8.7,0.4-13.1c0.5,1.4,0.8,2.6,1,4.3    c9.8-2.6,20.2-5.6,31-9c19.4-6,38.7-12.7,57.3-19.8c3.1,8.2,6.3,16.6,9.4,25c-5.1,1.9-10.3,3.9-15.5,5.8c0,0.1,0.1,0.2,0.1,0.2    c-2.8-5-7.7-8.5-13.3-6.9c-7.5,3.2-6.9,12.3-4.8,17.2c0.9,2.2,2.2,4,3.7,5.4c-3.1,9.6-3.8,11.8-11.1,34.1c-1,0.3-1.9,0.6-2.9,0.9    c-8.3,2.6-16.3,4.9-23.9,7.3C195.5,326.9,190.3,323.2,185,324.2z M304.1,348.6c-22.5-13.1-23.3-13.1-24.2-13    c-14.8,5.5-29.9,10.6-45.1,15.3c-10.3,3.2-20.1,6-29.4,8.5c-2.6-4.2-5.1-8.7-7.5-13.3c1.2-0.8,2.2-2,2.7-3.8    c0.5-1.7,0.5-3.7,0-5.6c7.7-2.1,15.8-4.5,24.1-7.1c1.2-0.4,2.5-0.8,3.7-1.2c0.8-0.3,1-0.7,1.2-1.2c6.7-20.4,6.7-20.4,11.4-34.7    c4.3,1.5,8.9,0.1,11.1-4.9c1.1-2.6,1.3-5.5,0.7-8.4c0,0,0,0.1,0,0.1c5.2-1.9,10.4-3.8,15.5-5.8c2.1,5.6,4.1,11.2,6.1,16.6    c0.2,0.4,0.3,0.6,0.4,0.8c0,0,0.1-0.1,0.1-0.1c-4.3,3.4-4.9,10.4-2.5,15.7c4.3,9.3,15,10,18.3,1.3c0.9-2.4,1-4.9,0.6-7.3    c9.2-3.3,18.2-7,26.8-10.8c11.7,8,15.3,10.4,25.4,18.1c0.3,0.1,0.7,0.3,1,0.3c9-4.1,17.1-8.2,24.8-12.2c0-0.1,0-0.2-0.1-0.3    c1.7,6.7,6.2,8.6,9.8,3.6c5.7-7.9,3.1-23-3.8-21.9c-0.4,0.1-1,0.3-1.4,0.5c-4.6,2.9-5.6,10-5.1,14.8c-0.1-0.6-0.1-1.2-0.1-1.9    c-7.5,3.9-15.5,7.9-24,11.9c-11.5-8.6-12.7-9.5-25.8-18.4c-0.7-0.4-0.9-0.4-1.6-0.2c-9,3.9-18.2,7.8-27.8,11.5    c-2.4-4.2-6.6-7.1-11-6.3c0,0,0.1,0,0.1,0c-0.1-0.3-0.1-0.4-0.2-0.7c-1.9-5.4-4-10.9-6-16.6c22.8-8.8,44.4-18.2,63.7-27.5    c2.2,5.8,4.1,11.6,5.9,17.3c0.3-0.2,0.5-0.4,0.7-0.6c-4.3,3.1-5.1,11-3,16.9c3.2,8.9,10.9,10.4,14.5,2.9c4.3-8.9-1.4-22-8.6-21    c-1.8-5.7-3.7-11.5-5.9-17.3c4-2,8-4,11.8-5.9c23,17.5,29,23.6,40.4,36.5c-0.3,2.4-0.3,5,0,7.3c0.7,5.8,2.9,8.4,5,7.9    c0,0-0.1,0-0.1,0l-0.1,0c0.1,5.3-0.1,10.5-0.5,15.6C373.7,318.2,340.8,334.1,304.1,348.6z M413.6,317.1c0.1-0.1,0.1-0.2,0.2-0.2    C413.7,317,413.6,317.1,413.6,317.1z M414.4,314.8c0.1-0.1,0.2-0.2,0.3-0.4C414.6,314.6,414.5,314.7,414.4,314.8z M398.1,322.6    c8-5.4,14.1-10.4,17.9-14.9c0,0,0,0,0,0c-1.8,6.2-1.7,6.7-1.7,7c0,0,0.1,0,0.1,0.1c0,0,0,0-0.1,0c-0.4,1-0.8,2.1-1.2,3.1    c0.1-0.1,0.1-0.2,0.2-0.3c-0.4,0.8-1.4,2.8-6.5,13.3c0,0,0,0,0,0c0.3-0.6,0.6-1.2,1-2.2c-3.4,4-8.9,8.4-16,13.2    c1-2.9,1.2-5.2,0.2-5.6c-0.2-0.1-0.4-0.1-0.6,0c0,0,0.1,0,0.1,0c0.4-1.1,0.7-2.3,1.1-3.5C394.9,330.6,396.9,326.6,398.1,322.6z" style="fill: #0065C2;"></path><path class="st1" d="M272.5,410.6c1.1-0.6,1.8-1.6,1.6-3.1c-0.1-0.7-0.3-1.3-0.7-2c0,0,0.1,0.1,0.1,0.1    c22.9-7.2,45.6-15.9,65.4-24.8c0.4-0.2,0.6-0.4,0.9-0.9c9.2-13.6,11.8-18.3,18-29.7c-0.3-0.2-0.4-0.4-0.6-0.6    c1.4,1.7,3.7,1.6,6.1-0.8c6.2-6.2,6.7-19.2,0.8-18.7c-0.6,0-1.2,0.3-1.7,0.5c-4.9,2.9-6.7,10.1-6.7,13.9c0,1.5,0.3,2.8,0.7,3.8    l0,0c-6.8,12.5-12.6,21.5-17.7,29.5c-20.5,9.2-43.8,18.1-67.2,25.6c0.1,0.1,0.2,0.1,0.2,0.2c-2.3-2-6.1-3.4-9.5-2.9    c0.1,0,0.3,0,0.4-0.1c-5-5.6-10.1-12.4-15.2-20.1c0.8-0.5,1.4-1.1,1.9-1.8c15,6.1,26.3,10.5,26.4,10.5c0.6,0.2,0.9,0.2,1.4,0.1    c17-5.7,33.7-12.1,49.5-18.8c0.2-0.2,0.5-0.5,0.7-0.8c1.1-2,2.5-4.6,3.6-6.6c-0.2-0.1-0.3-0.2-0.5-0.2c2.6,1.2,5.9-0.1,8.4-3.9    c4.4-7,1.8-16-4.4-15c-0.5,0.1-1.1,0.3-1.5,0.5c-5.7,2.9-6.7,9.6-6,13.2c0.3,1.5,0.9,2.7,1.6,3.6c0,0,0,0,0,0l-3.1,6    c-15.6,6.6-32.3,12.9-49.3,18.6c-11.4-4.7-11.4-4.7-25.7-10.6c0,0.2,0,0.4-0.1,0.6c0.7-6.4-7.1-13.8-15.2-11.9    c-6.4,2.3-5.3,8.5-2.4,12.2c3,3.9,7.5,5.7,11.3,5.4c5.3,7.7,10.6,14.3,15.8,19.9c0.2-0.1,0.5-0.2,0.7-0.4    c-2.8,1.2-3.3,3.6-1.4,5.9c0,0-0.1-0.1-0.1-0.1c-17.8,5.1-33.3,8.6-45.8,10.4c-5.3-2.4-10.6-5.1-15.8-8.2c-0.5,0.2-1,0.3-1.9,0.3    l-0.2,0c5.2,3.1,10.5,5.9,15.9,8.2c-12.1,1.6-21.1,1.6-26.2-0.2l5.7,1.9c4.9,1.6,13.4,1.6,24.8,0c1.1,0.4,2.2,0.8,3.3,1.2    c0.1-0.1,0.3-0.2,0.6-0.2c-1.3,0.2-0.7,0.8-0.2,1.2c0.8,0.6,2.4,1.2,4.4,1.8c-0.1,0-0.1,0-0.2-0.1c-7.9,0.9-14.1,0.9-18.2,0l6,1.3    c3.9,0.7,9.6,0.7,16.7-0.2c-0.3-0.1-0.5-0.1-0.8-0.2c4.2,0.9,9,1.5,11.2,1.4c-0.1,0-0.2,0-0.2,0l-0.1,0c9.3,1.6,18.7,2,28,1.2    l1.6-0.2c-5.3,0.3-12.4,0.8-17.6,0.2c-3.2-0.4-7.4-1.2-10.6-1.3c0,0-0.1,0-0.1,0c0.1,0,0.1-0.1,0.2-0.1c-0.1-0.5-1.9-1.2-4.4-2    c4.3-0.7,9-1.6,14-2.8c11.2,4,22.5,5.3,33.4,3.6l1.5-0.3c-11.2,1.9-22.9,0.3-34.7-4.4c-1.5-0.5-2.1-0.4-2.6-0.4    c-5.7,1.3-11,2.4-15.8,3.1c-4.6-1.2-9.6-2.1-11.4-1.9c0.3,0,0.6-0.1,1.1,0c-1.1-0.4-2.1-0.8-3.2-1.2c12-1.7,27-5.1,44.1-10.1    c0,0-0.1,0-0.1-0.1c3.4,2.1,8.1,2.7,10.7,1.5c-0.6,0.3-1.3,0.5-2.1,0.6c10,8.1,19.4,11.5,27.5,9.5c0.1,0,0.3-0.1,0.4-0.1l0.1,0    c0.3-0.1,0.6-0.2,0.9-0.3c-0.2,0-0.3,0.1-0.5,0.1C290.9,422.4,282,418.8,272.5,410.6z M356.7,349c0-0.1-0.1-0.1-0.1-0.2l-0.1-0.2    C356.6,348.7,356.7,348.8,356.7,349z" style="fill: #0065C2;"></path><path class="st1" d="M419.2,210.2c-3.3,4.4-8.6,9.3-15.6,14.5c0,0.1,0.1,0.2,0.1,0.3c0.9,2.5,1.2,4.6,1.4,5.4    c6.9-5.2,12.2-10.1,15.5-14.5c2.3-3.1,3.6-5.8,3.8-8.1c0-0.2,0-0.4,0-0.6c0-0.4-0.3-1.5-0.5-2.7c0.3,1.1,0.5,2.2,0.5,2.7    c0-0.6,0-1.1-0.2-1.6l-1.5-6l0.2,1.8C423,204,421.7,206.9,419.2,210.2z M423.4,202.6c-0.1-0.5-0.3-0.9-0.4-1.1    C423.1,201.6,423.3,202.1,423.4,202.6z" style="fill: #0065C2;"></path><path class="st1" d="M109.6,358.7c-0.3,0.3-0.7,0.2-1.5-0.3c1.4,1.9,2.7,3.7,4.2,5.5c0.1-0.1,0.3-0.1,0.5-0.1    c-1.5-0.1,0.4,3.3,3.2,6.6c0.9,1.1,1.9,2.2,3,3.4c5.1,5.4,11.1,9.8,11.4,8.5c0.4-1.7-11.9-15.7-16.6-18.2c0,0,0,0,0.1,0    C112.4,362.4,111,360.5,109.6,358.7z" style="fill: #0065C2;"></path></svg> <svg y="388.405" viewBox="0.9100000262260437 15.819999694824219 481.8800048828125 66.01000213623047" x="46.55999755859375" height="66.01000213623047" width="481.8800048828125" style="overflow: visible;"><g fill="#00457C" fill-opacity="1" style=""><path d="M19.32 68.46L19.32 68.46Q14.14 68.46 9.21 66.95Q4.27 65.45 0.91 62.79L0.91 62.79L4.76 55.72Q7.42 57.89 11.24 59.22Q15.05 60.55 19.18 60.55L19.18 60.55Q24.01 60.55 26.78 58.52Q29.54 56.49 29.54 53.06L29.54 53.06Q29.54 50.75 28.39 49Q27.23 47.25 24.33 46.34Q21.42 45.43 16.38 45.43L16.38 45.43L4.55 45.43L7.07 18.76L35.84 18.76L35.84 26.39L10.43 26.39L15.19 22.05L13.30 42L8.54 37.73L18.41 37.73Q25.69 37.73 30.14 39.66Q34.58 41.58 36.65 44.98Q38.71 48.37 38.71 52.71L38.71 52.71Q38.71 56.98 36.61 60.55Q34.51 64.12 30.21 66.29Q25.90 68.46 19.32 68.46ZM44.52 68.25L44.52 68.25Q42.14 68.25 40.46 66.61Q38.78 64.96 38.78 62.44L38.78 62.44Q38.78 59.78 40.46 58.21Q42.14 56.63 44.52 56.63L44.52 56.63Q46.90 56.63 48.58 58.21Q50.26 59.78 50.26 62.44L50.26 62.44Q50.26 64.96 48.58 66.61Q46.90 68.25 44.52 68.25ZM71.68 68.46L71.68 68.46Q65.87 68.46 61.22 65.52Q56.56 62.58 53.90 56.95Q51.24 51.31 51.24 43.26L51.24 43.26Q51.24 35.21 53.90 29.58Q56.56 23.94 61.22 21Q65.87 18.06 71.68 18.06L71.68 18.06Q77.56 18.06 82.18 21Q86.80 23.94 89.50 29.58Q92.19 35.21 92.19 43.26L92.19 43.26Q92.19 51.31 89.50 56.95Q86.80 62.58 82.18 65.52Q77.56 68.46 71.68 68.46ZM71.68 60.55L71.68 60.55Q75.11 60.55 77.63 58.70Q80.15 56.84 81.59 52.99Q83.02 49.14 83.02 43.26L83.02 43.26Q83.02 37.31 81.59 33.50Q80.15 29.68 77.63 27.83Q75.11 25.97 71.68 25.97L71.68 25.97Q68.39 25.97 65.84 27.83Q63.28 29.68 61.85 33.50Q60.41 37.31 60.41 43.26L60.41 43.26Q60.41 49.14 61.85 52.99Q63.28 56.84 65.84 58.70Q68.39 60.55 71.68 60.55ZM130.41 67.76L121.31 67.76L121.31 26.46L105.07 26.46L105.07 18.76L146.65 18.76L146.65 26.46L130.41 26.46L130.41 67.76ZM165.34 68.25L165.34 68.25Q159.11 68.25 154.46 65.77Q149.80 63.28 147.25 58.94Q144.69 54.60 144.69 49.07L144.69 49.07Q144.69 43.47 147.18 39.17Q149.66 34.86 154.03 32.41Q158.41 29.96 164.01 29.96L164.01 29.96Q169.47 29.96 173.74 32.34Q178.01 34.72 180.46 39.06Q182.91 43.40 182.91 49.28L182.91 49.28Q182.91 49.84 182.88 50.54Q182.84 51.24 182.77 51.87L182.77 51.87L151.62 51.87L151.62 46.06L178.15 46.06L174.72 47.88Q174.79 44.66 173.39 42.21Q171.99 39.76 169.57 38.36Q167.16 36.96 164.01 36.96L164.01 36.96Q160.79 36.96 158.38 38.36Q155.96 39.76 154.59 42.25Q153.23 44.73 153.23 48.09L153.23 48.09L153.23 49.49Q153.23 52.85 154.77 55.44Q156.31 58.03 159.11 59.43Q161.91 60.83 165.55 60.83L165.55 60.83Q168.70 60.83 171.22 59.85Q173.74 58.87 175.70 56.77L175.70 56.77L180.39 62.16Q177.87 65.10 174.06 66.68Q170.24 68.25 165.34 68.25ZM203.56 68.25L203.56 68.25Q197.68 68.25 193.09 65.77Q188.51 63.28 185.92 58.94Q183.33 54.60 183.33 49.07L183.33 49.07Q183.33 43.47 185.92 39.17Q188.51 34.86 193.09 32.41Q197.68 29.96 203.56 29.96L203.56 29.96Q209.02 29.96 213.19 32.16Q217.35 34.37 219.52 38.64L219.52 38.64L212.80 42.56Q211.12 39.90 208.70 38.64Q206.29 37.38 203.49 37.38L203.49 37.38Q200.27 37.38 197.68 38.78Q195.09 40.18 193.62 42.81Q192.15 45.43 192.15 49.07L192.15 49.07Q192.15 52.71 193.62 55.34Q195.09 57.96 197.68 59.36Q200.27 60.76 203.49 60.76L203.49 60.76Q206.29 60.76 208.70 59.50Q211.12 58.24 212.80 55.58L212.80 55.58L219.52 59.50Q217.35 63.70 213.19 65.98Q209.02 68.25 203.56 68.25ZM243.39 29.96L243.39 29.96Q247.87 29.96 251.40 31.71Q254.94 33.46 256.97 37.06Q259 40.67 259 46.34L259 46.34L259 67.76L250.25 67.76L250.25 47.46Q250.25 42.49 247.90 40.04Q245.56 37.59 241.36 37.59L241.36 37.59Q238.28 37.59 235.90 38.85Q233.52 40.11 232.22 42.59Q230.93 45.08 230.93 48.86L230.93 48.86L230.93 67.76L222.18 67.76L222.18 15.82L230.93 15.82L230.93 40.46L229.04 37.38Q231.00 33.81 234.74 31.89Q238.49 29.96 243.39 29.96ZM286.44 29.96L286.44 29.96Q290.92 29.96 294.46 31.71Q297.99 33.46 300.02 37.06Q302.05 40.67 302.05 46.34L302.05 46.34L302.05 67.76L293.30 67.76L293.30 47.46Q293.30 42.49 290.96 40.04Q288.61 37.59 284.41 37.59L284.41 37.59Q281.33 37.59 278.95 38.85Q276.57 40.11 275.28 42.59Q273.98 45.08 273.98 48.86L273.98 48.86L273.98 67.76L265.23 67.76L265.23 30.38L273.56 30.38L273.56 40.46L272.09 37.38Q274.05 33.81 277.80 31.89Q281.54 29.96 286.44 29.96ZM325.08 68.25L325.08 68.25Q319.34 68.25 314.86 65.77Q310.38 63.28 307.79 58.94Q305.20 54.60 305.20 49.07L305.20 49.07Q305.20 43.47 307.79 39.17Q310.38 34.86 314.86 32.41Q319.34 29.96 325.08 29.96L325.08 29.96Q330.89 29.96 335.41 32.41Q339.92 34.86 342.48 39.13Q345.03 43.40 345.03 49.07L345.03 49.07Q345.03 54.60 342.48 58.94Q339.92 63.28 335.41 65.77Q330.89 68.25 325.08 68.25ZM325.08 60.76L325.08 60.76Q328.30 60.76 330.82 59.36Q333.34 57.96 334.78 55.30Q336.21 52.64 336.21 49.07L336.21 49.07Q336.21 45.43 334.78 42.81Q333.34 40.18 330.82 38.78Q328.30 37.38 325.15 37.38L325.15 37.38Q321.93 37.38 319.45 38.78Q316.96 40.18 315.49 42.81Q314.02 45.43 314.02 49.07L314.02 49.07Q314.02 52.64 315.49 55.30Q316.96 57.96 319.45 59.36Q321.93 60.76 325.08 60.76ZM357.28 67.76L348.53 67.76L348.53 15.82L357.28 15.82L357.28 67.76ZM380.66 68.25L380.66 68.25Q374.92 68.25 370.44 65.77Q365.96 63.28 363.37 58.94Q360.78 54.60 360.78 49.07L360.78 49.07Q360.78 43.47 363.37 39.17Q365.96 34.86 370.44 32.41Q374.92 29.96 380.66 29.96L380.66 29.96Q386.47 29.96 390.99 32.41Q395.50 34.86 398.06 39.13Q400.61 43.40 400.61 49.07L400.61 49.07Q400.61 54.60 398.06 58.94Q395.50 63.28 390.99 65.77Q386.47 68.25 380.66 68.25ZM380.66 60.76L380.66 60.76Q383.88 60.76 386.40 59.36Q388.92 57.96 390.36 55.30Q391.79 52.64 391.79 49.07L391.79 49.07Q391.79 45.43 390.36 42.81Q388.92 40.18 386.40 38.78Q383.88 37.38 380.73 37.38L380.73 37.38Q377.51 37.38 375.03 38.78Q372.54 40.18 371.07 42.81Q369.60 45.43 369.60 49.07L369.60 49.07Q369.60 52.64 371.07 55.30Q372.54 57.96 375.03 59.36Q377.51 60.76 380.66 60.76ZM421.05 81.83L421.05 81.83Q415.87 81.83 410.94 80.47Q406.00 79.10 402.85 76.51L402.85 76.51L406.77 69.93Q409.22 71.96 412.97 73.19Q416.71 74.41 420.56 74.41L420.56 74.41Q426.72 74.41 429.59 71.58Q432.46 68.74 432.46 63.07L432.46 63.07L432.46 56.42L433.16 47.95L432.88 39.48L432.88 30.38L441.21 30.38L441.21 62.09Q441.21 72.24 436.03 77.04Q430.85 81.83 421.05 81.83ZM419.93 66.08L419.93 66.08Q414.61 66.08 410.31 63.81Q406.00 61.53 403.52 57.47Q401.03 53.41 401.03 47.95L401.03 47.95Q401.03 42.56 403.52 38.50Q406.00 34.44 410.31 32.20Q414.61 29.96 419.93 29.96L419.93 29.96Q424.69 29.96 428.47 31.85Q432.25 33.74 434.53 37.73Q436.80 41.72 436.80 47.95L436.80 47.95Q436.80 54.18 434.53 58.21Q432.25 62.23 428.47 64.16Q424.69 66.08 419.93 66.08ZM421.26 58.66L421.26 58.66Q424.55 58.66 427.14 57.30Q429.73 55.93 431.17 53.52Q432.60 51.10 432.60 47.95L432.60 47.95Q432.60 44.80 431.17 42.39Q429.73 39.97 427.14 38.67Q424.55 37.38 421.26 37.38L421.26 37.38Q417.97 37.38 415.35 38.67Q412.72 39.97 411.29 42.39Q409.85 44.80 409.85 47.95L409.85 47.95Q409.85 51.10 411.29 53.52Q412.72 55.93 415.35 57.30Q417.97 58.66 421.26 58.66ZM450.87 81.83L450.87 81.83Q448.14 81.83 445.41 80.92Q442.68 80.01 440.86 78.40L440.86 78.40L444.36 71.96Q445.69 73.15 447.37 73.85Q449.05 74.55 450.80 74.55L450.80 74.55Q453.18 74.55 454.65 73.36Q456.12 72.17 457.38 69.37L457.38 69.37L459.55 64.47L460.25 63.42L474.39 30.38L482.79 30.38L465.29 70.77Q463.54 74.97 461.41 77.42Q459.27 79.87 456.65 80.85Q454.02 81.83 450.87 81.83ZM464.52 62.65L458.57 69.09L441.70 30.38L450.80 30.38L464.52 62.65Z" transform="translate(0, 0)"></path></g></svg></svg>